<?xml version="1.0" standalone="no"?>
<!DOCTYPE svg PUBLIC "-//W3C//DTD SVG 1.1//EN" "http://www.w3.org/Graphics/SVG/1.1/DTD/svg11.dtd" >
<svg xmlns="http://www.w3.org/2000/svg" xmlns:xlink="http://www.w3.org/1999/xlink" version="1.1">
<metadata>
Created by FontForge 20161116 at Tue Dec 27 22:10:11 2011
 By Jimmy Warting
Copyright (c) 2011 Natanael Gama (exo@ndiscovered.com), with Reserved Font Name "Exo"
</metadata>
<defs>
<font id="Exo-ExtraBoldItalic" horiz-adv-x="548" >
  <font-face 
    font-family="Exo"
    font-weight="800"
    font-style="italic"
    font-stretch="normal"
    units-per-em="1000"
    panose-1="2 0 8 3 0 0 0 0 0 0"
    ascent="800"
    descent="-200"
    x-height="531"
    cap-height="732"
    bbox="-60.75 -308.41 1408.15 998.25"
    underline-thickness="50"
    underline-position="-50"
    stemh="21"
    stemv="314"
    unicode-range="U+000D-FB06"
  />
<missing-glyph horiz-adv-x="758" 
d="M100 0v531h558v-531h-558zM114 22l256 244l-256 241v-485zM124 518l257 -242l254 242h-511zM127 13h507l-253 243zM392 266l252 -241v481z" />
    <glyph glyph-name="fi" unicode="fi" horiz-adv-x="606" 
d="M40.5 412l16.5 102l81 17l11.75 57.5c19.25 122.5 112 194.5 253.5 197.5c50 0.75 206 -7.75 244.75 -26.5l-15.5 -95.5c-1 0 -187.25 3.5 -187.25 3.5c-52 1 -123.5 -12.75 -139 -109l-4.25 -27.5l340.75 -10l-82.75 -521h-164.25l65.25 412h-178.25l-65.25 -412h-164
l65.25 412h-78.25z" />
    <glyph glyph-name="fl" unicode="fl" horiz-adv-x="690" 
d="M77.75 412l16.5 101.5l81.5 17.5l9 45.75c28 178 133 208.75 252 208.75l299.75 -2.25l-89.5 -564.25c-12.25 -76.5 2 -88.75 26.75 -100c0 0 47.75 -20.25 53.25 -20.25l-15.75 -98.75h-98c-92 0 -156.75 48.25 -134.75 189l75.5 477.25
c-33.75 0 -115.25 0.75 -115.25 0.75c-54.75 0 -82.75 -22.75 -94.5 -97.75l-4.5 -38.25h114.75l-18.75 -119h-115l-66.25 -412h-164l66 412h-78.75z" />
    <glyph glyph-name=".notdef" horiz-adv-x="758" 
d="M100 0v531h558v-531h-558zM114 22l256 244l-256 241v-485zM124 518l257 -242l254 242h-511zM127 13h507l-253 243zM392 266l252 -241v481z" />
    <glyph glyph-name=".notdef" horiz-adv-x="758" 
d="M100 0v531h558v-531h-558zM114 22l256 244l-256 241v-485zM124 518l257 -242l254 242h-511zM127 13h507l-253 243zM392 266l252 -241v481z" />
    <glyph glyph-name="uni000D" unicode="&#xd;" horiz-adv-x="1000" 
 />
    <glyph glyph-name="space" unicode=" " horiz-adv-x="250" 
 />
    <glyph glyph-name="exclam" unicode="!" horiz-adv-x="274" 
d="M64 23l16.5 102c2 15 12 25 28 25h100c15 0 21 -11 19 -25l-16.5 -102c-2 -15 -12 -23 -26 -23h-100c-14 0 -23 9 -21 23zM101 197l69.5 534h160.25l-101.5 -534h-128.25z" />
    <glyph glyph-name="quotedbl" unicode="&#x22;" horiz-adv-x="468" 
d="M153 531l9.25 134l11 67h156.75l-11 -67l-31 -134h-135zM348.75 531l10.75 134l11 67h156.75l-11 -67l-31 -134h-136.5z" />
    <glyph glyph-name="numbersign" unicode="#" horiz-adv-x="733" 
d="M44.75 202l34.75 112h150l34.75 105h-151.5l36 112h155l69.25 201h112l-69.25 -201h107.5l68.25 201h112l-68.25 -201h169.5l-34.5 -112h-170.25l-34.75 -106h170.25l-33.25 -112h-179.25l-68.75 -201h-112l68.75 201l-108.25 1l-68.75 -202h-112l68.75 202h-146z
M341.5 314l111.75 -1l34.75 106h-111.75z" />
    <glyph glyph-name="dollar" unicode="$" horiz-adv-x="568" 
d="M63.5 23.75l20.5 126.5c39.25 -3 136.75 -9.75 229.75 -9.75c42.5 0 78.25 12 85 53.75l4.25 29c6 36 3 57.5 -51.5 57.5h-77.5c-177.75 0 -168.25 166.5 -159.75 221.5l8.5 62.25c21.75 143.25 118.75 170 229.75 173.5l13.25 86h95.5l-13.25 -86.75
c70.25 -3.5 121.75 -14.75 169 -30l-20.25 -127.75c-59.75 5.25 -166.75 9.75 -216.25 9.75c-58 0.75 -87.25 -6.25 -96 -59.25l-4 -24.75c-6.25 -40 0.75 -60.5 61.75 -60.5h80.5c148.5 0 160.25 -140.25 147.25 -220.75l-6.5 -41.75
c-27.25 -170.25 -134.25 -190.25 -233.5 -190.25l-13 -82h-95.5l13.25 83.25c-81.5 2.5 -109.5 10.25 -171.25 30.5z" />
    <glyph glyph-name="percent" unicode="%" horiz-adv-x="965" 
d="M103.75 492.75l18.75 118c13 84.5 53.75 121.25 157.25 121.25h101c95 0 127 -55 113.75 -141.5l-18.75 -118c-13.5 -87 -55.25 -123.5 -157 -123.5h-101c-92.25 0 -127 59 -114 143.75zM217.5 504c-4.25 -28.75 -0.75 -45 35.75 -45h63.5c39.25 0 48.5 16.5 52.75 45
l11.25 73c5.75 37 -3.5 45 -36.25 45h-63.5c-31 0 -46.75 -8.25 -52.25 -45zM199.5 0l566 732h110.75l-560.75 -732h-116zM588.25 142.25l18 118c13 84.5 53 125 156.5 125h101.75c95 0 126.25 -57.25 113.75 -143.75l-17.25 -118c-13.5 -87 -57 -121.25 -158.75 -121.25
h-101.75c-92.25 0 -125.25 55.25 -112.25 140zM701.25 157.25c-4.25 -28.75 -0.25 -45 36.25 -45h62.75c39.25 0 48.75 16.5 53 45l11.25 73c5.75 37 -3.75 45 -36.5 45h-62.75c-31 0 -47.25 -8.25 -52.75 -45z" />
    <glyph glyph-name="ampersand" unicode="&#x26;" horiz-adv-x="689" 
d="M82 85c-58.5 100 -34.5 200.5 72.25 280.25l89 67l-36.25 64c-62.75 108.25 18.75 220 106.25 233c120 18.75 215.5 -1 291.5 -19.25l-19.25 -120h-150.5c-78.5 0 -90.75 -17.5 -50.25 -89l115 -201l136.75 116.25l48 -71l-70.25 -122.5l-45.75 -43.75l102.75 -179h-181
l-50.75 88.5l-75.5 -58.75c-68.75 -54 -217 -56.75 -282 55.25zM215 174.5c21.5 -33.5 58.75 -46.75 100 -13l53.25 44.25l-63 105.25l-57.5 -41.25c-50.25 -39.25 -49.25 -70 -32.75 -95.25z" />
    <glyph glyph-name="quotesingle" unicode="'" horiz-adv-x="238" 
d="M132 531l10 134l11 67h165l-11 -67l-31 -134h-144z" />
    <glyph glyph-name="parenleft" unicode="(" horiz-adv-x="392" 
d="M101.5 303.5c56.5 350.5 264.75 511.5 264.75 511.5h150.25s-202 -240.75 -251 -534c-52.75 -316.5 81 -536 81 -536h-148.5s-157 183.75 -96.5 558.5z" />
    <glyph glyph-name="parenright" unicode=")" horiz-adv-x="394" 
d="M-19.75 -255c0 0 199 222.75 251 535.5c49.75 297 -81.75 534.5 -81.75 534.5h148.5s154 -205.5 97.25 -557c-60.25 -373.75 -249.75 -513 -249.75 -513h-165.25z" />
    <glyph glyph-name="asterisk" unicode="*" horiz-adv-x="422" 
d="M122.5 566l9.75 62.5l142.5 21.5l-9.25 -89zM152.25 417l45.75 137.25l83.5 -22.25l-73.25 -133.75zM256.75 463.25l60.75 74.75l98 -89.5l-44 -50zM275.5 720.75l62.75 20.5l45 -124l-88 -33.25zM325.25 571l132 79.75l27.25 -51.5l-114.25 -97z" />
    <glyph glyph-name="plus" unicode="+" horiz-adv-x="471" 
d="M73 289l21 134h140l22.5 141h134l-22.5 -141h142l-21 -134h-142l-22.5 -141h-134l22.5 141h-140z" />
    <glyph glyph-name="comma" unicode="," horiz-adv-x="257" 
d="M48.25 -88l8.75 54.5c30 -1 32.5 13.25 34.5 23.5l1.75 10h-11c-14 0 -24 8 -21 25l15.5 99c3 18 13.25 27 29.25 27h96c18 0 21.75 -12 19.75 -27l-21.5 -135c-18.75 -116.75 -152 -77 -152 -77z" />
    <glyph glyph-name="hyphen" unicode="-" horiz-adv-x="353" 
d="M60.75 223l21 134h314l-21 -134h-314z" />
    <glyph glyph-name="period" unicode="." horiz-adv-x="259" 
d="M60.25 23l16.5 102c2 15 12 25 28 25h98c18 0 24 -9 21 -25l-16.5 -102c-3 -18 -14 -23 -28 -23h-98c-14 0 -23 9 -21 23z" />
    <glyph glyph-name="slash" unicode="/" horiz-adv-x="477" 
d="M2 -72l414 842h169l-414 -842h-169z" />
    <glyph glyph-name="zero" unicode="0" horiz-adv-x="624" 
d="M74.75 184.5l56.75 355.5c20.25 126.25 82.75 192 203.75 192h164c139 0 181.25 -89.75 166 -184.5l-57.5 -363c-19 -119 -78.25 -184.5 -195.25 -184.5h-164c-120.25 0 -192.75 64.5 -173.75 184.5zM244 215.25c-10.25 -64.75 27.75 -66.25 56.25 -66.25h72.5
c40.75 0 66.5 11.5 75.5 65.5l48.5 303c7.5 48.75 -10.25 65.5 -49 65.5h-83.75c-58.75 0 -69 -44.25 -72.25 -65.5z" />
    <glyph glyph-name="one" unicode="1" horiz-adv-x="374" 
d="M112.25 544.5l16.25 105.5c25 0 109.25 40.75 145.25 82h162l-115.5 -732h-164l90.75 570.25c-37.5 -25.75 -110.75 -25.75 -134.75 -25.75z" />
    <glyph glyph-name="two" unicode="2" horiz-adv-x="583" 
d="M34.25 0l23 143c101.5 61.75 396.5 267 412 364.75c10.5 65.75 -21.25 84.25 -105.25 84.25h-243l19.5 122.5c89.75 16.75 165.5 27.5 301.25 27.5c150.75 0 209.75 -118.25 190.75 -249.75c-20.75 -150.25 -224 -287 -299.25 -343.25h242.5l-24 -149h-517.5z" />
    <glyph glyph-name="three" unicode="3" horiz-adv-x="579" 
d="M29.25 21l20 122h238c70.5 0 102.25 7.25 110.25 59.25l3.25 22.25c9.25 59.5 -23.75 61.25 -84.5 64.75l-182 8.5l22 133l184 8.5c69 3 98.75 11.75 106.5 61.5l3.5 23.25c9.75 57.25 -35 61 -87 61h-251l19 121c93 31 213.5 30 330.5 28
c106.5 -2 174.25 -82 156.25 -195l-8 -46.5c-12.25 -75 -47.25 -119 -102.25 -128.5c57.25 -18 68 -90.5 56 -166.5l-6.25 -36.5c-18.5 -118 -97.75 -168 -219.75 -168c-114 0 -225.5 -3 -308.5 28z" />
    <glyph glyph-name="four" unicode="4" horiz-adv-x="627" 
d="M48.25 224l318.5 508h179.25l-259.25 -429.5h141.75l24.75 152.25l42.25 77.25h134.5l-36.75 -229.5h67.5l-19.5 -126.5l-72 -26.5l-23 -147.5h-164.75l23 147.5h-334.25z" />
    <glyph glyph-name="five" unicode="5" horiz-adv-x="594" 
d="M54.25 19.75l21 130h274c63.75 0 72.25 38.5 76 63l8 49.75c5 32 1.75 64.5 -48.25 64.5h-70.75c-33.75 0 -56 -15.75 -62 -52.5h-156.75l94.75 457.5h453l-24 -149h-293.5l-27.75 -137c26.25 16.75 55 21.25 74 22.75c32.5 2.75 73.75 0.5 90.75 -0.25
c109 -7.5 151 -92.75 136.75 -197.25l-15.5 -113c-22 -137 -125.75 -162.25 -222.25 -162.5c-124.5 -0.25 -177.5 1 -307.5 24z" />
    <glyph glyph-name="six" unicode="6" horiz-adv-x="604" 
d="M104.5 399c42 265 139.75 324.75 228.75 335.25c102.5 12 232 -2.25 320.75 -20.5l-19.5 -124.75h-236.5c-89.75 0 -108.25 -83.75 -121 -159.5c51.75 16.75 102 20.75 183.5 21c143.25 0.5 162.5 -98.25 147.5 -194l-16.25 -108.5
c-20.25 -125.5 -99.25 -148.75 -209.75 -148.75h-140.25c-115.25 0 -187.25 84.75 -137.25 399.75zM257.5 309c-17.25 -108 -11 -161.5 62.75 -161.5h53.75c33 0 56 9.75 63.25 55.25l7.75 46.25c7.75 47.5 2 60 -41.5 60h-146z" />
    <glyph glyph-name="seven" unicode="7" horiz-adv-x="557" 
d="M112.25 583l24 149h475.5l30.25 -70.5l-342.25 -661.5h-176.5l305 583h-316z" />
    <glyph glyph-name="eight" unicode="8" horiz-adv-x="620" 
d="M77.25 187.75l9.75 64.25c9 56 43 92.75 97.75 100.75c-67.5 33.25 -65.25 103.5 -55.75 161.25l10.25 65c21.75 138.75 112.5 158 218 158h153.5c113.25 0 169.25 -65.25 150 -188.75l-8 -49.25c-3.5 -25.75 -27 -91 -95 -101.5
c63.75 -14.25 61.75 -110.75 54.5 -153.75l-12.75 -81.5c-25.25 -157.75 -114.75 -162.25 -206.75 -162.25h-152.5c-184.5 0 -172 130.5 -163 187.75zM244.75 195.25c-6.75 -40.75 7.25 -53.75 51.75 -53.75h75.25c42.75 0 61.25 17.75 66.5 53.75l8.75 56.25
c5.25 33.75 -5.75 55.5 -46 55.5h-80.25c-43 0 -61.75 -19.75 -67.25 -55.5zM292 494c-7.25 -46 15.5 -54 49.5 -54h78.75c51.25 0 60 22.5 65.25 54l5.75 39.5c9.25 56 -13.25 62 -47.25 62h-75.5c-43.25 0 -62.75 -10 -70.75 -62z" />
    <glyph glyph-name="nine" unicode="9" horiz-adv-x="603" 
d="M67.25 19.75l19.5 124.75h236.5c89.75 0 109 83.75 121.75 159.5c-51.75 -16.75 -102.75 -20.75 -184.25 -21c-143.25 -0.5 -161 105.75 -146 201.5l14.75 93.5c19.5 125.5 97.75 156.25 208.25 156.25h140.25c119.75 0 188 -99.75 138 -414.75
c-42 -265 -138.25 -309.75 -227.25 -320.25c-102.5 -12 -229 0.75 -321.5 20.5zM277 484.5c-7.75 -47.5 -2.75 -60 40.75 -60h146c17.25 108 10.25 161.5 -63.5 161.5h-53c-33 0 -56 -9.75 -63.25 -55.25z" />
    <glyph glyph-name="colon" unicode=":" horiz-adv-x="260" 
d="M60.25 23l16.5 102c2 15 12 25 28 25h98c18 0 24 -9 21 -25l-16.5 -102c-3 -18 -14 -23 -28 -23h-98c-14 0 -23 9 -21 23zM120.75 404.25l16.5 102c2 15 12 25 28 25h98c18 0 23.25 -9 20.25 -25l-15.75 -102c-3 -18 -14.25 -23 -28.25 -23h-98c-14 0 -22.75 9 -20.75 23
z" />
    <glyph glyph-name="semicolon" unicode=";" horiz-adv-x="260" 
d="M48.25 -88l8.75 54.5c30 -1 32.5 13.25 34.5 23.5l1.75 10h-11c-14 0 -23.75 9.25 -21 25l15.5 99c2.75 17 13.5 27 29.25 27h96c17.25 0 21.75 -12 19.75 -27l-21.5 -135c-18.75 -116.75 -152 -77 -152 -77zM122 404.5l15.75 102c2 15 12 25 28 25h98c18 0 24 -9 21 -25
l-15.75 -102c-3 -18 -14.75 -23 -28.75 -23h-98c-14 0 -22.25 9 -20.25 23z" />
    <glyph glyph-name="less" unicode="&#x3c;" horiz-adv-x="441" 
d="M77.25 278l23.5 147.5l397 138l-23.25 -147.5l-221.5 -67.5l199.25 -69.75l-23.5 -146.25z" />
    <glyph glyph-name="equal" unicode="=" horiz-adv-x="467" 
d="M47 174.5l21.25 134h427l-21.25 -134h-427zM81.25 391l21.25 134h427l-21.25 -134h-427z" />
    <glyph glyph-name="greater" unicode="&#x3e;" horiz-adv-x="441" 
d="M54 132.5l23.5 148l223.75 79.5l-202.5 58.5l23.5 145l352.75 -138l-22.5 -147.5z" />
    <glyph glyph-name="question" unicode="?" horiz-adv-x="543" 
d="M106.25 590l19.5 121.5c93.5 20.5 172.5 32.5 286.5 27.5c147.5 0 206.25 -109.5 190.25 -207.5l-10.75 -78.5c-18.75 -140 -94.75 -181.75 -251.5 -172c0 -0.75 -13.25 -84.5 -13 -86h-127.5l32.5 207c14.5 -0.25 90 -0.5 104.5 0c49 2 84 20 92.75 76.5l5.5 36.5
c8.5 54 -19.5 75 -87.75 75h-241zM161.5 23l16.5 102c2 15 12 25 28 25h98c18 0 24 -9 21 -25l-16.5 -102c-3 -18 -14 -23 -28 -23h-98c-14 0 -23 9 -21 23z" />
    <glyph glyph-name="at" unicode="@" horiz-adv-x="907" 
d="M46 46.5l75 474.5c26.25 163.25 122.5 208 273.25 208h360c155.25 0 190 -111.5 169.25 -253l-47 -316.5c-13.75 -94.25 -57.25 -156.5 -201.25 -156.5h-106.5l-23.75 52.5c-19 -25.75 -52.25 -60.75 -125.25 -59.5c-121.5 2.5 -180.75 102.25 -152 291.75
c34 221.75 141 257.75 237.5 257.75c106.25 0 175.25 -18.25 226.25 -67.25l-50 -348.75c48 0 62.25 9 74.5 90l40.25 271.5c13.75 95.25 -14.5 110.5 -77.75 110.5h-352c-95 0 -111.75 -60 -119.75 -110.5l-72.75 -459.5c-9 -57 1.25 -99 87.25 -99h386l-16.25 -99.5
c-50 -10 -166 -27 -292 -27h-90.5c-185.75 0 -221 120 -202.5 240.5zM393.5 269c-10.5 -73.75 -15 -148.5 57 -146.5c55 1.25 91.75 20 111 67.5l34.5 222.25c-36.75 7 -68 7.75 -96.5 7.75c-55.75 0 -89 -32.75 -106 -151z" />
    <glyph glyph-name="A" unicode="A" horiz-adv-x="698" 
d="M30 0l355 732h190.25l114.75 -732h-168l-25.5 147h-215.25l-69.75 -147h-181.5zM343.5 289.25h139.75l-33 234.5z" />
    <glyph glyph-name="B" unicode="B" horiz-adv-x="600" 
d="M53.75 0l116 732h301.75c153.5 0 198.75 -99.25 181.25 -213.25c-10.5 -71.5 -59 -130.25 -128 -138.75c62 -10.25 105.5 -82.75 92.25 -182.75c-23.75 -171 -103.75 -197.25 -257.75 -197.25h-305.5zM240.5 141.5h133.75c40.5 0 70 22.75 80 85.5
c7.5 46.25 -2.5 89.25 -52.75 89.25h-133.75zM289.5 450.25h126.25c41.25 0 67.25 27 73.5 68.5c9 57.25 -18.5 71.75 -51 71.75h-126.5z" />
    <glyph glyph-name="C" unicode="C" horiz-adv-x="569" 
d="M94.75 391.25c36.75 233.25 110.25 348.75 309.25 348.75c121 0 175.75 -10.25 253.5 -37.5l-20.25 -128c-6.25 0.75 -109.75 17 -210.75 16.5c-76.75 -0.25 -131.75 4 -167.75 -225c-26.5 -163.5 -9.75 -220.75 95.25 -223c89.75 -0.75 181.5 6.25 217 8.75l-20 -128
c-70.75 -25.25 -136.75 -32 -264 -29.75c-185.25 2.25 -227.75 170.25 -192.25 397.25z" />
    <glyph glyph-name="D" unicode="D" horiz-adv-x="651" 
d="M53.75 0l116 731.75c0 0.25 290.25 0.25 305.25 0.25c205.5 0 228.5 -193 198.25 -391.5c-40 -263.25 -129 -340.5 -301.5 -340.5h-318zM240.25 142.25h127.75c80.5 0 119.5 78.75 142 221.75c29.75 186.25 -3.5 226.5 -78.5 226.5h-120.25z" />
    <glyph glyph-name="E" unicode="E" horiz-adv-x="558" 
d="M72.5 160.5l66.25 419c21.25 132.5 110.75 153.5 196.5 152.5c0 0 220.25 -4 306.5 -16l-21.75 -136.75h-264.5c-51 0 -56.25 -29 -60.25 -56l-12.5 -80l266.5 -10.75l-22 -135.5l-269.25 -9.25l-14 -86c-8.5 -53 25.25 -52 54.25 -52h254.5l-22 -135.75
c-79.5 -10.5 -302.5 -17 -302.5 -17c-72.25 -2.75 -177.5 25.25 -155.75 163.5z" />
    <glyph glyph-name="F" unicode="F" horiz-adv-x="559" 
d="M50 0l89 564.5c21.25 132.5 111.5 168.5 198 167.5c0 0 220.25 -4 306.5 -16l-21 -136.75h-264.5c-51 0 -57 -29 -61 -56l-13 -83l267 -10.75l-21 -135.5l-271 -9.25l-45 -284.75h-164z" />
    <glyph glyph-name="G" unicode="G" horiz-adv-x="615" 
d="M99 399.25c44.25 233.25 103 340.5 302 340.5c131.5 0.25 167.5 -5.5 281.25 -36.5l-20 -125c-19.5 2.25 -131.25 19.75 -238 20c-84.5 0.25 -129.75 -32.5 -160.5 -231c-26 -163.75 -18.25 -221 77 -220.75c66 0 107.75 48.25 107.75 48.25l17.5 104.25h-79l16.25 102.5
c47.25 20.75 109.25 25 179 25c21 0 43.75 -1 67.75 -3l-67.75 -423.5h-117l-37.75 51c-33.5 -35 -68.25 -52.75 -147.25 -56.5c-203.25 -9.5 -219 206.25 -181.25 404.75z" />
    <glyph glyph-name="H" unicode="H" horiz-adv-x="636" 
d="M55 0l116 732h164l-48.25 -303.5h215l48.25 303.5h164l-116 -732h-164l44.25 279.5h-215l-44.25 -279.5h-164z" />
    <glyph glyph-name="I" unicode="I" horiz-adv-x="267" 
d="M56.25 0l116 732h164l-116 -732h-164z" />
    <glyph glyph-name="J" unicode="J" horiz-adv-x="355" 
d="M26.75 24l21.25 129c96.5 -4.5 128.75 4 143 95.25l76.5 483.75h164l-90 -567c-7 -47 -21.5 -115 -76.5 -147c-58 -34 -191.25 -28 -238.25 6z" />
    <glyph glyph-name="K" unicode="K" horiz-adv-x="638" 
d="M53.75 0l116 732h156.5l-47.5 -298h44.25l215 298h197.75l-270.25 -379.75l154.25 -352.25h-185.75l-117.25 292.5h-59.5l-46 -292.5h-157.5z" />
    <glyph glyph-name="L" unicode="L" horiz-adv-x="527" 
d="M76.5 148.5l92.75 583.5h163.75l-84.25 -531c-8 -53 25.25 -52 54.25 -52h231l-23.75 -149h-299c-85 0 -152 40.25 -134.75 148.5z" />
    <glyph glyph-name="M" unicode="M" horiz-adv-x="837" 
d="M41 0l186.5 732h226.5l23.25 -460.5l166.5 460.5h231.5l-42.75 -732h-161.75l28 449l-165.75 -449h-189.25l-25.5 448.75l-111.75 -448.75h-165.5z" />
    <glyph glyph-name="N" unicode="N" horiz-adv-x="672" 
d="M53.75 0l116 732h165l182.25 -432.75l67.75 432.75h164l-116 -732h-163l-184 425.25l-67 -425.25h-165z" />
    <glyph glyph-name="O" unicode="O" horiz-adv-x="666" 
d="M99.25 379.75c54 343 185 357.25 354.75 357.25c173.25 0 294.25 -54.75 241.25 -394.75c-50.5 -323 -175.25 -346.25 -353.5 -346.25c-175.5 0 -295.5 50.75 -242.5 383.75zM263.25 361c-28.25 -179 -11.75 -216 99.25 -216c100 0 140.25 37.5 168.75 216
c32 202.25 1.25 227 -98 227s-137.25 -18 -170 -227z" />
    <glyph glyph-name="P" unicode="P" horiz-adv-x="598" 
d="M51.75 0l116 732h306c96.25 0 207.5 -53.25 176.5 -253.25c-35.5 -232.5 -164.5 -223.5 -251.25 -218.25c-40 2.25 -134 16.25 -139 19.25l-44.25 -279.75h-164zM279.25 402h126.75c41.5 0 68 25.5 79.25 97c10.75 70.25 -13 90.5 -49 90.5h-127z" />
    <glyph glyph-name="Q" unicode="Q" horiz-adv-x="667" 
d="M100.25 383.5c54 343 185 353.5 354.75 353.5c173.25 0 294.25 -58.5 241.25 -398.5c-50.5 -323 -175.25 -341 -353.5 -342.5c-175.5 0 -295.5 54.5 -242.5 387.5zM264.25 361c-28.25 -179 -11.75 -216 99.25 -216c100 0 140.25 37.5 168.75 216
c32 202.25 1.25 227 -98 227s-137.25 -18 -170 -227zM287.25 -33h89.5c10.75 -56.75 94.25 -45.5 156 -31.25l-19.75 -125c-114.25 -20.25 -243 18 -225.75 156.25z" />
    <glyph glyph-name="R" unicode="R" horiz-adv-x="601" 
d="M51.75 0l116 732h308.25c118.75 0 199.75 -71.75 173.75 -250c-25.75 -178.5 -109 -193.25 -147 -198.75l103 -283.25h-186l-81 275.25l-78.5 6.5l-44.5 -281.75h-164zM281 407.25h123.25c52 0 72.25 27.5 80.5 93.5c8 66 -4 88.75 -50 88.75h-124.5z" />
    <glyph glyph-name="S" unicode="S" horiz-adv-x="582" 
d="M67.75 23.5l20.25 128.25c40 -4.5 154 -10.75 247 -10.75c42.5 0 78.25 9.5 85.25 53.25l4.25 29c6 36 0.5 57.5 -51.5 57.5h-87.25c-182.5 0 -177.877 151.664 -170.25 205.75l10.75 79.5c21.25 147.75 118.75 170.75 229.75 172c124.25 2.5 216.5 -8.5 282.5 -30.75
l-20.25 -128c-59.75 5.25 -184.25 9.75 -233.75 9.75c-59.5 1 -86.75 -3.5 -95.75 -59l-4 -24.75c-8 -50 8 -60.5 61.75 -60.5h90.25c144.75 0 163.25 -121.5 152.5 -202l-4.25 -64.25c-11.25 -179 -148.5 -186.5 -243.25 -186.5c-127.525 0 -194 4.25 -274 31.5z" />
    <glyph glyph-name="T" unicode="T" horiz-adv-x="592" 
d="M115.75 583l24 149h553l-24 -149h-197.5l-92 -583h-164l92 583h-191.5z" />
    <glyph glyph-name="U" unicode="U" horiz-adv-x="653" 
d="M103.75 338l63.5 394h164.25l-65.75 -416.5c-18.75 -118 -11 -171.5 90.25 -171.5c99.25 0 125 59.5 142.5 171.5l65.75 416.5h165l-62 -439c-44 -278 -182.25 -298 -333.75 -298c-143 0 -278.25 38 -229.75 343z" />
    <glyph glyph-name="V" unicode="V" horiz-adv-x="691" 
d="M135 732h172.5l58.25 -523.75l232.5 523.75h181.75l-347.5 -732h-194z" />
    <glyph glyph-name="W" unicode="W" horiz-adv-x="1013" 
d="M135 732h171.75l60 -515.75l209 515.75h174l-80.5 -184.5l47.75 -332.75l212.75 517.25h173.25l-317.5 -732h-188l-41.5 274.25l-118.25 -274.25h-199.25z" />
    <glyph glyph-name="X" unicode="X" horiz-adv-x="659" 
d="M30.5 0l268.5 378.25l-155.5 353.75h180.75l88.25 -228l160 228h183.5l-275.25 -386l152.5 -346h-180.75l-84.5 219.5l-154 -219.5h-183.5z" />
    <glyph glyph-name="Y" unicode="Y" horiz-adv-x="666" 
d="M135 732h177.75l68 -338.25l188 338.25h186.25l-318.25 -517l-34.25 -215h-164l34.25 215z" />
    <glyph glyph-name="Z" unicode="Z" horiz-adv-x="555" 
d="M23.75 0l24 149l377.75 434h-309.75l24 149h508l-24 -149l-363.5 -434h295.5l-24 -149h-508z" />
    <glyph glyph-name="bracketleft" unicode="[" horiz-adv-x="339" 
d="M57 -23.75l106 650.25c20 120.75 73.75 170.5 216.5 170.5h80l-21 -134h-42.5c-38 0 -64 -17 -74.25 -78.5l-100.75 -622.5c-10.75 -66 6 -83 47 -83h46.25l-21 -134h-92c-147.75 0 -160 137.5 -144.25 231.25z" />
    <glyph glyph-name="backslash" unicode="\" horiz-adv-x="470" 
d="M134.25 770h164.75l148 -842h-164.75z" />
    <glyph glyph-name="bracketright" unicode="]" horiz-adv-x="334" 
d="M-19.75 -255l21 134h42.5c38 0 64.75 17 75 78.5l98.5 622.5c10.75 66 -8.25 83 -49.25 83h-42.5l21.75 134h83c135 0 167.5 -105.25 151.75 -218.5l-96.25 -662.25c-13.25 -94.5 -53.5 -171.25 -210.5 -171.25h-95z" />
    <glyph glyph-name="asciicircum" unicode="^" horiz-adv-x="381" 
d="M117.5 531l126 137.75h116l72.5 -137.75h-100.5l-36.25 58.25l-57.75 -58.25h-120z" />
    <glyph glyph-name="underscore" unicode="_" horiz-adv-x="673" 
d="M26.5 -1l21 134h634l-21 -134h-634z" />
    <glyph glyph-name="grave" unicode="`" horiz-adv-x="245" 
d="M119 671.5h130.5l67 -140.5h-99z" />
    <glyph glyph-name="a" unicode="a" horiz-adv-x="544" 
d="M73.75 303.5c44.25 220.75 164.75 235 263.25 237.5c79 2.25 194.75 -13 245.75 -62l-70 -477.5h-128l-25.25 52.5c-25.25 -37.75 -92.5 -59.5 -151.5 -59.5c-99.75 0 -176.5 98 -134.25 309zM234 278.75c-13 -87 -13.25 -149.5 43.75 -149.5c50.75 0 77.25 19 96.5 51
l33.25 226.75c-21 9.25 -57.5 12.75 -82.75 7c-38 -8.25 -74 -22.25 -90.75 -135.25z" />
    <glyph glyph-name="b" unicode="b" horiz-adv-x="557" 
d="M40.5 0l124 785h163.5l-43.5 -278.5c46.25 20.75 106.25 32.5 151.25 32.5c147.5 0 158.75 -134.5 131.25 -306c-28.5 -175 -85.75 -241.5 -215.75 -239c-61.25 1 -106.75 28 -138 57.5l-35 -51.5h-137.75zM229.75 158.25c18 -18.25 50.75 -28 93.75 -28
c40.5 0 62.75 27 80.25 140.25c18 115.5 7.75 145.75 -35.5 145.75c-38 0 -73 -5 -100 -17.75z" />
    <glyph glyph-name="c" unicode="c" horiz-adv-x="490" 
d="M74.75 288.5c35.75 219.25 117.25 251.75 217.25 251.75c52 0 170 -7.5 245.5 -34l-15.5 -99s-78.75 6.5 -167.75 6.5c-65.75 0 -91.75 -4.25 -116.5 -150.25c-21 -128.75 -0.25 -142.5 70 -142.5c92 0 177.75 8.75 177.75 8.75l-15.75 -99.5
c-76 -30.5 -141 -37.25 -260.75 -35.5c-99.75 1 -167.75 87.5 -134.25 293.75z" />
    <glyph glyph-name="d" unicode="d" horiz-adv-x="549" 
d="M74 293c26 148.75 71 246 216.75 246c45 0 103 -11.75 142.75 -32.5l44.5 278.5h163.5l-124.25 -785h-137.75l-19 51.5c-40.25 -29.5 -91.75 -57.5 -153 -57.5c-124.25 0 -162.5 134.25 -133.5 299zM239.5 270.5c-18 -112.75 -1.75 -140.25 36.75 -140.25
c43 0 77.5 9.75 101.5 28l38.25 240.25c-22.5 12.75 -57.25 17.75 -95.25 17.75c-36 0 -61 -20.25 -81.25 -145.75z" />
    <glyph glyph-name="e" unicode="e" horiz-adv-x="528" 
d="M75.5 308c31 163 76.5 231.5 271.5 233c110.25 0.75 220.25 -28.75 214.25 -153c-10.75 -250.5 -293.5 -202.25 -330.5 -187.25c-10.5 -65.5 9.25 -80.25 80.25 -80.5c53.5 -1.5 149.25 7.5 205.5 17.75l-20 -116c-78.75 -24.5 -165.5 -38 -286.75 -29
c-127.25 8.25 -170.25 121 -134.25 315zM244 307.25c0 0 134 -28 148.75 54.5c7.5 41.75 -14 53.5 -58 52.75c-71.25 -1.5 -80.75 -50.75 -90.75 -107.25z" />
    <glyph glyph-name="f" unicode="f" horiz-adv-x="405" 
d="M77.75 412l16.5 101.5l81.5 17.5l13.5 83.25c20.5 130 81 171.5 200 171.5c46.75 0 92.5 -7.75 123.5 -24l-15.25 -95.5c-0.75 0 -82.75 0.75 -82.75 0.75c-54.75 0.75 -57.25 -22.75 -69 -97.75l-6 -38.25h114.75l-18.75 -119h-115l-66.25 -412h-164l66 412h-78.75z" />
    <glyph glyph-name="g" unicode="g" horiz-adv-x="558" 
d="M13 -248l17 109h213c51.5 0 90 31 100 95l13.5 84.25c-36.5 -27.5 -77.5 -38 -122.5 -38c-154.75 0 -186 117.75 -157.25 301.25c29.25 183.75 116.25 238 238 238c106 0 232.25 -15.25 282 -32.75l-91.25 -575.25c-22.25 -140.5 -99.75 -222.5 -261 -205.5z
M241.5 285.25c-16 -101.75 -22.75 -159.75 44.75 -159.75c33.5 0 54.75 4 86.75 20.5l44.25 276.5h-80.75c-70.25 0 -85.75 -81 -95 -137.25z" />
    <glyph glyph-name="h" unicode="h" horiz-adv-x="552" 
d="M40.5 0l124 782.5h163.25l-48.5 -306c42.25 30.5 88.75 63.5 169.75 63.5c130 0 142.75 -86.5 125.75 -192.5l-55.25 -347.5h-164l55.25 350.5c7.75 48 -7.25 63 -36.75 63c-47.75 0 -77.75 -12.5 -110.5 -42l-59 -371.5h-164z" />
    <glyph glyph-name="i" unicode="i" horiz-adv-x="237" 
d="M36.75 0l84 531h164l-84 -531h-164zM129.5 607l15.5 101.25c2 15 12 25 28 25h125c15 0 20.25 -11 18.25 -25l-15.5 -101.25c-2 -15 -12.25 -23 -26.25 -23h-125c-14 0 -22 9 -20 23z" />
    <glyph glyph-name="j" unicode="j" horiz-adv-x="253" 
d="M2.5 -270l127 801h164l-85 -535c-13 -86 -31 -184.5 -83 -266h-123zM136.75 607l16.5 101.25c2 15 12 25 28 25h125c15 0 21 -11 19 -25l-16.5 -101.25c-2 -15 -12.25 -23 -26.25 -23h-125c-14 0 -22.75 9 -20.75 23z" />
    <glyph glyph-name="k" unicode="k" horiz-adv-x="545" 
d="M40.5 0l124 782h164l-69.5 -436c73.75 29 148.5 95 176.5 185h173c-38.5 -140 -121.5 -210 -180.5 -243l148.5 -288h-180l-116.25 235l-38 -1l-37.75 -234h-164z" />
    <glyph glyph-name="l" unicode="l" horiz-adv-x="314" 
d="M68 189l94 594h164l-88.75 -564c-12.25 -76.5 2 -88.75 26.75 -100c0 0 47 -20.25 52.5 -20.25l-15.75 -98.75h-98c-95 0 -156.25 51 -134.75 189z" />
    <glyph glyph-name="m" unicode="m" horiz-adv-x="867" 
d="M40.5 0l84 531h134.5l21 -55c48.25 33.5 85.5 63.25 167 63.25c67.5 0 107.25 -26.5 122.25 -67.25c50.75 31.75 112.5 67.25 194.5 67.25c124.75 0 143.25 -83.25 125.75 -192.75l-55 -346.5h-164l55.75 349.5c7.5 46.25 -9 63.25 -37.5 63.25
c-45.5 0 -80.25 -9.25 -111.25 -36.5c-0.75 -6 -3.75 -23.5 -4.5 -30.25l-55 -346h-164l55 349.5c7.5 46.25 -8.5 63.25 -37 63.25c-47.75 0 -76 -12.25 -108.75 -41.75l-58.75 -371h-164z" />
    <glyph glyph-name="n" unicode="n" horiz-adv-x="552" 
d="M40.5 0l84 531h134.5l21 -54.5c45.25 32 88 63.5 169 63.5c130 0 142.75 -86.5 125.75 -192.5l-55.25 -347.5h-164l55.25 350.5c7.75 48 -7.5 63 -36.75 63c-47.75 0 -77.75 -12.5 -110.5 -42l-59 -371.5h-164z" />
    <glyph glyph-name="o" unicode="o" horiz-adv-x="555" 
d="M73.25 276.75c34 217 107 261.5 288.5 261.5s234.5 -94 202 -299c-31.5 -197 -97.5 -244.25 -284.5 -244.25c-183.25 0 -236 91.75 -206 281.75zM237.25 258c-20 -121.75 -4.5 -136.5 59.5 -136.5c67.5 0 82 9.5 103 136.5c20.75 129 14 153.75 -57.25 153.75
c-72.25 0 -84 -22.25 -105.25 -153.75z" />
    <glyph glyph-name="p" unicode="p" horiz-adv-x="556" 
d="M-1.75 -270l124.75 776c64 19 187 30.25 286 30.25c135 0 185.25 -115.25 157.5 -294.5c-27 -178 -90.75 -251.25 -239.25 -251.25c-45 0 -90 10.25 -117.75 38.5l-47.5 -299h-163.75zM226.5 134.25c18.75 -15 49 -23 82.5 -19.75c51.75 2.25 74 31.25 94.25 157.5
c13.5 82.5 10.5 145.25 -48.5 145.25h-82z" />
    <glyph glyph-name="q" unicode="q" horiz-adv-x="553" 
d="M75.25 290.5c30.75 192 114.75 249.5 240.5 249.5c106 0 229 -15.25 278.75 -32.75l-122.5 -777.25h-164l47 299c-37.25 -28.25 -78.25 -39 -123.25 -39c-153 0 -185.25 117 -156.5 300.5zM240 273.25c-17.25 -112 -21 -159.75 45 -159.75c33.5 0 54.75 4 86.75 20.5
l44.75 287h-82c-68.5 0 -84.75 -87 -94.5 -147.75z" />
    <glyph glyph-name="r" unicode="r" horiz-adv-x="414" 
d="M40.5 0l84 531h142l11 -67c34 35.75 87.5 72.25 147.75 72.25c20.75 0 38.75 -0.5 52.75 -5.75l-24.75 -157.75c-15 0.75 -47 1.5 -77.5 1.5c-50 0 -93.25 -5.25 -121.5 -59.5l-49.75 -314.75h-164z" />
    <glyph glyph-name="s" unicode="s" horiz-adv-x="509" 
d="M52.75 26.25l15.75 99.25h241.75c12.75 0 28.5 3.75 32.5 26.25l3 17.25c3 17.75 -1.5 27.25 -24.5 27.25h-108.25c-94 0 -148.5 59.5 -132.5 161.75l8 47.25c13.25 83 58.25 132 161.25 132c120.25 0 253.75 -0.5 286 -31l-15.75 -99.75h-232.5
c-25.75 0 -34.25 -9.75 -37.25 -28.25l-2.75 -17.25c-5 -28.75 12.75 -26.25 28.75 -26.25h112.5c106.5 0 137.5 -77.25 124.75 -155.25l-9 -60c-17 -109 -91 -125.75 -153 -125.75c-119.5 0 -267 0.75 -298.75 32.5z" />
    <glyph glyph-name="t" unicode="t" horiz-adv-x="375" 
d="M71 413l13.5 86l86.25 33l49.25 148h138.5l-23.75 -148h105.5l-18.75 -119h-105.5l-30.75 -193.25c-12 -78 1.25 -90.25 26 -101.5c0 0 47.75 -20.25 53.25 -20.25l-15.5 -98.75h-107c-84.25 0 -146.75 52.25 -125.25 190.5l35.25 223.25h-81z" />
    <glyph glyph-name="u" unicode="u" horiz-adv-x="551" 
d="M62.5 183.5l55 347.5h164l-55.75 -350.5c-8.25 -50.5 8.25 -63 37.5 -63c47.75 0 77.75 12.5 110.5 42l58.75 371.5h164l-84.75 -531h-134.5l-20.25 54.5c-48.25 -38 -87.75 -63.5 -168.75 -63.5c-130 0 -143 84.75 -125.75 192.5z" />
    <glyph glyph-name="v" unicode="v" horiz-adv-x="542" 
d="M79.75 531h173.75l41 -351.5l105 229.5c13 27 29 64.75 34.25 123.5h154.25c12.5 -66 -14 -135.25 -36.5 -179l-180.25 -353.5h-198.75z" />
    <glyph glyph-name="w" unicode="w" horiz-adv-x="839" 
d="M79.75 531h173l40.25 -350.25l105.25 227.5c13 27 29 64.75 34.25 123.5h153c8.75 -45.75 -0.5 -92.5 -16.25 -133.25l-11.75 -28.25l34.5 -188l107 226.75c13 27 29 64.75 34.25 123.5h153.25c12.5 -66 -13.5 -135.5 -36.5 -179l-184.75 -353.5h-184.75l-31.75 176.5
l-80.25 -176.5h-196z" />
    <glyph glyph-name="x" unicode="x" horiz-adv-x="590" 
d="M16.5 0l222.25 277l-138.25 254h195.25l59.25 -142.5l105.5 142.5h197.75l-224.5 -284l133.75 -247h-189.25l-60.25 136.25l-102.5 -136.25h-199z" />
    <glyph glyph-name="y" unicode="y" horiz-adv-x="568" 
d="M80.5 531h170l22 -355.75c2.75 -35.5 32.75 -38.25 44.75 -39l112.75 272.5c11 27.75 20.5 64.75 25.75 123.5h154.75c12.5 -66 -9.5 -134.75 -29.25 -180l-152.75 -352c-113.75 -258 -269 -284 -338.75 -295.5v115.25c92.25 46.25 137.5 106.75 174.5 180
c-94 0 -141.75 52 -150 144.5z" />
    <glyph glyph-name="z" unicode="z" horiz-adv-x="480" 
d="M35.25 1l20.25 132.5l261 263.5h-232.75l20.5 134h441l-20.5 -134l-247.5 -262h204.75c1 -1 -20.75 -134 -20.75 -134h-426z" />
    <glyph glyph-name="braceleft" unicode="{" horiz-adv-x="320" 
d="M55.75 231.25l19.25 119.5c33.25 2.5 69 9.25 75.5 50.5l37 232.25c19 119.25 97.5 163.5 253 163.5l-21 -134c-48.5 0.25 -67.5 -22 -81.5 -112l-25 -161c-11 -67.5 -54.5 -94.5 -116.25 -100.5c59 -11.5 92.25 -45.25 83.75 -98.5l-34 -211.25
c-12 -76.5 -4.5 -109.25 48 -108.25l-20.25 -126.5c-167.75 0 -215.5 86.25 -196.25 204.75l36.25 226c5.5 36 -18.5 58.5 -58.5 55.5z" />
    <glyph glyph-name="bar" unicode="|" horiz-adv-x="248" 
d="M45.5 -72l133 842h134l-133 -842h-134z" />
    <glyph glyph-name="braceright" unicode="}" horiz-adv-x="320" 
d="M-19.75 -255l20.25 126.5c51.5 -0.25 68.75 31 79.75 101.5l33.5 208.25c8.75 54.75 52 86.25 114.5 98.25c-59.75 5.5 -94.25 34.75 -83.5 100.75l25.75 164c15 96 4.5 119.75 -45 118.75l21.75 134c158.75 0 205.75 -99 187.25 -214.5l-24.25 -190
c-4.75 -39 24.5 -54 59.25 -55.5l-19.25 -119.5c-38.5 2 -68.25 -12.25 -74.75 -50.5l-42.5 -254c-22 -128.25 -88.25 -168 -252.75 -168z" />
    <glyph glyph-name="asciitilde" unicode="~" horiz-adv-x="411" 
d="M126.5 591.5c34.5 35.25 78 72.5 133.25 72.5c44 0 60 -35 100 -35c39.75 -1.5 73.25 18.75 100 40l14.25 -66c-28 -31 -73 -72 -124.5 -72c-43.5 0 -69.5 35 -108.5 35s-63 -13.5 -98.75 -35z" />
    <glyph glyph-name="exclamdown" unicode="&#xa1;" horiz-adv-x="278" 
d="M14.25 -269.75l102.5 534h129l-67.75 -534h-163.75zM119.25 338.5l15.5 99.75c2 14 14 22 28 23h97.75c12 -1 22 -12 20 -26l-15.5 -96.75c-2.25 -12.75 -9.25 -25.5 -25.5 -26.5h-101c-13 0.25 -21.75 8.75 -19.25 26.5z" />
    <glyph glyph-name="cent" unicode="&#xa2;" horiz-adv-x="484" 
d="M68 288.5c36 220.75 117.25 249.25 221 248l16 97.5h96l-16.25 -100.25c46 -4.5 98.75 -13.5 146.25 -31.25l-15.75 -99s-78.75 6.5 -167.75 6.5c-65.75 0 -91.75 -0.5 -116.5 -146.5c-21 -128.75 -0.25 -142.5 70 -142.5c92 0 177.75 8.75 177.75 8.75l-15.75 -99.5
c-53.5 -28.25 -110.75 -35.25 -167 -36l-13.75 -89.5h-96l14.5 90c-99.75 1.75 -165.75 88.75 -132.75 293.75z" />
    <glyph glyph-name="sterling" unicode="&#xa3;" horiz-adv-x="578" 
d="M33.5 0l20.25 126.5l68.25 22.5l25 158.5h-64.5l13 82.5l68.25 24.5l13.5 83c35.75 225.5 138.25 234.5 302.25 234.5c57 0 178 -16 178 -16l-20.25 -132h-184.75c-76.25 0 -100 -11 -112.75 -92.5l-12 -77l200.5 -17l-13.75 -90h-203.5l-25 -158.5h281.5l-24 -149h-510z
" />
    <glyph glyph-name="currency" unicode="&#xa4;" horiz-adv-x="443" 
d="M65.5 180.75l56.5 49.25c-9.75 24.25 -15 50.25 -10.5 80.5c4.25 28 15 54.5 31 76.75l-42.25 47l59.5 53.25l40.25 -45.75c28.25 17.5 60.5 27.75 93 27.75c32 0 61.5 -9.5 84 -26l53.75 47.75l48.25 -51.5l-58 -50.75c9.75 -23.25 13.5 -51.75 9.25 -80.5
c-5.75 -35 -20.75 -67.25 -43.5 -93.5l40.25 -45.5l-58.5 -55l-46 52c-23 -11.75 -49.75 -17.25 -75.75 -17.25c-30.75 0 -59.25 9.75 -81.25 25.5l-53.5 -48zM198 310c-6.75 -40.75 20.75 -74 61 -74.25c44.75 -0.25 77.75 32.75 85.25 73.25
c7.5 39.75 -19.5 74.75 -62 74.5c-43.25 -0.25 -77.5 -33.25 -84.25 -73.5z" />
    <glyph glyph-name="yen" unicode="&#xa5;" horiz-adv-x="646" 
d="M124 134.25l14.25 89h127.5l4.75 31.25h-127.25l14.5 89h79.5l-108.75 388.5h177.75l65.75 -326.25l181 326.25h195.5l-251.25 -388.5h87.5l-14.5 -89h-135.75l-4.75 -31.25h135.5l-14.25 -89h-135l-20 -134.25h-164l20 134.25h-128z" />
    <glyph glyph-name="brokenbar" unicode="&#xa6;" horiz-adv-x="249" 
d="M45.5 -72l52 328h134l-52 -328h-134zM124.5 429l54 341h134l-54 -341h-134z" />
    <glyph glyph-name="section" unicode="&#xa7;" horiz-adv-x="536" 
d="M75 11l18 115h227c25 0 37 4.75 41 26.75l4.25 27.25c3.25 21 -5.5 27.5 -31.25 27.5h-103.25c-93.75 0 -156.25 44.5 -141.5 138l4 24.5c5.75 36.5 13 86.5 86 108c-58.5 32 -53.75 95 -48.5 127l5 40c12.75 97.25 73 139 169.25 139c85.75 0 222 -5.25 278.5 -19
l-17.75 -115h-229c-24.25 0 -35.25 -10 -38.5 -30.5l-3.5 -22c-2.25 -16.25 4 -30.5 30 -30.5h102.5c106 0 156.75 -46.75 143.5 -133l-4 -24.5c-5.5 -36.25 -20.75 -89 -82.75 -107c53.75 -11 51.75 -86.5 46.75 -119.5l-7.25 -50.5
c-19.75 -123.25 -89.25 -140.5 -163 -140.5c-95.5 0 -234.25 4.5 -285.5 19zM259 371c-5.5 -33 9.5 -37 35.25 -37h52.25c38 0 44.75 10 48.75 38c1 1 4.75 29 4.75 29c3.75 23.75 4 39 -37 39h-52.25c-37.75 0 -42.75 -13.75 -47 -41z" />
    <glyph glyph-name="dieresis" unicode="&#xa8;" horiz-adv-x="444" 
d="M125.5 582c5.5 34 37.75 61.25 71.75 61.25s57.25 -27.25 51.75 -61.25s-37.5 -62.25 -71.5 -62.25s-57.5 28.25 -52 62.25zM380.5 582c5.5 34 37.75 61.25 71.75 61.25s57.25 -27.25 51.75 -61.25s-37.5 -62.25 -71.5 -62.25s-57.5 28.25 -52 62.25z" />
    <glyph glyph-name="copyright" unicode="&#xa9;" horiz-adv-x="794" 
d="M93.5 383c30 190.75 101.25 349 321 349h215c200.25 0 218 -194.25 187.5 -386.5c-38.5 -242.5 -146.25 -345.5 -297.25 -345.5h-215c-192.75 0 -241.5 190.5 -211.25 383zM195 368c-24.5 -155 6 -274 120 -274h209c87 0 159.5 70 191.5 274c19 120 33.75 270 -97.25 270
h-217.5c-88.75 0 -170.75 -48.25 -205.75 -270zM277 377.75c26.75 165 90.25 205.25 178 205.25c41 0 126.75 -5 181.5 -24l-12.5 -82c-62 9 -120.5 12 -153.5 12c-54 0 -77.5 -29.5 -93 -127c-13 -84 5.5 -121 59 -121c62.25 0 118.75 8.75 158.5 16l-12.5 -82
c-58.75 -25.5 -122.75 -28 -189.75 -28c-79 0 -143 59.5 -115.75 230.75z" />
    <glyph glyph-name="ordfeminine" unicode="&#xaa;" horiz-adv-x="362" 
d="M60.75 260.5l11.25 73h327.25l-11.25 -73h-327.25zM92.5 577.25c29.5 147.75 113 154.75 177.5 156.25c51.75 1.25 139.25 -9.25 173 -42l-46.5 -318.75h-85l-17.5 45.5c-17.75 -33.25 -70.5 -50.25 -109.25 -50.25c-62.5 0 -121.75 71 -92.25 209.25zM202.75 561.75
c-8.75 -55.5 -6.75 -91 29.25 -91c32.5 0 59.25 13.75 72 36.25l19.25 131.75c-15.75 7 -47.25 8.75 -63.5 4.75c-22.5 -5.25 -47.25 -16.25 -57 -81.75z" />
    <glyph glyph-name="guillemotleft" unicode="&#xab;" horiz-adv-x="586" 
d="M89.5 354l238 203l73 -84.75l-148.5 -127.5l110.75 -128.5l-95.25 -70.25zM314 354l238 203l73 -84.75l-148.5 -127.5l110.75 -128.5l-95.25 -70.25z" />
    <glyph glyph-name="logicalnot" unicode="&#xac;" horiz-adv-x="481" 
d="M63.75 233.5l20.25 126.5h427c-9 -57 -23.25 -144 -32.25 -201h-126.5l12 74.5h-300.5z" />
    <glyph glyph-name="uni00AD" unicode="&#xad;" horiz-adv-x="353" 
d="M54.75 223l21 134h314l-21 -134h-314z" />
    <glyph glyph-name="registered" unicode="&#xae;" horiz-adv-x="794" 
d="M93.5 383c30 190.75 101.25 349 321 349h215c200.25 0 218 -194.25 187.5 -386.5c-38.5 -242.5 -146.25 -345.5 -297.25 -345.5h-215c-192.75 0 -241.5 190.5 -211.25 383zM195 368c-24.5 -155 6 -274 120 -274h209c87 0 159.5 70 191.5 274c19 120 33.75 270 -97.25 270
h-217.5c-88.75 0 -170.75 -48.25 -205.75 -270zM264.75 153l68 427h184.5c62.5 0 129 -26.25 112.25 -137c-12.5 -89 -48 -115.75 -92.75 -129.5l60.25 -160.5h-108.75l-55.75 155l-39.5 12l-26.75 -167h-101.5zM404.5 394h59c52 0 57.75 6.25 64.5 49.5
c6.25 39.75 -9.75 42.5 -50 42.5h-59z" />
    <glyph glyph-name="macron" unicode="&#xaf;" horiz-adv-x="359" 
d="M117.5 531l13.75 85.5h292l-13.75 -85.5h-292z" />
    <glyph glyph-name="degree" unicode="&#xb0;" horiz-adv-x="267" 
d="M131.5 632c3.75 57 52 100 108 100s98.75 -43 95 -100s-51 -98.25 -107 -98.25s-99.75 41.25 -96 98.25zM192.75 632c-1.5 -22.5 16 -39.75 38.5 -39.75s40.5 17.25 42 39.75s-14.25 40.75 -36.75 40.75s-42.25 -18.25 -43.75 -40.75z" />
    <glyph glyph-name="plusminus" unicode="&#xb1;" horiz-adv-x="491" 
d="M48 64.5l21 134h416l-21 -134h-416zM99 379.5l20.75 134h140l22.5 141h134l-22.5 -141h142l-20.75 -134h-142l-22.75 -141h-134l22.75 141h-140z" />
    <glyph glyph-name="twosuperior" unicode="&#xb2;" horiz-adv-x="403" 
d="M64.5 355.25l17.25 109c63.25 37.5 251.75 157.75 261.5 219c6.5 40.25 -14 49.25 -69 49.25h-154c-0.5 0 15 93.75 15.25 93.5c61 11.75 109.25 20.25 202.25 20.25c104.5 0 145.5 -82.75 133 -160c-16 -103.5 -125 -182.75 -171.25 -217.25h135.75l-18.25 -113.75
h-352.5z" />
    <glyph glyph-name="threesuperior" unicode="&#xb3;" horiz-adv-x="408" 
d="M66.25 370.75l15.5 93.25c8 0 153.75 0.25 153.75 0.25c48.5 0 68 5 72 33.25l1.75 9.5c4.25 29.25 -16.75 34.25 -57.75 36l-116.25 4.25l15.5 101.25l119 4.5c45.75 2 65.5 6.75 69.25 33.25l0.75 8.5c5.5 28.5 -18.75 33 -58.25 33h-162.75l14.5 92.5
c63.75 22.25 143.5 22.75 224 21c77 -1 121.75 -57 109.75 -131.25l-4.5 -28.25c-8 -48.5 -32.75 -79.5 -73.5 -86.5c42 -13.25 50.5 -61.5 43 -109l-4 -22c-12.5 -78.5 -64.25 -114 -153.25 -113.75c-78.5 0 -152.25 -2 -208.5 20.25z" />
    <glyph glyph-name="acute" unicode="&#xb4;" horiz-adv-x="243" 
d="M97.25 531l107 140.5h132.5l-140.5 -140.5h-99z" />
    <glyph glyph-name="uni00B5" unicode="&#xb5;" horiz-adv-x="585" 
d="M17.75 -270l71.75 453.5l55.25 347.5h164l-56 -350.5c-7.75 -48 8.25 -63 37.5 -63c47.75 0 77.75 12.5 110.5 42l59 371.5h164l-84 -531h-134.5l-21 54.5c-38.5 -21.5 -69.25 -43.25 -109.75 -52.25c-17.25 -3.75 -33.25 -4.5 -50 -2.75l-42.75 -269.5h-164z" />
    <glyph glyph-name="paragraph" unicode="&#xb6;" horiz-adv-x="575" 
d="M105.25 515.5l14 93c15.75 99.75 88.75 123.5 178.5 123.5h380l-18 -113.5h-46.5l-98 -618.5h-111.5l98.75 620.5h-56.5l-141 -890.5h-111.5l101.25 642c-6 -2 -24 -17 -57.25 -17c-112.75 0 -143.75 86.5 -132.25 160.5zM219.25 514.5c-7.25 -46.75 16 -48 43 -48h47.25
l25 154.75h-46.5c-46.25 0 -54 -13.5 -60.75 -55.25z" />
    <glyph glyph-name="periodcentered" unicode="&#xb7;" horiz-adv-x="259" 
d="M109.25 334.5l16.5 102c2 15 12 25 28 25h98c18 0 24 -9 21 -25l-16.5 -102c-3 -18 -14 -23 -28 -23h-98c-14 0 -23 9 -21 23z" />
    <glyph glyph-name="cedilla" unicode="&#xb8;" horiz-adv-x="241" 
d="M5.5 -180.5l11.25 68.5l43 15c30 12 32.5 22 38.5 60h104.5c-16 -102 -49.75 -143.5 -138.75 -143.5h-58.5z" />
    <glyph glyph-name="onesuperior" unicode="&#xb9;" horiz-adv-x="280" 
d="M107.5 696.5l13 85.5c20 0 86.5 30.25 110.5 58h123l-76.75 -484.75h-125l58.25 359.5c-25.25 -19.75 -83.75 -18.25 -103 -18.25z" />
    <glyph glyph-name="ordmasculine" unicode="&#xba;" horiz-adv-x="385" 
d="M74.75 261.25l11.25 73h328l-11.25 -73h-328zM112.25 561.25c22.75 142.25 76 172.75 197.75 173c120.25 0.25 164.25 -57 142 -198.5c-20.75 -129.75 -67.75 -163 -197.25 -163c-121.75 0 -162.5 62.5 -142.5 188.5zM229 549.25c-12 -73.75 -0.5 -79.75 40.5 -80
c44.5 -0.25 53.5 3.25 65.75 80c12.25 79.5 10.75 88.25 -39 88.5c-50 0.25 -55 -9.25 -67.25 -88.5z" />
    <glyph glyph-name="guillemotright" unicode="&#xbb;" horiz-adv-x="584" 
d="M69.75 233l150.75 132l-103.25 116.5l90 75.5l174.25 -204.25l-235 -206.75zM295.25 233l150.75 132l-104 116.5l90 75.5l175 -204.25l-235 -206.75z" />
    <glyph glyph-name="onequarter" unicode="&#xbc;" horiz-adv-x="991" 
d="M107.5 596.5l13 85.5c20 0 86.5 30.25 110.5 58h123l-76.75 -484.75h-125l58.25 359.5c-25.25 -19.75 -83.75 -18.25 -103 -18.25zM199 0l513 770h121l-513 -770h-121zM577.25 144l211.5 339.25h133.25l-167.75 -277.25h90.5l15.25 95.5l30.75 50.25h97.75
l-23.25 -145.75h44.75l-15.5 -97l-49.75 -19l-11.5 -89.25h-120.5l13.75 88.5h-227.25z" />
    <glyph glyph-name="onehalf" unicode="&#xbd;" horiz-adv-x="1026" 
d="M107.5 596.5l13 85.5c20 0 86.5 30.25 110.5 58h123l-76.75 -484.75h-125l58.25 359.5c-25.25 -19.75 -83.75 -18.25 -103 -18.25zM195.5 0l513 770h121l-513 -770h-121zM647.5 -0.75l17.25 109c63.25 37.5 251.75 157.75 261.5 219c6.5 40.25 -13.25 49.25 -68.25 49.25
h-154c-0.5 0 14.25 93.75 14.5 93.5c61 11.75 109.25 20.25 202.25 20.25c104.5 0 145.5 -82.75 133 -160c-16 -103.5 -125 -182.75 -171.25 -217.25h135.75l-18.25 -113.75h-352.5z" />
    <glyph glyph-name="threequarters" unicode="&#xbe;" horiz-adv-x="1102" 
d="M66.25 270.75l15.5 93.25c8 0 153.75 0.25 153.75 0.25c48.5 0 68 5 72 33.25l1.75 9.5c4.25 29.25 -16.75 34.25 -57.75 36l-116.25 4.25l15.5 101.25l119 4.5c45.75 2 65.5 6.75 69.25 33.25l0.75 8.5c5.5 28.5 -18.75 33 -58.25 33h-162.75l14.5 92.5
c63.75 22.25 143.5 22.75 224 21c77 -1 121.75 -57 109.75 -131.25l-4.5 -28.25c-8 -48.5 -32.75 -79.5 -73.5 -86.5c42 -13.25 50.5 -61.5 43 -109l-4 -22c-12.5 -78.5 -64.25 -114 -153.25 -113.75c-78.5 0 -152.25 -2 -208.5 20.25zM300 0l513 770h121l-513 -770h-121z
M667.5 144l212.25 339.25h133l-168.5 -277.25h90.75l15.25 95.5l30.75 50.25h97.75l-23.25 -145.75h44.5l-14.75 -97l-50.25 -19l-11.5 -89.25h-120.75l14 88.5h-227.5z" />
    <glyph glyph-name="questiondown" unicode="&#xbf;" horiz-adv-x="541" 
d="M14.75 -51.25l10 63.5c21.75 139.25 94.75 187.75 251.5 178c0 0.75 14 84.5 13.75 86h127.5l-32.75 -207c-14.5 0.25 -90 0.5 -104.5 0c-49 -2 -83.75 -20 -92.5 -76.5l-6.25 -36.5c-8.5 -54 20 -75 88.25 -75h241l-19.25 -121.5
c-93.5 -20.5 -172.75 -32.5 -286.75 -27.5c-147.5 0 -206 118.5 -190 216.5zM293 346.25l15.75 102c2.75 17.25 14.25 23 28.25 23h98.5c14 0 22.25 -9 20.25 -23l-15.75 -102c-2 -15 -12 -25 -28 -25h-98.5c-17.25 0 -23.25 9.5 -20.5 25z" />
    <glyph glyph-name="Agrave" unicode="&#xc0;" horiz-adv-x="698" 
d="M342.24 937.5h130.5l67 -140.5h-99zM30 0l355 732h190.25l114.75 -732h-168l-25.5 147h-215.25l-69.75 -147h-181.5zM343.5 289.25h139.75l-33 234.5z" />
    <glyph glyph-name="Aacute" unicode="&#xc1;" horiz-adv-x="698" 
d="M440.74 797l107 140.5h132.5l-140.5 -140.5h-99zM30 0l355 732h190.25l114.75 -732h-168l-25.5 147h-215.25l-69.75 -147h-181.5zM343.5 289.25h139.75l-33 234.5z" />
    <glyph glyph-name="Acircumflex" unicode="&#xc2;" horiz-adv-x="698" 
d="M333.365 797l126 137.5h116l72.5 -137.5h-99.5l-37.5 59l-66 -59h-111.5zM30 0l355 732h190.25l114.75 -732h-168l-25.5 147h-215.25l-69.75 -147h-181.5zM343.5 289.25h139.75l-33 234.5z" />
    <glyph glyph-name="Atilde" unicode="&#xc3;" horiz-adv-x="698" 
d="M327.55 857.5c34.5 35.25 81 71.5 133.25 71.5c45.5 -0.75 63 -34.5 100 -34.75c36 -1.75 79 20.25 100 38.5l14.25 -66c-31 -31.5 -75.25 -69.75 -124.5 -69.5c-46.25 0.25 -69.75 35 -108 34.75c-40.25 -0.25 -65 -13.5 -99.25 -35zM30 0l355 732h190.25l114.75 -732
h-168l-25.5 147h-215.25l-69.75 -147h-181.5zM343.5 289.25h139.75l-33 234.5z" />
    <glyph glyph-name="Adieresis" unicode="&#xc4;" horiz-adv-x="698" 
d="M311.635 859.25c5.5 34 37.75 61.25 71.75 61.25s57.25 -27.25 51.75 -61.25s-37.5 -62.25 -71.5 -62.25s-57.5 28.25 -52 62.25zM566.635 859.25c5.5 34 37.75 61.25 71.75 61.25s57.25 -27.25 51.75 -61.25s-37.5 -62.25 -71.5 -62.25s-57.5 28.25 -52 62.25zM30 0
l355 732h190.25l114.75 -732h-168l-25.5 147h-215.25l-69.75 -147h-181.5zM343.5 289.25h139.75l-33 234.5z" />
    <glyph glyph-name="Aring" unicode="&#xc5;" horiz-adv-x="698" 
d="M388.977 830.542c4.99707 57 53.5039 100.75 109.504 100.75s98.4932 -43.75 93.4961 -100.75c-4.99512 -57 -51.7305 -100.5 -107.73 -100.5s-100.266 43.5 -95.2695 100.5zM451.727 830.542c-2.15527 -21.75 14.0693 -38.25 35.8193 -38.25s39.5254 16.5 41.6807 38.25
c2.15625 21.75 -13.0469 39.25 -34.7969 39.25s-40.5469 -17.5 -42.7031 -39.25zM30 0l355 732h190.25l114.75 -732h-168l-25.5 147h-215.25l-69.75 -147h-181.5zM343.5 289.25h139.75l-33 234.5z" />
    <glyph glyph-name="AE" unicode="&#xc6;" horiz-adv-x="1050" 
d="M20.25 0l367 565c104 159.75 230.25 172.25 354.5 167c0 0 221.75 -4 307.25 -16l-21 -137h-265.25c-51 0 -55.75 -28.25 -60.25 -55.25l-13.5 -84.75l267.25 -10.75l-21 -135.5l-271.25 -9.25l-13 -82.25c-8 -53 25.25 -52 54.25 -52h254.5l-22 -135.75
c-78.75 -10.5 -299.5 -17 -299.5 -17c-69.75 -4 -181 18.5 -164 126.75l9.25 59.5h-160.5l-120.25 -182.75h-182.5zM412.75 324.25h93.5l32 197.25z" />
    <glyph glyph-name="Ccedilla" unicode="&#xc7;" horiz-adv-x="569" 
d="M94.75 391.25c36.75 233.25 110.25 348.75 309.25 348.75c121 0 175.75 -10.25 253.5 -37.5l-20.25 -128c-6.25 0.75 -109.75 17 -210.75 16.5c-76.75 -0.25 -131.25 4 -167.25 -225c-26.5 -163.5 -10.25 -220.75 94.75 -223c89.75 -0.75 181.5 6.25 217 8.75l-20 -128
c-70.75 -25.25 -136.75 -32 -264 -29.75c-185.25 2.25 -227.75 170.25 -192.25 397.25zM171 -179.75l11.25 68.5l43 15c30.25 11 33.25 22 39.25 60c7 -0.25 104.5 0 104.5 0c-16 -102 -50.5 -143.5 -139.5 -143.5h-58.5z" />
    <glyph glyph-name="Egrave" unicode="&#xc8;" horiz-adv-x="558" 
d="M273 932.5h130.5l67 -140.5h-99zM72.5 160.5l66.25 419c21.25 132.5 110.75 153.5 196.5 152.5c0 0 220.25 -4 306.5 -16l-21.75 -136.75h-264.5c-51 0 -56.25 -29 -60.25 -56l-12.5 -80l266.5 -10.75l-22 -135.5l-269.25 -9.25l-14 -86c-8.5 -53 25.25 -52 54.25 -52
h254.5l-22 -135.75c-79.5 -10.5 -302.5 -17 -302.5 -17c-72.25 -2.75 -177.5 25.25 -155.75 163.5z" />
    <glyph glyph-name="Eacute" unicode="&#xc9;" horiz-adv-x="558" 
d="M375.5 792l107 140.5h132.5l-140.5 -140.5h-99zM72.5 160.5l66.25 419c21.25 132.5 110.75 153.5 196.5 152.5c0 0 220.25 -4 306.5 -16l-21.75 -136.75h-264.5c-51 0 -56.25 -29 -60.25 -56l-12.5 -80l266.5 -10.75l-22 -135.5l-269.25 -9.25l-14 -86
c-8.5 -53 25.25 -52 54.25 -52h254.5l-22 -135.75c-79.5 -10.5 -302.5 -17 -302.5 -17c-72.25 -2.75 -177.5 25.25 -155.75 163.5z" />
    <glyph glyph-name="Ecircumflex" unicode="&#xca;" horiz-adv-x="558" 
d="M271.5 792l126 137.75h116l72.5 -137.75h-100.5l-36.25 58.25l-57.75 -58.25h-120zM72.5 160.5l66.25 419c21.25 132.5 110.75 153.5 196.5 152.5c0 0 220.25 -4 306.5 -16l-21.75 -136.75h-264.5c-51 0 -56.25 -29 -60.25 -56l-12.5 -80l266.5 -10.75l-22 -135.5
l-269.25 -9.25l-14 -86c-8.5 -53 25.25 -52 54.25 -52h254.5l-22 -135.75c-79.5 -10.5 -302.5 -17 -302.5 -17c-72.25 -2.75 -177.5 25.25 -155.75 163.5z" />
    <glyph glyph-name="Edieresis" unicode="&#xcb;" horiz-adv-x="558" 
d="M236.75 843c5.5 34 37.75 61.25 71.75 61.25s57.25 -27.25 51.75 -61.25s-37.5 -62.25 -71.5 -62.25s-57.5 28.25 -52 62.25zM491.75 843c5.5 34 37.75 61.25 71.75 61.25s57.25 -27.25 51.75 -61.25s-37.5 -62.25 -71.5 -62.25s-57.5 28.25 -52 62.25zM72.5 160.5
l66.25 419c21.25 132.5 110.75 153.5 196.5 152.5c0 0 220.25 -4 306.5 -16l-21.75 -136.75h-264.5c-51 0 -56.25 -29 -60.25 -56l-12.5 -80l266.5 -10.75l-22 -135.5l-269.25 -9.25l-14 -86c-8.5 -53 25.25 -52 54.25 -52h254.5l-22 -135.75
c-79.5 -10.5 -302.5 -17 -302.5 -17c-72.25 -2.75 -177.5 25.25 -155.75 163.5z" />
    <glyph glyph-name="Igrave" unicode="&#xcc;" horiz-adv-x="267" 
d="M116.74 937.5h130.5l67 -140.5h-99zM56.25 0l116 732h164l-116 -732h-164z" />
    <glyph glyph-name="Iacute" unicode="&#xcd;" horiz-adv-x="267" 
d="M215.24 797l107 140.5h132.5l-140.5 -140.5h-99zM56.25 0l116 732h164l-116 -732h-164z" />
    <glyph glyph-name="Icircumflex" unicode="&#xce;" horiz-adv-x="267" 
d="M107.114 797l126 137.5h116l72.5 -137.5h-99.5l-37.5 59l-66 -59h-111.5zM56.25 0l116 732h164l-116 -732h-164z" />
    <glyph glyph-name="Idieresis" unicode="&#xcf;" horiz-adv-x="267" 
d="M85.3857 859.25c5.5 34 37.75 61.25 71.75 61.25s57.25 -27.25 51.75 -61.25s-37.5 -62.25 -71.5 -62.25s-57.5 28.25 -52 62.25zM340.386 859.25c5.5 34 37.75 61.25 71.75 61.25s57.25 -27.25 51.75 -61.25s-37.5 -62.25 -71.5 -62.25s-57.5 28.25 -52 62.25zM56.25 0
l116 732h164l-116 -732h-164z" />
    <glyph glyph-name="Eth" unicode="&#xd0;" horiz-adv-x="647" 
d="M42 338.5l11.25 69h65l51.25 324.25c0 0.25 295.5 0.25 310.5 0.25c205.5 0 223.5 -205.75 193.25 -391.5c-40 -245.25 -121.75 -340.5 -294.25 -340.5h-325.5l53.5 338.5h-65zM240 142.25h131.5c75.25 0 115 78.75 137.5 221.75c29.75 186.25 0.25 226.5 -66.5 226.5
h-131.5l-28.75 -183h101.5l-11.25 -69h-101.5z" />
    <glyph glyph-name="Ntilde" unicode="&#xd1;" horiz-adv-x="672" 
d="M304.75 856.25c34.5 35.25 81 71.5 133.25 71.5c45.5 -0.75 63 -34.5 100 -34.75c36 -1.75 79 20.25 100 38.5l14.25 -66c-31 -31.5 -75.25 -69.75 -124.5 -69.5c-46.25 0.25 -69.75 35 -108 34.75c-40.25 -0.25 -65 -13.5 -99.25 -35zM53.75 0l116 732h165
l182.25 -432.75l67.75 432.75h164l-116 -732h-163l-184 425.25l-67 -425.25h-165z" />
    <glyph glyph-name="Ograve" unicode="&#xd2;" horiz-adv-x="666" 
d="M315.542 937.5h130.5l67 -140.5h-99zM99.25 379.75c54 343 185 357.25 354.75 357.25c173.25 0 294.25 -54.75 241.25 -394.75c-50.5 -323 -175.25 -346.25 -353.5 -346.25c-175.5 0 -295.5 50.75 -242.5 383.75zM263.25 361c-28.25 -179 -11.75 -216 99.25 -216
c100 0 140.25 37.5 168.75 216c32 202.25 1.25 227 -98 227s-137.25 -18 -170 -227z" />
    <glyph glyph-name="Oacute" unicode="&#xd3;" horiz-adv-x="666" 
d="M414.042 797l107 140.5h132.5l-140.5 -140.5h-99zM99.25 379.75c54 343 185 357.25 354.75 357.25c173.25 0 294.25 -54.75 241.25 -394.75c-50.5 -323 -175.25 -346.25 -353.5 -346.25c-175.5 0 -295.5 50.75 -242.5 383.75zM263.25 361
c-28.25 -179 -11.75 -216 99.25 -216c100 0 140.25 37.5 168.75 216c32 202.25 1.25 227 -98 227s-137.25 -18 -170 -227z" />
    <glyph glyph-name="Ocircumflex" unicode="&#xd4;" horiz-adv-x="666" 
d="M306.667 797l126 137.5h116l72.5 -137.5h-99.5l-37.5 59l-66 -59h-111.5zM99.25 379.75c54 343 185 357.25 354.75 357.25c173.25 0 294.25 -54.75 241.25 -394.75c-50.5 -323 -175.25 -346.25 -353.5 -346.25c-175.5 0 -295.5 50.75 -242.5 383.75zM263.25 361
c-28.25 -179 -11.75 -216 99.25 -216c100 0 140.25 37.5 168.75 216c32 202.25 1.25 227 -98 227s-137.25 -18 -170 -227z" />
    <glyph glyph-name="Otilde" unicode="&#xd5;" horiz-adv-x="666" 
d="M300.102 857.5c34.5 35.25 81 71.5 133.25 71.5c45.5 -0.75 63 -34.5 100 -34.75c36 -1.75 79 20.25 100 38.5l14.25 -66c-31 -31.5 -75.25 -69.75 -124.5 -69.5c-46.25 0.25 -69.75 35 -108 34.75c-40.25 -0.25 -65 -13.5 -99.25 -35zM99.25 379.75
c54 343 185 357.25 354.75 357.25c173.25 0 294.25 -54.75 241.25 -394.75c-50.5 -323 -175.25 -346.25 -353.5 -346.25c-175.5 0 -295.5 50.75 -242.5 383.75zM263.25 361c-28.25 -179 -11.75 -216 99.25 -216c100 0 140.25 37.5 168.75 216c32 202.25 1.25 227 -98 227
s-137.25 -18 -170 -227z" />
    <glyph glyph-name="Odieresis" unicode="&#xd6;" horiz-adv-x="666" 
d="M284.937 859.25c5.5 34 37.75 61.25 71.75 61.25s57.25 -27.25 51.75 -61.25s-37.5 -62.25 -71.5 -62.25s-57.5 28.25 -52 62.25zM539.937 859.25c5.5 34 37.75 61.25 71.75 61.25s57.25 -27.25 51.75 -61.25s-37.5 -62.25 -71.5 -62.25s-57.5 28.25 -52 62.25z
M99.25 379.75c54 343 185 357.25 354.75 357.25c173.25 0 294.25 -54.75 241.25 -394.75c-50.5 -323 -175.25 -346.25 -353.5 -346.25c-175.5 0 -295.5 50.75 -242.5 383.75zM263.25 361c-28.25 -179 -11.75 -216 99.25 -216c100 0 140.25 37.5 168.75 216
c32 202.25 1.25 227 -98 227s-137.25 -18 -170 -227z" />
    <glyph glyph-name="multiply" unicode="&#xd7;" horiz-adv-x="462" 
d="M78 256.5l114.25 99l-82.75 99.5l103.25 91.5l83.5 -99.5l122.75 104.25l79.5 -95.25l-124 -106.5l84 -99.25l-102 -84.75l-81.5 95.5l-115.25 -103.5z" />
    <glyph glyph-name="Oslash" unicode="&#xd8;" horiz-adv-x="666" 
d="M33 0l77 89.25c-26 53.75 -33.75 161.25 -12.25 294.25c54 343 185.75 353.5 355.5 353.5c71.75 0 134.75 -6.5 179.25 -37.75l27.75 32.75h79.75l-65.75 -77c32.5 -55 42.5 -167.75 19.5 -316.5c-50.5 -323 -175.25 -342.5 -353.5 -342.5c-79 0 -147.25 6.25 -193 44.25
l-34.5 -40.25h-79.75zM261.75 361c-7.25 -46 -10.25 -79.5 -8 -105.25l264 311.75c-18.25 17.25 -47.5 20.5 -86 20.5c-99.25 0 -137.25 -18 -170 -227zM265.75 177c16.25 -24.5 46.5 -32 96 -32c100 0 139.5 37.5 168 216c9.75 63 13.25 107 9.25 139z" />
    <glyph glyph-name="Ugrave" unicode="&#xd9;" horiz-adv-x="653" 
d="M310.365 937.5h130.5l67 -140.5h-99zM103.75 338l63.5 394h164.25l-65.75 -416.5c-18.75 -118 -11 -171.5 90.25 -171.5c99.25 0 125 59.5 142.5 171.5l65.75 416.5h165l-62 -439c-44 -278 -182.25 -298 -333.75 -298c-143 0 -278.25 38 -229.75 343z" />
    <glyph glyph-name="Uacute" unicode="&#xda;" horiz-adv-x="653" 
d="M408.865 797l107 140.5h132.5l-140.5 -140.5h-99zM103.75 338l63.5 394h164.25l-65.75 -416.5c-18.75 -118 -11 -171.5 90.25 -171.5c99.25 0 125 59.5 142.5 171.5l65.75 416.5h165l-62 -439c-44 -278 -182.25 -298 -333.75 -298c-143 0 -278.25 38 -229.75 343z" />
    <glyph glyph-name="Ucircumflex" unicode="&#xdb;" horiz-adv-x="653" 
d="M301.49 797l126 137.5h116l72.5 -137.5h-99.5l-37.5 59l-66 -59h-111.5zM103.75 338l63.5 394h164.25l-65.75 -416.5c-18.75 -118 -11 -171.5 90.25 -171.5c99.25 0 125 59.5 142.5 171.5l65.75 416.5h165l-62 -439c-44 -278 -182.25 -298 -333.75 -298
c-143 0 -278.25 38 -229.75 343z" />
    <glyph glyph-name="Udieresis" unicode="&#xdc;" horiz-adv-x="653" 
d="M279.76 859.25c5.5 34 37.75 61.25 71.75 61.25s57.25 -27.25 51.75 -61.25s-37.5 -62.25 -71.5 -62.25s-57.5 28.25 -52 62.25zM534.76 859.25c5.5 34 37.75 61.25 71.75 61.25s57.25 -27.25 51.75 -61.25s-37.5 -62.25 -71.5 -62.25s-57.5 28.25 -52 62.25zM103.75 338
l63.5 394h164.25l-65.75 -416.5c-18.75 -118 -11 -171.5 90.25 -171.5c99.25 0 125 59.5 142.5 171.5l65.75 416.5h165l-62 -439c-44 -278 -182.25 -298 -333.75 -298c-143 0 -278.25 38 -229.75 343z" />
    <glyph glyph-name="Yacute" unicode="&#xdd;" horiz-adv-x="666" 
d="M405.99 797l107 140.5h132.5l-140.5 -140.5h-99zM135 732h177.75l68 -338.25l188 338.25h186.25l-318.25 -517l-34.25 -215h-164l34.25 215z" />
    <glyph glyph-name="Thorn" unicode="&#xde;" horiz-adv-x="542" 
d="M40.5 0c38 243 77 486 115 729h164l-22 -141h129.5c74.5 0 168.5 -43.5 142 -222.75c-30.25 -205.5 -132.75 -212.75 -210 -215c-44.5 -1.5 -81.75 -1.75 -127.25 19.25l-27.25 -169.5h-164zM251 291.75h69.5c54 0 71.25 7 83.25 81.5c10.75 71 -21.75 73 -59.25 73
h-69.5z" />
    <glyph glyph-name="germandbls" unicode="&#xdf;" horiz-adv-x="573" 
d="M40.5 0l90 566c18 116 96.5 216.25 279.25 216.25c284.5 0 262 -231 145 -352.5c-34.75 -34.5 -73.5 -42 -79.75 -80.75c-9.5 -57 131 -59.5 112.25 -179.5l-4 -24.5c-19.75 -124.75 -109.75 -153 -196.75 -153c-68 0 -103 9.75 -136.25 19l17.25 113.25
c33.25 -3 63.5 -5.75 90.5 -5.75c27.75 0 57.75 12.5 64.25 52.5l2.5 13.75c10 64.75 -123.5 53.5 -106.5 165.5c10.25 67 38 92.75 97.5 134.25c34.25 26.25 46.5 51.25 50.25 78c9.25 62 -20 73 -69.5 73c-68.5 0 -96.75 -32.75 -113.25 -137l-78.75 -498.5h-164z" />
    <glyph glyph-name="agrave" unicode="&#xe0;" horiz-adv-x="544" 
d="M203.93 741.993h130.5l67 -140.5h-99zM73.75 303.5c44.25 220.75 164.75 235 263.25 237.5c79 2.25 194.75 -13 245.75 -62l-70 -477.5h-128l-25.25 52.5c-25.25 -37.75 -92.5 -59.5 -151.5 -59.5c-99.75 0 -176.5 98 -134.25 309zM234 278.75
c-13 -87 -13.25 -149.5 43.75 -149.5c50.75 0 77.25 19 96.5 51l33.25 226.75c-21 9.25 -57.5 12.75 -82.75 7c-38 -8.25 -74 -22.25 -90.75 -135.25z" />
    <glyph glyph-name="aacute" unicode="&#xe1;" horiz-adv-x="544" 
d="M302.93 601.493l107 140.5h132.5l-140.5 -140.5h-99zM73.75 303.5c44.25 220.75 164.75 235 263.25 237.5c79 2.25 194.75 -13 245.75 -62l-70 -477.5h-128l-25.25 52.5c-25.25 -37.75 -92.5 -59.5 -151.5 -59.5c-99.75 0 -176.5 98 -134.25 309zM234 278.75
c-13 -87 -13.25 -149.5 43.75 -149.5c50.75 0 77.25 19 96.5 51l33.25 226.75c-21 9.25 -57.5 12.75 -82.75 7c-38 -8.25 -74 -22.25 -90.75 -135.25z" />
    <glyph glyph-name="acircumflex" unicode="&#xe2;" horiz-adv-x="544" 
d="M193.055 601.493l126 137.5h116l72.5 -137.5h-99.5l-37.5 59l-66 -59h-111.5zM73.75 303.5c44.25 220.75 164.75 235 263.25 237.5c79 2.25 194.75 -13 245.75 -62l-70 -477.5h-128l-25.25 52.5c-25.25 -37.75 -92.5 -59.5 -151.5 -59.5c-99.75 0 -176.5 98 -134.25 309z
M234 278.75c-13 -87 -13.25 -149.5 43.75 -149.5c50.75 0 77.25 19 96.5 51l33.25 226.75c-21 9.25 -57.5 12.75 -82.75 7c-38 -8.25 -74 -22.25 -90.75 -135.25z" />
    <glyph glyph-name="atilde" unicode="&#xe3;" horiz-adv-x="544" 
d="M192.489 661.993c34.5 35.25 81 71.5 133.25 71.5c45.5 -0.75 63 -34.5 100 -34.75c36 -1.75 79 20.25 100 38.5l14.25 -66c-31 -31.5 -75.25 -69.75 -124.5 -69.5c-46.25 0.25 -69.75 35 -108 34.75c-40.25 -0.25 -65 -13.5 -99.25 -35zM73.75 303.5
c44.25 220.75 164.75 235 263.25 237.5c79 2.25 194.75 -13 245.75 -62l-70 -477.5h-128l-25.25 52.5c-25.25 -37.75 -92.5 -59.5 -151.5 -59.5c-99.75 0 -176.5 98 -134.25 309zM234 278.75c-13 -87 -13.25 -149.5 43.75 -149.5c50.75 0 77.25 19 96.5 51l33.25 226.75
c-21 9.25 -57.5 12.75 -82.75 7c-38 -8.25 -74 -22.25 -90.75 -135.25z" />
    <glyph glyph-name="adieresis" unicode="&#xe4;" horiz-adv-x="544" 
d="M174.575 663.743c5.5 34 37.75 61.25 71.75 61.25s57.25 -27.25 51.75 -61.25s-37.5 -62.25 -71.5 -62.25s-57.5 28.25 -52 62.25zM429.575 663.743c5.5 34 37.75 61.25 71.75 61.25s57.25 -27.25 51.75 -61.25s-37.5 -62.25 -71.5 -62.25s-57.5 28.25 -52 62.25z
M73.75 303.5c44.25 220.75 164.75 235 263.25 237.5c79 2.25 194.75 -13 245.75 -62l-70 -477.5h-128l-25.25 52.5c-25.25 -37.75 -92.5 -59.5 -151.5 -59.5c-99.75 0 -176.5 98 -134.25 309zM234 278.75c-13 -87 -13.25 -149.5 43.75 -149.5c50.75 0 77.25 19 96.5 51
l33.25 226.75c-21 9.25 -57.5 12.75 -82.75 7c-38 -8.25 -74 -22.25 -90.75 -135.25z" />
    <glyph glyph-name="aring" unicode="&#xe5;" horiz-adv-x="544" 
d="M267.044 701.993c4.99707 57 53.5029 100.75 109.503 100.75s98.4941 -43.75 93.4971 -100.75c-4.99609 -57 -51.7305 -100.5 -107.73 -100.5s-100.267 43.5 -95.2695 100.5zM329.794 701.993c-2.15625 -21.75 14.0693 -38.25 35.8193 -38.25s39.5244 16.5 41.6807 38.25
s-13.0469 39.25 -34.7969 39.25s-40.5469 -17.5 -42.7031 -39.25zM73.75 303.5c44.25 220.75 164.75 235 263.25 237.5c79 2.25 194.75 -13 245.75 -62l-70 -477.5h-128l-25.25 52.5c-25.25 -37.75 -92.5 -59.5 -151.5 -59.5c-99.75 0 -176.5 98 -134.25 309zM234 278.75
c-13 -87 -13.25 -149.5 43.75 -149.5c50.75 0 77.25 19 96.5 51l33.25 226.75c-21 9.25 -57.5 12.75 -82.75 7c-38 -8.25 -74 -22.25 -90.75 -135.25z" />
    <glyph glyph-name="ae" unicode="&#xe6;" horiz-adv-x="830" 
d="M56.25 307.25c45.5 223.5 154.75 231.25 253.25 233.75c52.25 2 129 -6 177.25 -25.75c36.25 16.5 73.75 25 137.5 25.75c110.25 0.75 230.75 -28.75 224.75 -153c-10.75 -250.5 -292.75 -202.25 -329.75 -187.25c-10.5 -65.5 9.25 -80.25 80.25 -80.5
c53.5 -1.5 141.25 7.5 197.5 17.75l-20.25 -116c-78.75 -24.5 -157.75 -38 -279 -29c-55.75 3.75 -95.25 27.5 -119 69.25c-44 -55.75 -135.75 -69.25 -187.75 -69.25c-100.75 0 -177.25 106.5 -134.75 314.25zM217 277.25c-13 -87 -16.25 -149.25 43 -149.5
c39.25 -0.25 77.25 12.25 92 33.25c-2.75 41.5 0.75 91 11.25 147c7 38 15.75 71.75 27.5 99c-24 8.5 -60.25 12 -83.75 7c-37.75 -8.25 -73.25 -23.75 -90 -136.75zM531.75 307.25c0 0 134.75 -28 149.5 54.5c7.5 41.75 -14.75 53.5 -58.75 52.75
c-71.25 -1.5 -80.75 -50.75 -90.75 -107.25z" />
    <glyph glyph-name="ccedilla" unicode="&#xe7;" horiz-adv-x="491" 
d="M75.25 288.5c35.75 219.25 117.25 248 217.25 248c52 0 156.5 0 245.5 -34l-15.5 -99s-78.75 6.5 -167.75 6.5c-65.75 0 -91.75 -0.5 -116.5 -146.5c-21 -128.75 -0.25 -142.5 70 -142.5c92 0 177.75 8.75 177.75 8.75l-15.75 -99.5
c-83.5 -45.5 -177.75 -35 -260.75 -35.5c-99.75 0.25 -167.75 87.5 -134.25 293.75zM122 -181.25l10.5 68.5l43.75 15c30 12 32.5 22 38.5 60c7 -0.25 104.5 0 104.5 0c-16 -102 -49.75 -143.5 -138.75 -143.5h-58.5z" />
    <glyph glyph-name="egrave" unicode="&#xe8;" horiz-adv-x="528" 
d="M210.792 741.5h130.5l67 -140.5h-99zM75.5 308c31 163 76.5 231.5 271.5 233c110.25 0.75 220.25 -28.75 214.25 -153c-10.75 -250.5 -293.5 -202.25 -330.5 -187.25c-10.5 -65.5 9.25 -80.25 80.25 -80.5c53.5 -1.5 149.25 7.5 205.5 17.75l-20 -116
c-78.75 -24.5 -165.5 -38 -286.75 -29c-127.25 8.25 -170.25 121 -134.25 315zM244 307.25c0 0 134 -28 148.75 54.5c7.5 41.75 -14 53.5 -58 52.75c-71.25 -1.5 -80.75 -50.75 -90.75 -107.25z" />
    <glyph glyph-name="eacute" unicode="&#xe9;" horiz-adv-x="528" 
d="M309.292 601l107 140.5h132.5l-140.5 -140.5h-99zM75.5 308c31 163 76.5 231.5 271.5 233c110.25 0.75 220.25 -28.75 214.25 -153c-10.75 -250.5 -293.5 -202.25 -330.5 -187.25c-10.5 -65.5 9.25 -80.25 80.25 -80.5c53.5 -1.5 149.25 7.5 205.5 17.75l-20 -116
c-78.75 -24.5 -165.5 -38 -286.75 -29c-127.25 8.25 -170.25 121 -134.25 315zM244 307.25c0 0 134 -28 148.75 54.5c7.5 41.75 -14 53.5 -58 52.75c-71.25 -1.5 -80.75 -50.75 -90.75 -107.25z" />
    <glyph glyph-name="ecircumflex" unicode="&#xea;" horiz-adv-x="528" 
d="M201.917 601l126 137.5h116l72.5 -137.5h-99.5l-37.5 59l-66 -59h-111.5zM75.5 308c31 163 76.5 231.5 271.5 233c110.25 0.75 220.25 -28.75 214.25 -153c-10.75 -250.5 -293.5 -202.25 -330.5 -187.25c-10.5 -65.5 9.25 -80.25 80.25 -80.5
c53.5 -1.5 149.25 7.5 205.5 17.75l-20 -116c-78.75 -24.5 -165.5 -38 -286.75 -29c-127.25 8.25 -170.25 121 -134.25 315zM244 307.25c0 0 134 -28 148.75 54.5c7.5 41.75 -14 53.5 -58 52.75c-71.25 -1.5 -80.75 -50.75 -90.75 -107.25z" />
    <glyph glyph-name="edieresis" unicode="&#xeb;" horiz-adv-x="528" 
d="M179.438 663.25c5.5 34 37.75 61.25 71.75 61.25s57.25 -27.25 51.75 -61.25s-37.5 -62.25 -71.5 -62.25s-57.5 28.25 -52 62.25zM434.438 663.25c5.5 34 37.75 61.25 71.75 61.25s57.25 -27.25 51.75 -61.25s-37.5 -62.25 -71.5 -62.25s-57.5 28.25 -52 62.25zM75.5 308
c31 163 76.5 231.5 271.5 233c110.25 0.75 220.25 -28.75 214.25 -153c-10.75 -250.5 -293.5 -202.25 -330.5 -187.25c-10.5 -65.5 9.25 -80.25 80.25 -80.5c53.5 -1.5 149.25 7.5 205.5 17.75l-20 -116c-78.75 -24.5 -165.5 -38 -286.75 -29
c-127.25 8.25 -170.25 121 -134.25 315zM244 307.25c0 0 134 -28 148.75 54.5c7.5 41.75 -14 53.5 -58 52.75c-71.25 -1.5 -80.75 -50.75 -90.75 -107.25z" />
    <glyph glyph-name="igrave" unicode="&#xec;" horiz-adv-x="237" 
d="M56.9893 738.75h130.5l67 -140.5h-99zM30 0l84 531h164l-84 -531h-164z" />
    <glyph glyph-name="iacute" unicode="&#xed;" horiz-adv-x="237" 
d="M154.989 598.25l107 140.5h132.5l-140.5 -140.5h-99zM30 0l84 531h164l-84 -531h-164z" />
    <glyph glyph-name="icircumflex" unicode="&#xee;" horiz-adv-x="237" 
d="M47.1152 598.25l126 137.5h116l72.5 -137.5h-99.5l-37.5 59l-66 -59h-111.5zM30 0l84 531h164l-84 -531h-164z" />
    <glyph glyph-name="idieresis" unicode="&#xef;" horiz-adv-x="237" 
d="M24.3848 660.5c5.5 34 37.75 61.25 71.75 61.25s57.25 -27.25 51.75 -61.25s-37.5 -62.25 -71.5 -62.25s-57.5 28.25 -52 62.25zM279.385 660.5c5.5 34 37.75 61.25 71.75 61.25s57.25 -27.25 51.75 -61.25s-37.5 -62.25 -71.5 -62.25s-57.5 28.25 -52 62.25zM30 0
l84 531h164l-84 -531h-164z" />
    <glyph glyph-name="eth" unicode="&#xf0;" horiz-adv-x="540" 
d="M67 279.75c28.25 174.5 96.5 251.25 231.5 251.25h40.75c6 0 59 0 76.25 -7.5c-4.75 34.75 -17.5 62.75 -38 84l-110.5 -52l-21 57l62.75 29c-33.75 9.5 -77 10.25 -122.25 9l21.25 132.5c123.5 0 206.5 -20.5 263.75 -60.5l89 41.75l22 -57l-64 -29.25
c72 -94.5 62.75 -270.75 36.5 -438c-31 -193 -116.5 -240 -231 -240h-109.5c-137 0 -174.25 112.25 -147.5 279.75zM231 262.5c-15 -94.5 -6.75 -112.5 38.5 -112h47.25c43.5 -0.25 58 11.5 74.25 112c16.5 103.5 13 119.5 -38 119.5h-45.25
c-42 0 -60.75 -19.5 -76.75 -119.5z" />
    <glyph glyph-name="ntilde" unicode="&#xf1;" horiz-adv-x="552" 
d="M209.772 660.5c34.5 35.25 81 71.5 133.25 71.5c45.5 -0.75 63 -34.5 100 -34.75c36 -1.75 79 20.25 100 38.5l14.25 -66c-31 -31.5 -75.25 -69.75 -124.5 -69.5c-46.25 0.25 -69.75 35 -108 34.75c-40.25 -0.25 -65 -13.5 -99.25 -35zM40.5 0l84 531h134.5l21 -54.5
c45.25 32 88 63.5 169 63.5c130 0 142.75 -86.5 125.75 -192.5l-55.25 -347.5h-164l55.25 350.5c7.75 48 -7.5 63 -36.75 63c-47.75 0 -77.75 -12.5 -110.5 -42l-59 -371.5h-164z" />
    <glyph glyph-name="ograve" unicode="&#xf2;" horiz-adv-x="555" 
d="M215.042 738.75h130.5l67 -140.5h-99zM73.25 276.75c34 217 107 261.5 288.5 261.5s234.5 -94 202 -299c-31.5 -197 -97.5 -244.25 -284.5 -244.25c-183.25 0 -236 91.75 -206 281.75zM237.25 258c-20 -121.75 -4.5 -136.5 59.5 -136.5c67.5 0 82 9.5 103 136.5
c20.75 129 14 153.75 -57.25 153.75c-72.25 0 -84 -22.25 -105.25 -153.75z" />
    <glyph glyph-name="oacute" unicode="&#xf3;" horiz-adv-x="555" 
d="M318.042 598.25l107 140.5h132.5l-140.5 -140.5h-99zM73.25 276.75c34 217 107 261.5 288.5 261.5s234.5 -94 202 -299c-31.5 -197 -97.5 -244.25 -284.5 -244.25c-183.25 0 -236 91.75 -206 281.75zM237.25 258c-20 -121.75 -4.5 -136.5 59.5 -136.5
c67.5 0 82 9.5 103 136.5c20.75 129 14 153.75 -57.25 153.75c-72.25 0 -84 -22.25 -105.25 -153.75z" />
    <glyph glyph-name="ocircumflex" unicode="&#xf4;" horiz-adv-x="555" 
d="M203.167 598.25l126 137.5h116l72.5 -137.5h-99.5l-37.5 59l-66 -59h-111.5zM73.25 276.75c34 217 107 261.5 288.5 261.5s234.5 -94 202 -299c-31.5 -197 -97.5 -244.25 -284.5 -244.25c-183.25 0 -236 91.75 -206 281.75zM237.25 258
c-20 -121.75 -4.5 -136.5 59.5 -136.5c67.5 0 82 9.5 103 136.5c20.75 129 14 153.75 -57.25 153.75c-72.25 0 -84 -22.25 -105.25 -153.75z" />
    <glyph glyph-name="otilde" unicode="&#xf5;" horiz-adv-x="555" 
d="M200.352 658.75c34.5 35.25 81 71.5 133.25 71.5c45.5 -0.75 63 -34.5 100 -34.75c36 -1.75 79 20.25 100 38.5l14.25 -66c-31 -31.5 -75.25 -69.75 -124.5 -69.5c-46.25 0.25 -69.75 35 -108 34.75c-40.25 -0.25 -65 -13.5 -99.25 -35zM73.25 276.75
c34 217 107 261.5 288.5 261.5s234.5 -94 202 -299c-31.5 -197 -97.5 -244.25 -284.5 -244.25c-183.25 0 -236 91.75 -206 281.75zM237.25 258c-20 -121.75 -4.5 -136.5 59.5 -136.5c67.5 0 82 9.5 103 136.5c20.75 129 14 153.75 -57.25 153.75
c-72.25 0 -84 -22.25 -105.25 -153.75z" />
    <glyph glyph-name="odieresis" unicode="&#xf6;" horiz-adv-x="555" 
d="M186.688 660.5c5.5 34 37.75 61.25 71.75 61.25s57.25 -27.25 51.75 -61.25s-37.5 -62.25 -71.5 -62.25s-57.5 28.25 -52 62.25zM441.688 660.5c5.5 34 37.75 61.25 71.75 61.25s57.25 -27.25 51.75 -61.25s-37.5 -62.25 -71.5 -62.25s-57.5 28.25 -52 62.25z
M73.25 276.75c34 217 107 261.5 288.5 261.5s234.5 -94 202 -299c-31.5 -197 -97.5 -244.25 -284.5 -244.25c-183.25 0 -236 91.75 -206 281.75zM237.25 258c-20 -121.75 -4.5 -136.5 59.5 -136.5c67.5 0 82 9.5 103 136.5c20.75 129 14 153.75 -57.25 153.75
c-72.25 0 -84 -22.25 -105.25 -153.75z" />
    <glyph glyph-name="divide" unicode="&#xf7;" horiz-adv-x="490" 
d="M78.25 286l21 134h424.25l-21 -134h-424.25zM199.25 148.25l12 71.25c2 15 12 25 28 25h82.25c17.25 0 23.25 -9.5 20.5 -25l-12 -71.25c-2.75 -17.25 -13.5 -23 -27.5 -23h-82.25c-14 0 -23 9 -21 23zM252.5 480.25l11 71.25c2 15 12 25 28 25h82.25
c17.25 0 23.25 -9.5 20.5 -25l-11 -71.25c-2.75 -17.25 -14.5 -23 -28.5 -23h-82.25c-14 0 -22 9 -20 23z" />
    <glyph glyph-name="oslash" unicode="&#xf8;" horiz-adv-x="556" 
d="M18.75 0l68.5 70.25c-23.25 42 -26 120.75 -12.75 205c34 217 107 260.75 288.5 260.75c66 0 114.75 -9.5 149 -31.25l25.5 26.25h81l-67 -68.5c25.5 -44.5 28.75 -129 13.5 -222.5c-31.5 -197 -97.75 -245 -284.75 -245c-68.75 0 -119.5 10.5 -154.25 33.25
l-27.5 -28.25h-79.75zM237.5 220.75l162 170c-8.5 14.75 -26.75 18.75 -56 18.75c-72.25 0 -83.75 -20 -105 -151.5c-2.5 -16.75 -3.25 -28.75 -1 -37.25zM239.25 142.25c9 -17.75 28.25 -20.75 58.75 -20.75c67.5 0 81.25 9.5 103 136.5c4 25.5 5.25 43.5 2.5 55.75z" />
    <glyph glyph-name="ugrave" unicode="&#xf9;" horiz-adv-x="551" 
d="M219.49 738.75h130.5l67 -140.5h-99zM62.5 183.5l55 347.5h164l-55.75 -350.5c-8.25 -50.5 8.25 -63 37.5 -63c47.75 0 77.75 12.5 110.5 42l58.75 371.5h164l-84.75 -531h-134.5l-20.25 54.5c-48.25 -38 -87.75 -63.5 -168.75 -63.5c-130 0 -143 84.75 -125.75 192.5z
" />
    <glyph glyph-name="uacute" unicode="&#xfa;" horiz-adv-x="551" 
d="M317.99 598.25l107 140.5h132.5l-140.5 -140.5h-99zM62.5 183.5l55 347.5h164l-55.75 -350.5c-8.25 -50.5 8.25 -63 37.5 -63c47.75 0 77.75 12.5 110.5 42l58.75 371.5h164l-84.75 -531h-134.5l-20.25 54.5c-48.25 -38 -87.75 -63.5 -168.75 -63.5
c-130 0 -143 84.75 -125.75 192.5z" />
    <glyph glyph-name="ucircumflex" unicode="&#xfb;" horiz-adv-x="551" 
d="M210.615 598.25l126 137.5h116l72.5 -137.5h-99.5l-37.5 59l-66 -59h-111.5zM62.5 183.5l55 347.5h164l-55.75 -350.5c-8.25 -50.5 8.25 -63 37.5 -63c47.75 0 77.75 12.5 110.5 42l58.75 371.5h164l-84.75 -531h-134.5l-20.25 54.5
c-48.25 -38 -87.75 -63.5 -168.75 -63.5c-130 0 -143 84.75 -125.75 192.5z" />
    <glyph glyph-name="udieresis" unicode="&#xfc;" horiz-adv-x="551" 
d="M188.136 660.5c5.5 34 37.75 61.25 71.75 61.25s57.25 -27.25 51.75 -61.25s-37.5 -62.25 -71.5 -62.25s-57.5 28.25 -52 62.25zM443.136 660.5c5.5 34 37.75 61.25 71.75 61.25s57.25 -27.25 51.75 -61.25s-37.5 -62.25 -71.5 -62.25s-57.5 28.25 -52 62.25zM62.5 183.5
l55 347.5h164l-55.75 -350.5c-8.25 -50.5 8.25 -63 37.5 -63c47.75 0 77.75 12.5 110.5 42l58.75 371.5h164l-84.75 -531h-134.5l-20.25 54.5c-48.25 -38 -87.75 -63.5 -168.75 -63.5c-130 0 -143 84.75 -125.75 192.5z" />
    <glyph glyph-name="yacute" unicode="&#xfd;" horiz-adv-x="568" 
d="M314 594.75l107 140.5h132.5l-140.5 -140.5h-99zM80.5 531h170l22 -355.75c2.75 -35.5 32.75 -38.25 44.75 -39l112.75 272.5c11 27.75 20.5 64.75 25.75 123.5h154.75c12.5 -66 -9.5 -134.75 -29.25 -180l-152.75 -352c-113.75 -258 -269 -284 -338.75 -295.5v115.25
c92.25 46.25 137.5 106.75 174.5 180c-94 0 -141.75 52 -150 144.5z" />
    <glyph glyph-name="thorn" unicode="&#xfe;" horiz-adv-x="556" 
d="M4.5 -270l167 1052h164l-49.25 -308c40.25 29.5 95.25 58.5 156.5 58.5c118.75 0 156.75 -116 129.75 -288.75c-24 -151 -64.25 -257.5 -216.75 -257.5c-45 0 -102.75 11.5 -141 35.25l-46.25 -291.5h-164zM231.5 126.5c25.5 -14 60.75 -16.75 92.75 -17.5
c35.25 0 64.25 20.25 83.25 146.5c16.75 113 0.25 142.25 -36.5 141c-39.75 -1 -75.5 -10.5 -101.75 -29.25z" />
    <glyph glyph-name="ydieresis" unicode="&#xff;" horiz-adv-x="568" 
d="M186.5 642c5.5 34 37.75 61.25 71.75 61.25s57.25 -27.25 51.75 -61.25s-37.5 -62.25 -71.5 -62.25s-57.5 28.25 -52 62.25zM441.5 642c5.5 34 37.75 61.25 71.75 61.25s57.25 -27.25 51.75 -61.25s-37.5 -62.25 -71.5 -62.25s-57.5 28.25 -52 62.25zM80.5 531h170
l22 -355.75c2.75 -35.5 32.75 -38.25 44.75 -39l112.75 272.5c11 27.75 20.5 64.75 25.75 123.5h154.75c12.5 -66 -9.5 -134.75 -29.25 -180l-152.75 -352c-113.75 -258 -269 -284 -338.75 -295.5v115.25c92.25 46.25 137.5 106.75 174.5 180c-94 0 -141.75 52 -150 144.5z
" />
    <glyph glyph-name="bullet" unicode="&#x2022;" horiz-adv-x="307" 
d="M106.75 314.75l20.25 132.5c3 21 17 35 39 35h126.5c25 0 32 -13 29 -35l-20.25 -132.5c-4 -24 -21 -32 -41 -32h-126.5c-20 0 -30 12 -27 32z" />
    <glyph glyph-name="quoteleft" unicode="&#x2018;" horiz-adv-x="254" 
d="M132.75 499l22.5 144.75c20 125 158 93.75 158 93.75l-10.5 -62.75c-30.75 0.25 -35 -21.25 -37 -31.75l-2.5 -18.25h11.25c14.25 0 24.5 -8 21.5 -25.5l-15.75 -100.25c-3 -18.5 -14.25 -27.75 -30.75 -27.75h-97.25c-18.5 0 -21.75 12.5 -19.5 27.75z" />
    <glyph glyph-name="quoteright" unicode="&#x2019;" horiz-adv-x="254" 
d="M133.75 474.5l9.75 63c30.75 -0.25 34.75 21.25 36.75 31.75l3.25 18h-11.25c-14.25 0 -24.5 8.25 -21.5 25.75l16 100.25c3 18.5 13.25 27.75 29.75 27.75h97.25c18.5 0 22.75 -12.5 20.5 -27.75l-23.5 -144.75c-20 -125 -157 -94 -157 -94z" />
    <glyph glyph-name="quotesinglbase" unicode="&#x201a;" horiz-adv-x="254" 
d="M40.75 -113l9.75 62.75c30.75 -0.25 34.75 21.5 36.75 32l3.25 18h-11.25c-14.25 0 -24.5 8.25 -21.5 25.75l16 100.25c3 18.5 13.25 27.75 29.75 27.75h97.25c18.5 0 22.75 -12.5 20.5 -27.75l-23.5 -144.75c-20 -125 -157 -94 -157 -94z" />
    <glyph glyph-name="quotedblleft" unicode="&#x201c;" horiz-adv-x="427" 
d="M128 497.5l22.5 144.75c20 125 157 93.75 157 93.75l-9.5 -62.75c-30.75 0.25 -35 -21.25 -37 -31.75l-2.5 -18.25h11.25c14.25 0 24.5 -8 21.5 -25.5l-15.75 -100.25c-3 -18.5 -14.25 -27.75 -30.75 -27.75h-97.25c-18.5 0 -21.75 12.5 -19.5 27.75zM311.25 497.5
l22.5 144.75c20 125 157 93.75 157 93.75l-9.5 -62.75c-30.75 0.25 -35 -21.25 -37 -31.75l-2.5 -18.25h11.25c14.25 0 24.5 -8 21.5 -25.5l-15.75 -100.25c-3 -18.5 -14.25 -27.75 -30.75 -27.75h-97.25c-18.5 0 -21.75 12.5 -19.5 27.75z" />
    <glyph glyph-name="quotedblright" unicode="&#x201d;" horiz-adv-x="427" 
d="M128.75 473l9.75 63c30.75 -0.25 34.75 21.25 36.75 31.75l3.25 18h-11.25c-14.25 0 -24.5 8.25 -21.5 25.75l16 100.25c3 18.5 13.25 27.75 29.75 27.75h97.25c18.5 0 22.75 -12.5 20.5 -27.75l-23.5 -144.75c-20 -125 -157 -94 -157 -94zM312 473l9.75 63
c30.75 -0.25 34.75 21.25 36.75 31.75l3.25 18h-11.25c-14.25 0 -24.5 8.25 -21.5 25.75l16 100.25c3 18.5 13.25 27.75 29.75 27.75h97.25c18.5 0 22.75 -12.5 20.5 -27.75l-23.5 -144.75c-20 -125 -157 -94 -157 -94z" />
    <glyph glyph-name="quotedblbase" unicode="&#x201e;" horiz-adv-x="426" 
d="M35.75 -112.75l9.75 62.75c30.75 -0.25 34.75 21.5 36.75 32l3.25 18h-11.25c-14.25 0 -24.5 8.25 -21.5 25.75l16 100.25c3 18.5 13.25 27.75 29.75 27.75h97.25c18.5 0 22.75 -12.5 20.5 -27.75l-23.5 -144.75c-20 -125 -157 -94 -157 -94zM219 -112.75l9.75 62.75
c30.75 -0.25 34.75 21.5 36.75 32l3.25 18h-11.25c-14.25 0 -24.5 8.25 -21.5 25.75l16 100.25c3 18.5 13.25 27.75 29.75 27.75h97.25c18.5 0 22.75 -12.5 20.5 -27.75l-23.5 -144.75c-20 -125 -157 -94 -157 -94z" />
    <glyph glyph-name="zerosuperior" unicode="&#x2070;" horiz-adv-x="434" 
d="M60.5 478.5l36.25 232.5c13.75 85.5 59.75 128 144.75 128h118.5c97.5 0 130.75 -56.5 119.75 -123.5l-37 -237c-13.5 -83.25 -55 -123.5 -137.75 -123.5h-118.5c-80.25 0 -139.5 39.75 -126 123.5zM189.5 508c-5.5 -35.75 13 -39.25 36.5 -39.25h48.25
c28 0 43 5.75 48.25 38.5l32.25 179.5c5.25 29 -5.25 38.5 -32 38.5h-55.75c-35 0 -41 -15 -45.25 -38.5z" />
    <glyph glyph-name="foursuperior" unicode="&#x2074;" horiz-adv-x="470" 
d="M97.75 500l211.5 339h133l-167.75 -277h90.75l15.25 95.5l30.75 50.25h97.75l-23.25 -145.75h44.5l-15.5 -97l-49.5 -19l-12.25 -89.25h-120.75l14.75 88.5h-227.5z" />
    <glyph glyph-name="fivesuperior" unicode="&#x2075;" horiz-adv-x="415" 
d="M73.75 368.75l15.5 99h184.75c36.5 0 45.75 8.75 48.5 34.25l3 25.25c2.25 18.25 1.5 35.75 -31.25 35.75h-49.5c-22 0 -33.25 -8.75 -37 -29.5h-107l63.5 305.5h315.25l-18.25 -113.75h-198.75l-15 -70.5c31.75 20.75 72.25 18.25 105.75 16
c90.5 -6 104.75 -79.75 97.5 -135l-10.25 -73.75c-9.75 -93.5 -83 -110.5 -150.75 -110.25c-85.5 0.25 -126.5 0.5 -216 17z" />
    <glyph glyph-name="sixsuperior" unicode="&#x2076;" horiz-adv-x="408" 
d="M87 620.25c29 182 88.75 215 151.75 221.75c72.75 9 171.25 -0.75 240.25 -13.5l-15.5 -95.75h-168c-63.5 0 -70 -46.25 -77 -88.5c34.25 12 68.75 15.25 123.5 15.5c98.75 0.25 120 -66.5 109.25 -132.5l-11 -69.25c-13.25 -84.75 -68 -102.75 -149 -102.75h-87.5
c-81.75 0 -149.5 58.25 -116.75 265zM204 559.5c-7.25 -47.25 -6 -90.5 42 -90.5h38.5c24.75 0 35.5 6.75 38.5 29.25l4.75 30.25c3.75 24.75 -0.25 31 -26.5 31h-97.25z" />
    <glyph glyph-name="sevensuperior" unicode="&#x2077;" horiz-adv-x="440" 
d="M106 725.75l18.25 113.75h362.25l23.5 -52l-251.5 -432.25h-136.75l216 370.5h-231.75z" />
    <glyph glyph-name="eightsuperior" unicode="&#x2078;" horiz-adv-x="431" 
d="M110.75 479.75l6.25 40.75c5.75 36.75 30.25 59.5 69.25 66c-48.75 24 -47 69.75 -41.25 108l7 43c15 93.5 81 105.75 154 105.75h113.25c78 0 120.75 -43 108 -124.5l-5.25 -31.75c-2.75 -17 -18.25 -59.25 -67.75 -66.25c47 -10.25 45.75 -75.25 41 -104l-8.25 -52.75
c-16.25 -105.25 -77.25 -109.25 -146 -109.25h-112.75c-123 0 -124.75 80.25 -117.5 125zM239 492c-3.5 -21.5 3.5 -29.25 32.5 -29.25h53.75c28.75 0 36.5 9.5 39.25 29.25l4.75 28.25c3 19 -2.75 31 -29.5 31h-56c-28.5 0 -36.75 -10.5 -39.75 -31zM269.5 683.5
c-4 -25.25 8.25 -30.25 31 -30.25h54c33.5 0 37.75 13.25 40.25 30.25l3.5 19.25c5 30 -10 32.75 -31.5 32.75h-51.75c-25.5 0 -37.25 -4 -42 -32.75z" />
    <glyph glyph-name="ninesuperior" unicode="&#x2079;" horiz-adv-x="443" 
d="M99.75 362.75l15.5 96.5h168c63.5 0 70.75 47.75 78.5 93c-34.25 -12 -68.75 -15.25 -123.5 -15.5c-99.5 -0.25 -118.5 72.5 -107.75 140l8.75 60.25c12.5 86.25 66.5 111 147.5 109.5l94.25 -1.5c84.75 0 144.5 -68 111 -279.25c-29.75 -185.75 -88.25 -209 -152 -216.5
c-72.75 -9 -175 0.25 -240.25 13.5zM254.25 678.5c-4.5 -26.25 -1.25 -33.25 25 -33.25h97.25c8 51 5 87.5 -43 87.5h-37.75c-24.75 0 -34 -7.5 -37.75 -31.5z" />
    <glyph glyph-name="zeroinferior" unicode="&#x2080;" horiz-adv-x="457" 
d="M90.75 -77.5l36.25 232.5c13.75 85.5 59.75 128 144.75 128h118.5c97.5 0 130.75 -56.5 119.75 -123.5l-37 -237c-13.5 -83.25 -55 -123.5 -137.75 -123.5h-118.5c-80.25 0 -139.5 39.75 -126 123.5zM219.75 -48c-5.5 -35.75 13 -39.25 36.5 -39.25h48.25
c28 0 43 5.75 48.25 38.5l32.25 179.5c5.25 29 -5.25 38.5 -32 38.5h-55.75c-35 0 -41 -15 -45.25 -38.5z" />
    <glyph glyph-name="oneinferior" unicode="&#x2081;" horiz-adv-x="284" 
d="M25.75 140.5l13 85.5c20 0 86.5 30.25 110.5 58h123l-76.75 -484.75h-125l58.25 359.5c-25.25 -19.75 -83.75 -18.25 -103 -18.25z" />
    <glyph glyph-name="twoinferior" unicode="&#x2082;" horiz-adv-x="442" 
d="M35.5 -200.75l17.25 109c63.25 37.5 251.75 157.75 261.5 219c6.5 40.25 -14 49.25 -69 49.25h-154c-0.5 0 15 93.75 15.25 93.5c61 11.75 109.25 20.25 202.25 20.25c104.5 0 145.5 -82.75 133 -160c-16 -103.5 -125 -182.75 -171.25 -217.25h135.75l-18.25 -113.75
h-352.5z" />
    <glyph glyph-name="threeinferior" unicode="&#x2083;" horiz-adv-x="398" 
d="M-6.75 -185.25l15.25 93.25c8 0 154 0.25 154 0.25c48.5 0 68 5 72 33.25l1.75 9.5c4.25 29.25 -16.75 34.25 -57.75 36l-116.25 4.25l15.5 101.25l119 4.5c45.75 2 65.5 6.75 69.25 33.25l0.75 8.5c5.5 28.5 -18.75 33 -58.25 33h-162.75l14.5 92.5
c63.75 22.25 143.5 22.75 224 21c77 -1 121.75 -57 109.75 -131.25l-4.5 -28.25c-8 -48.5 -32.75 -79.5 -73.5 -86.5c42 -13.25 50.5 -61.5 43 -109l-4 -22c-12.5 -78.5 -64.25 -114 -153.25 -113.75c-78.5 0 -152.25 -2 -208.5 20.25z" />
    <glyph glyph-name="fourinferior" unicode="&#x2084;" horiz-adv-x="437" 
d="M-5 -56l211.5 339h133l-167.75 -277h90.75l15.25 95.5l30.75 50.25h97.75l-23.25 -145.75h44.5l-15.5 -97l-49.5 -19l-12.25 -89.25h-120.75l14.75 88.5h-227.5z" />
    <glyph glyph-name="fiveinferior" unicode="&#x2085;" horiz-adv-x="414" 
d="M1.75 -187.25l15.5 99h184.75c36.5 0 45.75 8.75 48.5 34.25l3 25.25c2.25 18.25 1.5 35.75 -31.25 35.75h-49.5c-22 0 -33.25 -8.75 -37 -29.5h-107l63.5 305.5h315.25l-18.25 -113.75h-198.75l-15 -70.5c31.75 20.75 72.25 18.25 105.75 16
c90.5 -6 104.75 -79.75 97.5 -135l-10.25 -73.75c-9.75 -93.5 -83 -110.5 -150.75 -110.25c-85.5 0.25 -126.5 0.5 -216 17z" />
    <glyph glyph-name="sixinferior" unicode="&#x2086;" horiz-adv-x="408" 
d="M15 64.25c29 182 88.75 215 151.75 221.75c72.75 9 173.75 -0.75 240.25 -13.5l-15.5 -95.75h-168c-63.5 0 -70 -46.25 -77 -88.5c34.25 12 68.75 15.25 123.5 15.5c98.75 0.25 120 -66.5 109.25 -132.5l-11 -69.25c-13.25 -84.75 -68 -102.75 -149 -102.75h-87.5
c-81.75 0 -149.5 58.25 -116.75 265zM132 3.5c-7.25 -47.25 -6 -90.5 42 -90.5h38.5c24.75 0 35.5 6.75 38.5 29.25l4.75 30.25c3.75 24.75 -0.25 31 -26.5 31h-97.25z" />
    <glyph glyph-name="seveninferior" unicode="&#x2087;" horiz-adv-x="440" 
d="M34 169.75l18.25 113.75h362.25l23.5 -52l-251.5 -432.25h-136.75l216 370.5h-231.75z" />
    <glyph glyph-name="eightinferior" unicode="&#x2088;" horiz-adv-x="431" 
d="M38.75 -76.25l6.25 40.75c5.75 36.75 30.25 59.5 69.25 66c-48.75 24 -47 69.75 -41.25 108l7 43c15 93.5 81 105.75 154 105.75h113.25c78 0 120.75 -43 108 -124.5l-5.25 -31.75c-2.75 -17 -18.25 -59.25 -67.75 -66.25c47 -10.25 45.75 -75.25 41 -104l-8.25 -52.75
c-16.25 -105.25 -77.25 -109.25 -146 -109.25h-112.75c-123 0 -124.75 80.25 -117.5 125zM167 -64c-3.5 -21.5 3.5 -29.25 32.5 -29.25h53.75c28.75 0 36.5 9.5 39.25 29.25l4.75 28.25c3 19 -2.75 31 -29.5 31h-56c-28.5 0 -36.75 -10.5 -39.75 -31zM197.5 127.5
c-4 -25.25 8.25 -30.25 31 -30.25h54c33.5 0 37.75 13.25 40.25 30.25l3.5 19.25c5 30 -10 32.75 -31.5 32.75h-51.75c-25.5 0 -37.25 -4 -42 -32.75z" />
    <glyph glyph-name="nineinferior" unicode="&#x2089;" horiz-adv-x="442" 
d="M27.75 -193.25l15.5 96.5h168c63.5 0 70.75 47.75 78.5 93c-34.25 -12 -68.75 -15.25 -123.5 -15.5c-99.5 -0.25 -118.5 72.5 -107.75 140l8.75 60.25c12.5 86.25 66.5 111 147.5 109.5l94.25 -1.5c84.75 0 144.5 -68 111 -279.25
c-29.75 -185.75 -88.25 -209 -152 -216.5c-72.75 -9 -176.75 0.25 -240.25 13.5zM182.25 122.5c-4.5 -26.25 -1.25 -33.25 25 -33.25h97.25c8 51 5 87.5 -43 87.5h-37.75c-24.75 0 -34 -7.5 -37.75 -31.5z" />
    <glyph glyph-name="zero.oldstyle" horiz-adv-x="610" 
d="M74.75 184.5l41.5 255.5c20.25 126.25 82.75 192 203.75 192h164c154 0 182 -89.75 166.75 -184.5l-43 -263c-19 -119 -78.25 -184.5 -195.25 -184.5h-164c-120.25 0 -193.5 64.5 -173.75 184.5zM244 215.25c-10.25 -64.75 27.75 -66.25 56.25 -66.25h72.5
c40.75 0 67.25 11.5 76.25 65.5l32.5 203c7.5 48.75 -9.5 65.5 -48.25 65.5h-83.75c-56.5 0 -69.75 -44.25 -73 -65.5z" />
    <glyph glyph-name="one.oldstyle" horiz-adv-x="367" 
d="M71.75 445.25l16.25 105.5c25 0 109.25 40.75 145.25 82l162.5 -0.75l-91.75 -632h-162.5l69 471.25c-38.25 -26.5 -114.75 -26 -138.75 -26z" />
    <glyph glyph-name="two.oldstyle" horiz-adv-x="588" 
d="M34 0l23 143c114.75 51 389.25 169 404 262c10.5 64 -16 79.25 -100.75 78.75c-12.5 0 -243.5 -0.25 -243.5 -0.25l19.75 122.5c89.25 17 162.75 27.5 300.75 27.5c157.25 0 210.25 -102 191.75 -229c-20.25 -147.5 -164 -222.5 -239.5 -255.5h186l-24 -149h-517.5z" />
    <glyph glyph-name="three.oldstyle" horiz-adv-x="584" 
d="M34.25 -77.5l20 122h238c70.5 0 102.25 7.25 110.25 59.25l3.25 22.25c9.25 59.5 -23.75 61.25 -84.5 64.75l-182 8.5l22 133l184 8.5c69 3 98.75 11.75 106.5 61.5l3.5 23.25c9.75 57.25 -35 61 -87 61h-251l19 121c93 31 213.5 30 330.5 28
c106.5 -2 174.25 -82 156.25 -195l-8 -46.5c-12.25 -75 -47.25 -119 -102.25 -128.5c57.25 -18 68 -90.5 56 -166.5l-6.25 -36.5c-18.5 -118 -97.75 -168 -219.75 -168c-114 0 -225.5 -3 -308.5 28z" />
    <glyph glyph-name="four.oldstyle" horiz-adv-x="614" 
d="M27.5 124l318.5 508h179.25l-259.25 -429.5h141.75l24.75 152.25l42.25 77.25h134.5l-36.75 -229.5h67.5l-19.5 -126.5l-72 -26.5l-23 -147.5h-164.75l23 147.5h-334.25z" />
    <glyph glyph-name="five.oldstyle" horiz-adv-x="601" 
d="M42.25 -79.75l21 130h274c63.75 0 72.25 38.5 76 63l8 49.25c5 32 1.75 64.5 -48.25 64.5h-70.5c-33.75 0 -56 -15.75 -62 -52.5h-157l94.75 457.5h453l-24 -149h-293.25l-27.75 -137c26.5 16.75 55.25 21.25 74.25 22.75c32.25 2.5 73.5 0.5 90.25 -0.25
c109 -7.5 151.25 -92.75 136.75 -197.25l-15.5 -112.5c-22 -137 -126 -161.25 -222.25 -162.5c-124.25 -1.75 -177.5 1 -307.5 24z" />
    <glyph glyph-name="six.oldstyle" horiz-adv-x="603" 
d="M104.75 399c42 265 139.75 324.75 228.75 335.25c102.5 12 228.5 -3.75 320.75 -20.5l-19.5 -124.75h-236.5c-89.75 0 -108.25 -83.75 -121 -159.5c51.75 16.75 102 20.75 183.5 21c143.25 0.5 162.5 -98.25 147.5 -194l-16.25 -108.5
c-20.25 -125.5 -99.25 -148.75 -209.75 -148.75h-140.25c-115.25 0 -187.25 84.75 -137.25 399.75zM257.75 309c-17.25 -108 -11 -161.5 62.75 -161.5h53.75c33 0 56 9.75 63.25 55.25l7.75 46.25c7.75 47.5 2 60 -41.5 60h-146z" />
    <glyph glyph-name="seven.oldstyle" horiz-adv-x="568" 
d="M88 483l24 149h475.5l30.25 -70.5l-342.25 -661.5h-176.5l305 583h-316z" />
    <glyph glyph-name="eight.oldstyle" horiz-adv-x="618" 
d="M100.75 187.75l9.75 64.25c9 56 43 92.75 97.75 100.75c-67.5 33.25 -65.25 103.5 -55.75 161.25l10.25 65c21.75 138.75 112.5 158 218 158h153.5c113.25 0 169.25 -65.25 150 -188.75l-8 -49.25c-3.5 -25.75 -27 -91 -95 -101.5
c63.75 -14.25 61.75 -110.75 54.5 -153.75l-12.75 -81.5c-25.25 -157.75 -114.75 -162.25 -206.75 -162.25h-152.5c-184.5 0 -172 130.5 -163 187.75zM268.25 195.25c-6.75 -40.75 7.25 -53.75 51.75 -53.75h75.25c42.75 0 61.25 17.75 66.5 53.75l8.75 56.25
c5.25 33.75 -5.75 55.5 -46 55.5h-80.25c-43 0 -61.75 -19.75 -67.25 -55.5zM315.5 494c-7.25 -46 15.5 -54 49.5 -54h78.75c51.25 0 60 22.5 65.25 54l5.75 39.5c9.25 56 -13.25 62 -47.25 62h-75.5c-43.25 0 -62.75 -10 -70.75 -62z" />
    <glyph glyph-name="nine.oldstyle" horiz-adv-x="594" 
d="M67.75 -81.75l19.5 124.75h236.5c89.75 0 109 83.75 121.75 159.5c-51.75 -16.75 -102.75 -20.75 -184.25 -21c-143.25 -0.5 -161 105.75 -146 201.5l14.75 93.5c19.5 125.5 97.75 156.25 208.25 156.25h140.25c119.75 0 188 -99.75 138 -414.75
c-42 -265 -138.25 -309.75 -227.25 -320.25c-102.5 -12 -229.25 3.75 -321.5 20.5zM277.5 383c-7.75 -47.5 -2.75 -60 40.75 -60h146c17.25 108 10.25 161.5 -63.5 161.5h-53c-33 0 -56 -9.75 -63.25 -55.25z" />
    <glyph glyph-name="Euro" unicode="&#x20ac;" horiz-adv-x="699" 
d="M51.25 247.5l12.25 77l74.25 7l8.5 56l-71.25 8l11.5 73l74 9c11 72 46.5 262.5 290.5 262.5c52 0 184 -10.25 261.75 -37.5l-18.75 -119s-138.5 15 -220.5 15c-128 0 -136.25 -45.75 -149 -121l233 -7l-12.25 -76l-235 -7l-8.5 -56l232.75 -7l-12.25 -77
s-238 -5 -235 -7c-16.75 -104.5 45.25 -112.5 112.25 -112.5c88.75 0 230.25 24.5 230.25 24.5l-18.75 -116c-76.75 -35 -165 -42.5 -278 -42.5c-77 0 -245.75 20.5 -209.75 246.5z" />
    <glyph glyph-name="endash" unicode="&#x2013;" horiz-adv-x="452" 
d="M59.25 220l21.75 135h473l-21.75 -135h-473z" />
    <glyph glyph-name="emdash" unicode="&#x2014;" horiz-adv-x="736" 
d="M62 222l21.75 135h696l-21.75 -135h-696z" />
    <glyph glyph-name="breve" unicode="&#x2d8;" horiz-adv-x="247" 
d="M55.25 644h61.75c-3.75 -33.25 13 -52.25 45.25 -52.25c39.25 -0.25 57 18.5 60.5 52.25h61.75c-7.25 -71.25 -52.5 -112.5 -123 -112.5c-65 0 -112.25 43 -106.25 112.5z" />
    <glyph glyph-name="ogonek" unicode="&#x2db;" horiz-adv-x="207" 
d="M215.25 0h61.5c-87 -56.75 -54.75 -111.5 -6.25 -106l-13 -82.5c-107.5 -29.5 -193.25 114 -42.25 188.5z" />
    <glyph glyph-name="caron" unicode="&#x2c7;" horiz-adv-x="374" 
d="M16.25 668.5h99.5l40.5 -59l63 59h111.5l-126 -137.5h-112.25z" />
    <glyph glyph-name="hungarumlaut" unicode="&#x2dd;" horiz-adv-x="469" 
d="M139 531l107 140.5h132.5l-140.5 -140.5h-99zM302.5 531l107 140.5h132.5l-140.5 -140.5h-99z" />
    <glyph glyph-name="dotaccent" unicode="&#x2d9;" horiz-adv-x="147" 
d="M97.25 541l13.5 84c2 15 12 25 28 25h80c15 0 21 -11 19 -25l-13.5 -84c-2 -15 -12 -23 -26 -23h-80c-14 0 -23 9 -21 23z" />
    <glyph glyph-name="Aogonek" unicode="&#x104;" horiz-adv-x="722" 
d="M605.25 0.75h61.5c-87 -56.75 -54.75 -111.5 -6.25 -106l-13 -82.5c-107.5 -29.5 -193.25 114 -42.25 188.5zM55.5 0l355 732h190.25l114.75 -732h-168l-25.5 147h-215.25l-69.75 -147h-181.5zM369 289.25h139.75l-33 234.5z" />
    <glyph glyph-name="Lcaron" unicode="&#x13d;" horiz-adv-x="527" 
d="M76.5 148.5l92.75 583.5h163.75l-84.25 -531c-8 -53 25.25 -52 54.25 -52h231l-23.75 -149h-299c-85.002 0 -152 40.25 -134.75 148.5zM374.25 571l10 134l10.25 67h104l-10.25 -67l-31 -134h-83z" />
    <glyph glyph-name="Sacute" unicode="&#x15a;" horiz-adv-x="582" 
d="M358.75 798.75l107 140.5h132.5l-140.5 -140.5h-99zM64.75 23.5l20.25 128.25c40 -4.5 154 -10.75 247 -10.75c42.5 0 78.25 9.5 85.25 53.25l4.25 29c6 36 0.5 57.5 -51.5 57.5h-87.25c-182.5 0 -177.877 151.664 -170.25 205.75l10.75 79.5
c21.25 147.75 118.75 170.75 229.75 172c124.25 2.5 216.5 -8.5 282.5 -30.75l-20.25 -128c-59.75 5.25 -184.25 9.75 -233.75 9.75c-59.5 1 -86.75 -3.5 -95.75 -59l-4 -24.75c-8 -50 8 -60.5 61.75 -60.5h90.25c144.75 0 163.25 -121.5 152.5 -202l-4.25 -64.25
c-11.25 -179 -148.5 -186.5 -243.25 -186.5c-127.525 0 -194 4.25 -274 31.5z" />
    <glyph glyph-name="Scaron" unicode="&#x160;" horiz-adv-x="582" 
d="M277.956 936.344h99.5l40.5 -59l63 59h111.5l-126 -137.5h-112.25zM67.75 23.5l20.25 128.25c40 -4.5 154 -10.75 247 -10.75c42.5 0 78.25 9.5 85.25 53.25l4.25 29c6 36 0.5 57.5 -51.5 57.5h-87.25c-182.5 0 -177.877 151.664 -170.25 205.75l10.75 79.5
c21.25 147.75 118.75 170.75 229.75 172c124.25 2.5 216.5 -8.5 282.5 -30.75l-20.25 -128c-59.75 5.25 -184.25 9.75 -233.75 9.75c-59.5 1 -86.75 -3.5 -95.75 -59l-4 -24.75c-8 -50 8 -60.5 61.75 -60.5h90.25c144.75 0 163.25 -121.5 152.5 -202l-4.25 -64.25
c-11.25 -179 -148.5 -186.5 -243.25 -186.5c-127.525 0 -194 4.25 -274 31.5z" />
    <glyph glyph-name="Scedilla" unicode="&#x15e;" horiz-adv-x="582" 
d="M183.75 -188.5l11.25 68.5l43 15c30 12 32.5 22 38.5 60h104.5c-16 -102 -49.75 -143.5 -138.75 -143.5h-58.5zM67.75 23.5l20.25 128.25c40 -4.5 154 -10.75 247 -10.75c42.5 0 78.25 9.5 85.25 53.25l4.25 29c6 36 0.5 57.5 -51.5 57.5h-87.25
c-182.5 0 -177.877 151.664 -170.25 205.75l10.75 79.5c21.25 147.75 118.75 170.75 229.75 172c124.25 2.5 216.5 -8.5 282.5 -30.75l-20.25 -128c-59.75 5.25 -184.25 9.75 -233.75 9.75c-59.5 1 -86.75 -3.5 -95.75 -59l-4 -24.75c-8 -50 8 -60.5 61.75 -60.5h90.25
c144.75 0 163.25 -121.5 152.5 -202l-4.25 -64.25c-11.25 -179 -148.5 -186.5 -243.25 -186.5c-127.525 0 -194 4.25 -274 31.5z" />
    <glyph glyph-name="Tcaron" unicode="&#x164;" horiz-adv-x="592" 
d="M290.765 934.5h99.5l40.5 -59l63 59h111.5l-126 -137.5h-112.25zM115.75 583l24 149h553l-24 -149h-197.5l-92 -583h-164l92 583h-191.5z" />
    <glyph glyph-name="Zacute" unicode="&#x179;" horiz-adv-x="555" 
d="M380 795.75l107 140.5h132.5l-140.5 -140.5h-99zM49.75 0l24 149l377.75 434h-309.75l24 149h508l-24 -149l-363.5 -434h295.5l-24 -149h-508z" />
    <glyph glyph-name="Zcaron" unicode="&#x17d;" horiz-adv-x="555" 
d="M268.64 934.5h99.5l40.5 -59l63 59h111.5l-126 -137.5h-112.25zM23.75 0l24 149l377.75 434h-309.75l24 149h508l-24 -149l-363.5 -434h295.5l-24 -149h-508z" />
    <glyph glyph-name="Zdotaccent" unicode="&#x17b;" horiz-adv-x="555" 
d="M344.221 820l13.5 84c2 15 12 25 28 25h80c15 0 21 -11 19 -25l-13.5 -84c-2 -15 -12 -23 -26 -23h-80c-14 0 -23 9 -21 23zM23.75 0l24 149l377.75 434h-309.75l24 149h508l-24 -149l-363.5 -434h295.5l-24 -149h-508z" />
    <glyph glyph-name="aogonek" unicode="&#x105;" horiz-adv-x="523" 
d="M410 0.75h61.5c-87 -56.75 -54.75 -111.5 -6.25 -106l-13 -82.5c-107.5 -29.5 -193.25 114 -42.25 188.5zM68.25 303.5c44.25 220.75 164.75 235 263.25 237.5c79 2.25 194.75 -13 245.75 -62l-70 -477.5h-128l-25.25 52.5c-25.25 -37.75 -92.5 -59.5 -151.5 -59.5
c-99.75 0 -176.5 98 -134.25 309zM228.5 278.75c-13 -87 -13.25 -149.5 43.75 -149.5c50.75 0 77.25 19 96.5 51l33.25 226.75c-21 9.25 -57.5 12.75 -82.75 7c-38 -8.25 -74 -22.25 -90.75 -135.25z" />
    <glyph glyph-name="lcaron" unicode="&#x13e;" horiz-adv-x="390" 
d="M68.75 189l94 594h164l-89.5 -564c-12.25 -76.5 2 -88.75 26.75 -100c0 0 47.75 -20.25 53.25 -20.25l-15.75 -98.75h-105.5c-92 0 -149.25 48.25 -127.25 189zM366.75 580.75l10 134l11 67h104l-11 -67l-31 -134h-83z" />
    <glyph glyph-name="sacute" unicode="&#x15b;" horiz-adv-x="509" 
d="M297 599.5l107 140.5h132.5l-140.5 -140.5h-99zM57.25 26.25l15.75 99.25h241.75c12.75 0 28.5 3.75 32.5 26.25l3 17.25c3 17.75 -1.5 27.25 -24.5 27.25h-108.25c-94 0 -148.5 59.5 -132.5 161.75l8 47.25c13.25 83 58.25 132 161.25 132c120.25 0 253.75 -0.5 286 -31
l-15.75 -99.75h-232.5c-25.75 0 -34.25 -9.75 -37.25 -28.25l-2.75 -17.25c-5 -28.75 12.75 -26.25 28.75 -26.25h112.5c106.5 0 137.5 -77.25 124.75 -155.25l-9 -60c-17 -109 -91 -125.75 -153 -125.75c-119.5 0 -267 0.75 -298.75 32.5z" />
    <glyph glyph-name="scaron" unicode="&#x161;" horiz-adv-x="509" 
d="M206 737h99.5l40.5 -59l63 59h111.5l-126 -137.5h-112.25zM52.75 26.25l15.75 99.25h241.75c12.75 0 28.5 3.75 32.5 26.25l3 17.25c3 17.75 -1.5 27.25 -24.5 27.25h-108.25c-94 0 -148.5 59.5 -132.5 161.75l8 47.25c13.25 83 58.25 132 161.25 132
c120.25 0 253.75 -0.5 286 -31l-15.75 -99.75h-232.5c-25.75 0 -34.25 -9.75 -37.25 -28.25l-2.75 -17.25c-5 -28.75 12.75 -26.25 28.75 -26.25h112.5c106.5 0 137.5 -77.25 124.75 -155.25l-9 -60c-17 -109 -91 -125.75 -153 -125.75c-119.5 0 -267 0.75 -298.75 32.5z
" />
    <glyph glyph-name="scedilla" unicode="&#x15f;" horiz-adv-x="509" 
d="M139.5 -182.5l11.25 68.5l43 15c30 12 32.5 22 38.5 60h104.5c-16 -102 -49.75 -143.5 -138.75 -143.5h-58.5zM52.75 26.25l15.75 99.25h241.75c12.75 0 28.5 3.75 32.5 26.25l3 17.25c3 17.75 -1.5 27.25 -24.5 27.25h-108.25c-94 0 -148.5 59.5 -132.5 161.75l8 47.25
c13.25 83 58.25 132 161.25 132c120.25 0 253.75 -0.5 286 -31l-15.75 -99.75h-232.5c-25.75 0 -34.25 -9.75 -37.25 -28.25l-2.75 -17.25c-5 -28.75 12.75 -26.25 28.75 -26.25h112.5c106.5 0 137.5 -77.25 124.75 -155.25l-9 -60c-17 -109 -91 -125.75 -153 -125.75
c-119.5 0 -267 0.75 -298.75 32.5z" />
    <glyph glyph-name="tcaron" unicode="&#x165;" horiz-adv-x="391" 
d="M71.5 413l13.5 86l86.25 33l49.25 148h138.5l-23.75 -148h105.5l-18.75 -119h-105.5l-30.75 -193c-12 -78 1 -90.25 25.75 -101.5c0 0 47.75 -20.25 53.25 -20.25l-15.5 -98.75h-107c-80.75 0 -147 49.75 -125 190.5l35.25 223h-81zM406 599.75l10.5 134l10.5 67h104.25
l-10.75 -67l-31.5 -134h-83z" />
    <glyph glyph-name="zacute" unicode="&#x17a;" horiz-adv-x="480" 
d="M297.25 597l107 140.5h132.5l-140.5 -140.5h-99zM47 1l20.25 132.5l261 263.5h-232.75l20.5 134h441l-20.5 -134l-247.5 -262h204.75c1 -1 -20.75 -134 -20.75 -134h-426z" />
    <glyph glyph-name="zcaron" unicode="&#x17e;" horiz-adv-x="480" 
d="M200.015 735.75h99.5l40.5 -59l63 59h111.5l-126 -137.5h-112.25zM35.25 1l20.25 132.5l261 263.5h-232.75l20.5 134h441l-20.5 -134l-247.5 -262h204.75c1 -1 -20.75 -134 -20.75 -134h-426z" />
    <glyph glyph-name="zdotaccent" unicode="&#x17c;" horiz-adv-x="480" 
d="M275.596 621.25l13.5 84c2 15 12 25 28 25h80c15 0 21 -11 19 -25l-13.5 -84c-2 -15 -12 -23 -26 -23h-80c-14 0 -23 9 -21 23zM35.25 1l20.25 132.5l261 263.5h-232.75l20.5 134h441l-20.5 -134l-247.5 -262h204.75c1 -1 -20.75 -134 -20.75 -134h-426z" />
    <glyph glyph-name="Racute" unicode="&#x154;" horiz-adv-x="601" 
d="M359.74 793.25l107 140.5h132.5l-140.5 -140.5h-99zM42.75 0l116 732h308.25c118.75 0 199.75 -71.75 173.75 -250c-25.75 -178.5 -109 -193.25 -147 -198.75l103 -283.25h-186l-81 275.25l-78.5 6.5l-44.5 -281.75h-164zM272 407.25h123.25c52 0 72.25 27.5 80.5 93.5
c8 66 -4 88.75 -50 88.75h-124.5z" />
    <glyph glyph-name="Abreve" unicode="&#x102;" horiz-adv-x="698" 
d="M394.006 909.5h61.75c-3.75 -33.25 13 -52.25 45.25 -52.25c39.25 -0.25 57 18.5 60.5 52.25h61.75c-7.25 -71.25 -52.5 -112.5 -123 -112.5c-65 0 -112.25 43 -106.25 112.5zM30 0l355 732h190.25l114.75 -732h-168l-25.5 147h-215.25l-69.75 -147h-181.5zM343.5 289.25
h139.75l-33 234.5z" />
    <glyph glyph-name="Lacute" unicode="&#x139;" horiz-adv-x="527" 
d="M159.25 792l107 140.5h132.5l-140.5 -140.5h-99zM30.25 148.5l92.75 583.5h163.75l-84.25 -531c-8 -53 25.25 -52 54.25 -52h231l-23.75 -149h-299c-85 0 -152 40.25 -134.75 148.5z" />
    <glyph glyph-name="Cacute" unicode="&#x106;" horiz-adv-x="569" 
d="M406.042 800l107 140.5h132.5l-140.5 -140.5h-99zM94.75 391.25c36.75 233.25 110.25 348.75 309.25 348.75c121 0 175.75 -10.25 253.5 -37.5l-20.25 -128c-6.25 0.75 -109.75 17 -210.75 16.5c-76.75 -0.25 -131.75 4 -167.75 -225
c-26.5 -163.5 -9.75 -220.75 95.25 -223c89.75 -0.75 181.5 6.25 217 8.75l-20 -128c-70.75 -25.25 -136.75 -32 -264 -29.75c-185.25 2.25 -227.75 170.25 -192.25 397.25z" />
    <glyph glyph-name="Ccaron" unicode="&#x10c;" horiz-adv-x="569" 
d="M326.317 937.5h99.5l40.5 -59l63 59h111.5l-126 -137.5h-112.25zM94.75 391.25c36.75 233.25 110.25 348.75 309.25 348.75c121 0 175.75 -10.25 253.5 -37.5l-20.25 -128c-6.25 0.75 -109.75 17 -210.75 16.5c-76.75 -0.25 -131.75 4 -167.75 -225
c-26.5 -163.5 -9.75 -220.75 95.25 -223c89.75 -0.75 181.5 6.25 217 8.75l-20 -128c-70.75 -25.25 -136.75 -32 -264 -29.75c-185.25 2.25 -227.75 170.25 -192.25 397.25z" />
    <glyph glyph-name="Eogonek" unicode="&#x118;" horiz-adv-x="556" 
d="M469.75 14h61.5c-87 -56.75 -54.75 -111.5 -6.25 -106l-13 -82.5c-107.5 -29.5 -193.25 114 -42.25 188.5zM73.75 160.5l66.25 419c21.25 132.5 110.75 153.5 196.5 152.5c0 0 220.25 -4 306.5 -16l-21.75 -136.75h-264.5c-51 0 -56.25 -29 -60.25 -56l-12.5 -80
l266.5 -10.75l-22 -135.5l-269.25 -9.25l-14 -86c-8.5 -53 25.25 -52 54.25 -52h254.5l-22 -135.75c-79.5 -10.5 -302.5 -17 -302.5 -17c-72.25 -2.75 -177.5 25.25 -155.75 163.5z" />
    <glyph glyph-name="Ecaron" unicode="&#x11a;" horiz-adv-x="558" 
d="M291.98 934.5h99.5l40.5 -59l63 59h111.5l-126 -137.5h-112.25zM72.5 160.5l66.25 419c21.25 132.5 110.75 153.5 196.5 152.5c0 0 220.25 -4 306.5 -16l-21.75 -136.75h-264.5c-51 0 -56.25 -29 -60.25 -56l-12.5 -80l266.5 -10.75l-22 -135.5l-269.25 -9.25l-14 -86
c-8.5 -53 25.25 -52 54.25 -52h254.5l-22 -135.75c-79.5 -10.5 -302.5 -17 -302.5 -17c-72.25 -2.75 -177.5 25.25 -155.75 163.5z" />
    <glyph glyph-name="Dcaron" unicode="&#x10e;" horiz-adv-x="651" 
d="M303.25 933.25h99.5l40.5 -59l63 59h111.5l-126 -137.5h-112.25zM57.75 0l116 731.75c0 0.25 290.25 0.25 305.25 0.25c205.5 0 228.5 -193 198.25 -391.5c-40 -263.25 -129 -340.5 -301.5 -340.5h-318zM244.25 142.25h127.75c80.5 0 119.5 78.75 142 221.75
c29.75 186.25 -3.5 226.5 -78.5 226.5h-120.25z" />
    <glyph glyph-name="Nacute" unicode="&#x143;" horiz-adv-x="672" 
d="M419.865 797l107 140.5h132.5l-140.5 -140.5h-99zM53.75 0l116 732h165l182.25 -432.75l67.75 432.75h164l-116 -732h-163l-184 425.25l-67 -425.25h-165z" />
    <glyph glyph-name="Ncaron" unicode="&#x147;" horiz-adv-x="672" 
d="M334.14 934.5h99.5l40.5 -59l63 59h111.5l-126 -137.5h-112.25zM53.75 0l116 732h165l182.25 -432.75l67.75 432.75h164l-116 -732h-163l-184 425.25l-67 -425.25h-165z" />
    <glyph glyph-name="Ohungarumlaut" unicode="&#x150;" horiz-adv-x="666" 
d="M332.667 797l107 140.5h132.5l-140.5 -140.5h-99zM496.167 797l107 140.5h132.5l-140.5 -140.5h-99zM99.25 379.75c54 343 185 357.25 354.75 357.25c173.25 0 294.25 -54.75 241.25 -394.75c-50.5 -323 -175.25 -346.25 -353.5 -346.25
c-175.5 0 -295.5 50.75 -242.5 383.75zM263.25 361c-28.25 -179 -11.75 -216 99.25 -216c100 0 140.25 37.5 168.75 216c32 202.25 1.25 227 -98 227s-137.25 -18 -170 -227z" />
    <glyph glyph-name="Rcaron" unicode="&#x158;" horiz-adv-x="601" 
d="M289.515 934.5h99.5l40.5 -59l63 59h111.5l-126 -137.5h-112.25zM51.75 0l116 732h308.25c118.75 0 199.75 -71.75 173.75 -250c-25.75 -178.5 -109 -193.25 -147 -198.75l103 -283.25h-186l-81 275.25l-78.5 6.5l-44.5 -281.75h-164zM281 407.25h123.25
c52 0 72.25 27.5 80.5 93.5c8 66 -4 88.75 -50 88.75h-124.5z" />
    <glyph glyph-name="Uring" unicode="&#x16e;" horiz-adv-x="653" 
d="M372.906 897.5c4.99707 57 53.5029 100.75 109.503 100.75s98.4941 -43.75 93.4971 -100.75c-4.99609 -57 -51.7314 -100.5 -107.731 -100.5s-100.266 43.5 -95.2686 100.5zM435.656 897.5c-2.15625 -21.75 14.0684 -38.25 35.8184 -38.25s39.5254 16.5 41.6816 38.25
c2.15527 21.75 -13.0469 39.25 -34.7969 39.25s-40.5479 -17.5 -42.7031 -39.25zM103.75 338l63.5 394h164.25l-65.75 -416.5c-18.75 -118 -11 -171.5 90.25 -171.5c99.25 0 125 59.5 142.5 171.5l65.75 416.5h165l-62 -439c-44 -278 -182.25 -298 -333.75 -298
c-143 0 -278.25 38 -229.75 343z" />
    <glyph glyph-name="Uhungarumlaut" unicode="&#x170;" horiz-adv-x="653" 
d="M327.49 797l107 140.5h132.5l-140.5 -140.5h-99zM490.99 797l107 140.5h132.5l-140.5 -140.5h-99zM103.75 338l63.5 394h164.25l-65.75 -416.5c-18.75 -118 -11 -171.5 90.25 -171.5c99.25 0 125 59.5 142.5 171.5l65.75 416.5h165l-62 -439
c-44 -278 -182.25 -298 -333.75 -298c-143 0 -278.25 38 -229.75 343z" />
    <glyph glyph-name="Tcommaaccent" unicode="&#x162;" horiz-adv-x="592" 
d="M124.25 -182l11.25 68.5l43 15c30 12 32.5 22 38.5 60h104.5c-16 -102 -49.75 -143.5 -138.75 -143.5h-58.5zM93.5 583l24 149h553l-24 -149h-197.5l-92 -583h-164l92 583h-191.5z" />
    <glyph glyph-name="racute" unicode="&#x155;" horiz-adv-x="414" 
d="M282 598.5l107 140.5h132.5l-140.5 -140.5h-99zM60.25 0l84 531h142l11 -67c34 35.75 87.5 72.25 147.75 72.25c20.75 0 38.75 -0.5 52.75 -5.75l-24.75 -157.75c-15 0.75 -47 1.5 -77.5 1.5c-50 0 -93.25 -5.25 -121.5 -59.5l-49.75 -314.75h-164z" />
    <glyph glyph-name="abreve" unicode="&#x103;" horiz-adv-x="544" 
d="M261.196 715.493h61.75c-3.75 -33.25 13 -52.25 45.25 -52.25c39.25 -0.25 57 18.5 60.5 52.25h61.75c-7.25 -71.25 -52.5 -112.5 -123 -112.5c-65 0 -112.25 43 -106.25 112.5zM73.75 303.5c44.25 220.75 164.75 235 263.25 237.5c79 2.25 194.75 -13 245.75 -62
l-70 -477.5h-128l-25.25 52.5c-25.25 -37.75 -92.5 -59.5 -151.5 -59.5c-99.75 0 -176.5 98 -134.25 309zM234 278.75c-13 -87 -13.25 -149.5 43.75 -149.5c50.75 0 77.25 19 96.5 51l33.25 226.75c-21 9.25 -57.5 12.75 -82.75 7c-38 -8.25 -74 -22.25 -90.75 -135.25z" />
    <glyph glyph-name="lacute" unicode="&#x13a;" horiz-adv-x="314" 
d="M197.25 843l107 140.5h132.5l-140.5 -140.5h-99zM61.25 189l94 594h164l-88.75 -564c-12.25 -76.5 2 -88.75 26.75 -100c0 0 47 -20.25 52.5 -20.25l-15.75 -98.75h-98c-95 0 -156.25 51 -134.75 189z" />
    <glyph glyph-name="cacute" unicode="&#x107;" horiz-adv-x="490" 
d="M306.25 598.75l107 140.5h132.5l-140.5 -140.5h-99zM75.25 288.5c35.75 219.25 117.25 251.75 217.25 251.75c52 0 170 -7.5 245.5 -34l-15.5 -99s-78.75 6.5 -167.75 6.5c-65.75 0 -91.75 -4.25 -116.5 -150.25c-21 -128.75 -0.25 -142.5 70 -142.5
c92 0 177.75 8.75 177.75 8.75l-15.75 -99.5c-76 -30.5 -141 -37.25 -260.75 -35.5c-99.75 1 -167.75 87.5 -134.25 293.75z" />
    <glyph glyph-name="ccaron" unicode="&#x10d;" horiz-adv-x="490" 
d="M225.317 736.25h99.5l40.5 -59l63 59h111.5l-126 -137.5h-112.25zM74.75 288.5c35.75 219.25 117.25 251.75 217.25 251.75c52 0 170 -7.5 245.5 -34l-15.5 -99s-78.75 6.5 -167.75 6.5c-65.75 0 -91.75 -4.25 -116.5 -150.25c-21 -128.75 -0.25 -142.5 70 -142.5
c92 0 177.75 8.75 177.75 8.75l-15.75 -99.5c-76 -30.5 -141 -37.25 -260.75 -35.5c-99.75 1 -167.75 87.5 -134.25 293.75z" />
    <glyph glyph-name="eogonek" unicode="&#x119;" horiz-adv-x="528" 
d="M435.5 22h61.5c-87 -56.75 -54.75 -111.5 -6.25 -106l-13 -82.5c-107.5 -29.5 -193.25 114 -42.25 188.5zM76 308c31 163 76.5 231.5 271.5 233c110.25 0.75 220.25 -28.75 214.25 -153c-10.75 -250.5 -293.5 -202.25 -330.5 -187.25
c-10.5 -65.5 9.25 -80.25 80.25 -80.5c53.5 -1.5 149.25 7.5 205.5 17.75l-20 -116c-78.75 -24.5 -165.5 -38 -286.75 -29c-127.25 8.25 -170.25 121 -134.25 315zM244.5 307.25c0 0 134 -28 148.75 54.5c7.5 41.75 -14 53.5 -58 52.75
c-71.25 -1.5 -80.75 -50.75 -90.75 -107.25z" />
    <glyph glyph-name="ecaron" unicode="&#x11b;" horiz-adv-x="528" 
d="M226.067 738.5h99.5l40.5 -59l63 59h111.5l-126 -137.5h-112.25zM75.5 308c31 163 76.5 231.5 271.5 233c110.25 0.75 220.25 -28.75 214.25 -153c-10.75 -250.5 -293.5 -202.25 -330.5 -187.25c-10.5 -65.5 9.25 -80.25 80.25 -80.5c53.5 -1.5 149.25 7.5 205.5 17.75
l-20 -116c-78.75 -24.5 -165.5 -38 -286.75 -29c-127.25 8.25 -170.25 121 -134.25 315zM244 307.25c0 0 134 -28 148.75 54.5c7.5 41.75 -14 53.5 -58 52.75c-71.25 -1.5 -80.75 -50.75 -90.75 -107.25z" />
    <glyph glyph-name="dcaron" unicode="&#x10f;" horiz-adv-x="746" 
d="M74 278.75c29 183.25 71 260.25 216.75 260.25c45 0 103 -11.75 142.75 -32.5l44.5 278.5h163.5l-124.25 -785h-137.75l-19 51.5c-40.25 -29.5 -91.75 -57.5 -153 -57.5c-124.25 0 -162.5 103.5 -133.5 284.75zM239.5 270.5c-18 -112.75 -2.5 -140.25 36 -140.25
c43 0 78.25 9.75 102.25 28l38.25 240.25c-22.5 12.75 -57.25 17.75 -95.25 17.75c-36 0 -61 -20.25 -81.25 -145.75zM678.5 580.5l10.25 134l10 67h104.25l-10.25 -67l-31.25 -134h-83z" />
    <glyph glyph-name="nacute" unicode="&#x144;" horiz-adv-x="552" 
d="M325.962 600l107 140.5h132.5l-140.5 -140.5h-99zM40.5 0l84 531h134.5l21 -54.5c45.25 32 88 63.5 169 63.5c130 0 142.75 -86.5 125.75 -192.5l-55.25 -347.5h-164l55.25 350.5c7.75 48 -7.5 63 -36.75 63c-47.75 0 -77.75 -12.5 -110.5 -42l-59 -371.5h-164z" />
    <glyph glyph-name="ncaron" unicode="&#x148;" horiz-adv-x="552" 
d="M240.738 737.5h99.5l40.5 -59l63 59h111.5l-126 -137.5h-112.25zM40.5 0l84 531h134.5l21 -54.5c45.25 32 88 63.5 169 63.5c130 0 142.75 -86.5 125.75 -192.5l-55.25 -347.5h-164l55.25 350.5c7.75 48 -7.5 63 -36.75 63c-47.75 0 -77.75 -12.5 -110.5 -42l-59 -371.5
h-164z" />
    <glyph glyph-name="ohungarumlaut" unicode="&#x151;" horiz-adv-x="555" 
d="M240.417 598.25l107 140.5h132.5l-140.5 -140.5h-99zM403.917 598.25l107 140.5h132.5l-140.5 -140.5h-99zM73.25 276.75c34 217 107 261.5 288.5 261.5s234.5 -94 202 -299c-31.5 -197 -97.5 -244.25 -284.5 -244.25c-183.25 0 -236 91.75 -206 281.75zM237.25 258
c-20 -121.75 -4.5 -136.5 59.5 -136.5c67.5 0 82 9.5 103 136.5c20.75 129 14 153.75 -57.25 153.75c-72.25 0 -84 -22.25 -105.25 -153.75z" />
    <glyph glyph-name="rcaron" unicode="&#x159;" horiz-adv-x="414" 
d="M176.594 736h99.5l40.5 -59l63 59h111.5l-126 -137.5h-112.25zM40.5 0l84 531h142l11 -67c34 35.75 87.5 72.25 147.75 72.25c20.75 0 38.75 -0.5 52.75 -5.75l-24.75 -157.75c-15 0.75 -47 1.5 -77.5 1.5c-50 0 -93.25 -5.25 -121.5 -59.5l-49.75 -314.75h-164z" />
    <glyph glyph-name="uring" unicode="&#x16f;" horiz-adv-x="551" 
d="M281.281 698.75c4.99707 57 53.5029 100.75 109.503 100.75s98.4941 -43.75 93.4971 -100.75c-4.99609 -57 -51.7314 -100.5 -107.731 -100.5s-100.266 43.5 -95.2686 100.5zM344.031 698.75c-2.15625 -21.75 14.0684 -38.25 35.8184 -38.25s39.5254 16.5 41.6816 38.25
c2.15527 21.75 -13.0469 39.25 -34.7969 39.25s-40.5479 -17.5 -42.7031 -39.25zM62.5 183.5l55 347.5h164l-55.75 -350.5c-8.25 -50.5 8.25 -63 37.5 -63c47.75 0 77.75 12.5 110.5 42l58.75 371.5h164l-84.75 -531h-134.5l-20.25 54.5
c-48.25 -38 -87.75 -63.5 -168.75 -63.5c-130 0 -143 84.75 -125.75 192.5z" />
    <glyph glyph-name="uhungarumlaut" unicode="&#x171;" horiz-adv-x="551" 
d="M236.614 598.25l107 140.5h132.5l-140.5 -140.5h-99zM400.114 598.25l107 140.5h132.5l-140.5 -140.5h-99zM62.5 183.5l55 347.5h164l-55.75 -350.5c-8.25 -50.5 8.25 -63 37.5 -63c47.75 0 77.75 12.5 110.5 42l58.75 371.5h164l-84.75 -531h-134.5l-20.25 54.5
c-48.25 -38 -87.75 -63.5 -168.75 -63.5c-130 0 -143 84.75 -125.75 192.5z" />
    <glyph glyph-name="tcommaaccent" unicode="&#x163;" horiz-adv-x="375" 
d="M69.75 -183.25l11.25 68.5l43 15c30 12 32.5 22 38.5 60h104.5c-16 -102 -49.75 -143.5 -138.75 -143.5h-58.5zM53 413l13.5 86l86.25 33l49.25 148h138.5l-23.75 -148h105.5l-18.75 -119h-105.5l-30.75 -193.25c-12 -78 1.25 -90.25 26 -101.5
c0 0 47.75 -20.25 53.25 -20.25l-15.5 -98.75h-107c-84.25 0 -146.75 52.25 -125.25 190.5l35.25 223.25h-81z" />
    <glyph glyph-name="Lslash" unicode="&#x141;" horiz-adv-x="529" 
d="M24.5 299.75l12.25 76l81.75 32.25l50.75 324h163.75l-39.75 -253.75l109.25 43.5l-12.5 -75.75l-108.75 -43.5l-32.25 -201.5c-8 -53 25 -52 54 -52h231.25l-23.25 -149h-298.75c-85.002 0 -152.75 40.25 -135.5 148.5l29.5 183.75z" />
    <glyph glyph-name="lslash" unicode="&#x142;" horiz-adv-x="338" 
d="M39.25 343.5l12.25 76l76.75 30.75l53.25 332.75h164.75l-41.5 -262.75l112.5 45.25l-12.5 -75.75l-112 -45.5l-37 -225.25c-12.5 -76.5 2 -88.75 26.75 -100c0 0 47.75 -20.25 53.25 -20.25l-15.5 -98.75h-98c-92 0 -157 48.25 -135 189l29.5 185.5z" />
    <glyph glyph-name="Dcroat" unicode="&#x110;" horiz-adv-x="647" 
d="M56.25 338.5l11.25 69h65l51.25 324.25c0 0.25 295.5 0.25 310.5 0.25c205.5 0 223.5 -205.75 193.25 -391.5c-40 -245.25 -121.75 -340.5 -294.25 -340.5h-325.5l53.5 338.5h-65zM254.25 142.25h131.5c75.25 0 115 78.75 137.5 221.75
c29.75 186.25 0.25 226.5 -66.5 226.5h-131.5l-28.75 -183h101.5l-11.25 -69h-101.5z" />
    <glyph glyph-name="dcroat" unicode="&#x111;" horiz-adv-x="554" 
d="M74 280.25c29 183.25 71 258.75 216.75 258.75c45 0 103 -11.75 142.75 -32.5l15 94.5h-101l11.25 69h101l18.25 115h163.5l-18 -115h62.25l-11.25 -69h-62.25l-95 -601h-137.75l-19 51.5c-40.25 -29.5 -91.75 -57.5 -153 -57.5c-124.25 0 -162.5 105 -133.5 286.25z
M239.5 270.5c-18 -112.75 -2.5 -140.25 36 -140.25c43 0 78.25 9.75 102.25 28l38.25 240.25c-22.5 12.75 -57.25 17.75 -95.25 17.75c-36 0 -61 -20.25 -81.25 -145.75z" />
    <glyph glyph-name="at.alt" horiz-adv-x="830" 
d="M62.5 106.5l75 474.5c26.25 163.25 122.5 208 273.25 208h360c155.25 0 190 -111.5 169.25 -253l-47 -316.5c-13.75 -94.25 -57.25 -156.5 -201.25 -156.5h-106.5l-23.75 52.5c-19 -25.75 -52.25 -60.75 -125.25 -59.5c-121.5 2.5 -180.75 102.25 -152 291.75
c34 221.75 141 257.75 237.5 257.75c106.25 0 175.25 -18.25 226.25 -67.25l-50 -348.75c48 0 62.25 9 74.5 90l40.25 271.5c13.75 95.25 -14.5 110.5 -77.75 110.5h-352c-95 0 -111.75 -60 -119.75 -110.5l-72.75 -459.5c-9 -57 1.25 -99 87.25 -99h386l-16.25 -99.5
c-50 -10 -166 -27 -292 -27h-90.5c-185.75 0 -221 120 -202.5 240.5zM410 329c-10.5 -73.75 -15 -148.5 57 -146.5c55 1.25 91.75 20 111 67.5l34.5 222.25c-36.75 7 -68 7.75 -96.5 7.75c-55.75 0 -89 -32.75 -106 -151z" />
    <glyph glyph-name="questiondown.alt" horiz-adv-x="541" 
d="M55.75 211.5l10 63.5c21.25 136.5 94.75 187 251.5 177.25c0 0.75 14 84.5 13.75 86h127.5l-32.75 -207c-14.5 0.25 -90 0.5 -104.5 0c-49 -2 -83.75 -20 -92.5 -76.5l-6.25 -36.5c-8.25 -51.5 20 -75 88.25 -75h241l-19.25 -121.5
c-93.5 -20.5 -172.75 -32.5 -286.75 -27.5c-147.5 0 -206 119.25 -190 217.25zM334 608.25l15.75 102c2.75 17.25 14.25 23 28.25 23h98.5c14 0 22.25 -9 20.25 -23l-15.75 -102c-2 -15 -12 -25 -28 -25h-98.5c-17.25 0 -23.25 9.5 -20.5 25z" />
    <glyph glyph-name="oe" unicode="&#x153;" horiz-adv-x="853" 
d="M67.5 277.5c34 217 107 260.75 288.5 260.75c66.25 0 114.75 -13.75 146.5 -41.5c38.5 29.5 93.5 43.5 176.75 44.25c110.25 0.75 220.25 -28.75 214.25 -153c-10.75 -250.5 -293.5 -202.25 -330.5 -187.25c-10.5 -65.5 9.25 -80.5 80.25 -80.5
c53.5 0 149.25 7.5 205.5 17.75l-20 -116c-78.75 -24.5 -165.5 -38 -286.75 -29c-39.75 2.25 -69.25 15 -90 38.5c-41.75 -27 -99 -36.5 -178.5 -36.5c-183.25 0 -236 92.5 -206 282.5zM231.5 258c-20 -121.75 -4.5 -136.5 59.5 -136.5c67.5 0 82 9.5 103 136.5
c20.75 129 14 153.75 -57.25 153.75c-72.25 0 -84 -22.25 -105.25 -153.75zM575.5 307.25c0 0 134.75 -28 149.5 54.5c7.5 41.75 -14 53.5 -58 52.75c-71.25 -1.5 -81.5 -50.75 -91.5 -107.25z" />
    <glyph glyph-name="OE" unicode="&#x152;" horiz-adv-x="1024" 
d="M80.75 379.75c54 343 185 357.25 354.75 357.25c72 0 133.75 -9.5 177 -46.75c36.75 37.25 87 44.75 138 41.75c0 0 221 -4 307.25 -16l-21.75 -136.75h-264.5c-51 0 -57 -29 -61 -56l-12.25 -80l266.25 -10.75l-21 -135.5l-269.5 -9.25l-14 -86
c-8.5 -53 24.5 -52 53.5 -52h254.5l-21.25 -135.75c-79.5 -10.5 -302.25 -17 -302.25 -17c-37.5 -2.25 -86.75 7.5 -118 39.25c-56 -35 -124 -40.25 -203.25 -40.25c-175.5 0 -295.5 50.75 -242.5 383.75zM244.75 361c-28.25 -179 -11.75 -216 99.25 -216
c100 0 140.25 37.5 168.75 216c32 202.25 1.25 227 -98 227s-137.25 -18 -170 -227z" />
    <glyph glyph-name="Ydieresis" unicode="&#x178;" horiz-adv-x="666" 
d="M265.25 858c5.5 34 37.75 61.25 71.75 61.25s57.25 -27.25 51.75 -61.25s-37.5 -62.25 -71.5 -62.25s-57.5 28.25 -52 62.25zM520.25 858c5.5 34 37.75 61.25 71.75 61.25s57.25 -27.25 51.75 -61.25s-37.5 -62.25 -71.5 -62.25s-57.5 28.25 -52 62.25zM124.25 732
h177.75l68 -338.25l188 338.25h186.25l-318.25 -517l-34.25 -215h-164l34.25 215z" />
    <glyph glyph-name="g.salt" horiz-adv-x="517" 
d="M12.25 -101l42 215c5 36 27 86 77 86c-56.5 34 -53 113.5 -45 166.5c22.25 142 116.75 168.5 214 166.5l97.5 -2c68 -0.75 173 -37.75 146 -209.5c-11.5 -77 -69 -173.5 -211 -173.5h-72c-16 0 -40.25 5 -45.25 -15.75c-4.75 -20 17.25 -23 37.5 -26.75l125.5 -22.75
c67.25 -14.25 137.25 -56.75 121.25 -158.25l-8 -48c-13.25 -84.25 -49.5 -146.5 -196.5 -146.5h-116.5c-144 0 -185.5 73 -166.5 169zM178 -93.5c-7 -37.25 4.25 -47.5 40.25 -47.5h67.5c32.75 0 41 14.75 45 40l2 15.25c4.75 32.75 -6.25 40 -37.75 45.75l-103.75 16z
M250.25 344c-8 -49 -7.75 -76 38.5 -76h33.5c42 0 52.25 41 57.5 76c9 55 6.25 70 -34.75 70h-33.5c-43 0 -52.25 -18 -61.25 -70z" />
    <glyph glyph-name="guilsinglleft" unicode="&#x2039;" horiz-adv-x="283" 
d="M13.25 354l238 203l73 -84.75l-141 -120l103.25 -121l-95.25 -85.25z" />
    <glyph glyph-name="guilsinglright" unicode="&#x203a;" horiz-adv-x="357" 
d="M89.5 233l141.75 121.5l-101.75 119.5l97.5 83l174.25 -204.25l-241.75 -206.75z" />
    <glyph glyph-name="perthousand" unicode="&#x2030;" horiz-adv-x="1336" 
d="M72.5 492.75l18.75 118c13 84.5 53.75 121.25 157.25 121.25h101c95 0 127 -57.25 113.75 -143.75l-18.75 -118c-13.5 -87 -55.25 -121.25 -157 -121.25h-101c-92.25 0 -127 59 -114 143.75zM186.25 504c-4.25 -28.75 -0.75 -45 35.75 -45h63.5
c39.25 0 48.5 16.5 52.75 45l11.25 73c5.75 37 -3.5 45 -36.25 45h-63.5c-31 0 -46.75 -8.25 -52.25 -45zM168.25 0l566 732h110.75l-560.75 -732h-116zM556.25 146l18.75 118c13 84.5 53 121.25 156.5 121.25h101.75c95 0 127 -57.25 113.75 -143.75l-18.75 -118
c-13.5 -87 -55.5 -121.25 -157.25 -121.25h-101.75c-92.25 0 -126 59 -113 143.75zM670 157.25c-4.25 -28.75 -0.25 -45 36.25 -45h62.75c39.25 0 48.75 16.5 53 45l11.25 73c5.75 37 -3.75 45 -36.5 45h-62.75c-31 0 -47.25 -8.25 -52.75 -45zM969.75 146l18.75 118
c13 84.5 53.75 121.25 157.25 121.25h101c95 0 127 -57.25 113.75 -143.75l-18.75 -118c-13.5 -87 -55.5 -121.25 -157.25 -121.25h-101c-92.25 0 -126.75 59 -113.75 143.75zM1083.5 157.25c-4.25 -28.75 -0.25 -45 36.25 -45h63.5c39.25 0 48 16.5 52.25 45l11.25 73
c5.75 37 -3 45 -35.75 45h-63.5c-31 0 -47.25 -8.25 -52.75 -45z" />
    <glyph glyph-name="dagger" unicode="&#x2020;" horiz-adv-x="539" 
d="M101 440.25l20.25 126.5l135 13.75l42 189.5h145.5l-18.5 -189.5l130 -13.75l-20.25 -126.5l-134 -13.75l-92.25 -498.5h-145.5l68.75 498.5z" />
    <glyph glyph-name="daggerdbl" unicode="&#x2021;" horiz-adv-x="509" 
d="M82.75 136.5l20.25 126.5l138.25 16.75l20.25 146.75l-130.25 13.75l19.5 126.5l135.75 13.75l41.25 189.5h145.25l-17.5 -189.5l129.25 -13.75l-19.5 -126.5l-134.75 -13.75l-26.5 -147.5l133 -16l-20.25 -126.5l-142.75 -15.25l-35 -193.25h-145.5l26.25 191.75z" />
    <glyph glyph-name="trademark" unicode="&#x2122;" horiz-adv-x="625" 
d="M34.25 645.5l13.75 86.5h289l-13.75 -86.5h-93.25l-41.25 -262.5h-101.5l41.25 262.5h-94.25zM291 383l97 349h105.25l15 -187l69.75 187h111l-9 -349h-101.5l9 178l-54.75 -178h-90.5l-7.25 176.75l-42.5 -176.75h-101.5z" />
    <glyph glyph-name="notequal" unicode="&#x2260;" horiz-adv-x="538" 
d="M115.25 174.5l21.25 135.25h151.5l60 80h-198.5l21.25 135.25h275.5l46.75 62.25h76l-46.75 -62.25h75.5l-21.25 -135.25h-152.5l-60 -80h199.5l-21.25 -135.25h-277.5l-54 -73.25h-76l54 73.25h-73.5z" />
    <glyph glyph-name="infinity" unicode="&#x221e;" horiz-adv-x="662" 
d="M43.5 356c12.25 89 57.5 158 195.5 158c73.5 0 121.75 -32 156.75 -91.5c47.75 64 116.25 91.5 192.25 91.5c136 0 154.25 -100.75 141.5 -188c-13.75 -93.5 -67.25 -157 -196.5 -157c-63.25 0 -122 15 -164.5 91.5c-54.25 -72 -106.5 -91.5 -184.5 -91.5
c-125 0 -153.25 98 -140.5 187zM161.75 341c-4.5 -33.5 2 -61.25 50 -61.25c42.75 0 73.25 31 98.5 61.25c-15 31.25 -44 62.25 -78.75 62.25c-54.75 0 -65.25 -27.75 -69.75 -62.25zM459 340.25c15.25 -30.25 38 -60.5 80.75 -60.5c46.25 0 66.25 26.5 71.5 61.25
s2.25 62.25 -51.75 62.25c-42.25 0 -75.5 -31.75 -100.5 -63z" />
    <glyph glyph-name="lessequal" unicode="&#x2264;" horiz-adv-x="522" 
d="M83.5 73.25l18.75 119h374.5l-18.75 -119h-374.5zM129 361l23.5 147.5l394.25 123l-23.5 -147.5l-218.25 -56.25l201.5 -54l-23.5 -143.25z" />
    <glyph glyph-name="greaterequal" unicode="&#x2265;" horiz-adv-x="420" 
d="M44.25 73.25l18.75 119h375.25l-18.75 -119h-375.25zM68.5 229.5l23.5 148l222.25 63l-205.5 48l23.5 142l355.75 -123l-23.5 -147.5z" />
    <glyph glyph-name="circumflex" unicode="&#x2c6;" horiz-adv-x="311" 
d="M44.25 531l126 137.5h116l72.5 -137.5h-99.5l-37.5 59l-66 -59h-111.5z" />
    <glyph glyph-name="tilde" unicode="&#x2dc;" horiz-adv-x="413" 
d="M117.5 591.5c34.5 35.25 81 71.5 133.25 71.5c45.5 -0.75 63 -34.5 100 -34.75c36 -1.75 79 20.25 100 38.5l14.25 -66c-31 -31.5 -75.25 -69.75 -124.5 -69.5c-46.25 0.25 -69.75 35 -108 34.75c-40.25 -0.25 -65 -13.5 -99.25 -35z" />
    <glyph glyph-name="ring" unicode="&#x2da;" horiz-adv-x="268" 
d="M126.573 632c4.99707 57 53.5029 100.75 109.503 100.75s98.4941 -43.75 93.4971 -100.75c-4.99609 -57 -51.7314 -100.5 -107.731 -100.5s-100.266 43.5 -95.2686 100.5zM189.323 632c-2.15625 -21.75 14.0684 -38.25 35.8184 -38.25s39.5254 16.5 41.6816 38.25
s-13.0469 39.25 -34.7969 39.25s-40.5469 -17.5 -42.7031 -39.25z" />
    <glyph glyph-name="ellipsis" unicode="&#x2026;" horiz-adv-x="790" 
d="M128.589 23l16.4932 102c2.15625 15 12.0098 25 28.0098 25h98c18 0 23.8574 -9 20.9902 -25l-16.4932 -102c-3.03711 -18 -14.0889 -23 -28.0889 -23h-98c-14 0 -22.8564 9 -20.9111 23zM400.589 23l16.4932 102c2.15625 15 12.0098 25 28.0098 25h98
c18 0 23.8574 -9 20.9902 -25l-16.4932 -102c-3.03711 -18 -14.0889 -23 -28.0889 -23h-98c-14 0 -22.8574 9 -20.9111 23zM672.589 23l16.4932 102c2.15625 15 12.0098 25 28.0098 25h98c18 0 23.8574 -9 20.9902 -25l-16.4932 -102
c-3.03711 -18 -14.0889 -23 -28.0889 -23h-98c-14 0 -22.8574 9 -20.9111 23z" />
    <glyph glyph-name="fraction" unicode="&#x2044;" horiz-adv-x="354" 
d="M-60.75 0l481.951 760.5h114.5l-481.951 -760.5h-114.5z" />
    <glyph glyph-name="dotlessi" unicode="&#x131;" horiz-adv-x="237" 
d="M30 0l84 531h164l-84 -531h-164z" />
    <glyph glyph-name="exclamdown.alt" horiz-adv-x="325" 
d="M77.75 -202.25l101.25 534h129l-68.5 -534h-161.75zM182.5 406l15.5 99.75c2 14 14 22 28 23h97.75c12 -1 22 -12 20 -26l-15.5 -96.75c-2.25 -12.75 -9.25 -25.5 -25.5 -26.5h-101c-13 0.25 -21.75 8.75 -19.25 26.5z" />
    <glyph glyph-name="ampersand.salt" horiz-adv-x="990" 
d="M82.25 346.75l11.75 84.5c24.5 177.75 121.5 195.75 296.75 197.25h426l36.5 116h146l-18.5 -117.5h95l-17.25 -110l-98 -19.25l-43 -290.5c-30 -187.25 -164.75 -208.75 -307 -208.75h-163c-100.75 0.75 -203.25 45.5 -185.25 166.75c-116 0 -201.25 48.5 -180 181.5z
M245.5 338.5c-6.5 -38.25 1.5 -50.75 36 -51c19.75 123 102 164.5 224.25 164.5h54c97.75 0 184.5 -31 165.25 -156.25c-20 -126.25 -105.5 -125.5 -211.5 -125.5h-85.75c-4.5 -30.5 9.75 -39.25 43.25 -40h160.25c83 0 113.25 39.25 123 101.75l41.5 265h-418.5
c-96 -0.5 -109.25 -20 -119.25 -80.75zM445.5 286h84.25c21 0 29.5 2.5 33.5 26.25c3 20.5 -4.25 23.75 -25.25 23.75h-42.75c-26.75 0 -41.75 -2 -49.75 -50z" />
    <glyph glyph-name="a.superior" horiz-adv-x="400" 
d="M102.5 574c30.5 149.25 122 155.5 189.25 156.5c58 1 145.25 -11 180.75 -44l-46.5 -321.25h-95.25l-20 45c-17.75 -31.75 -53.25 -50 -108.5 -50c-76.5 0 -127.25 75 -99.75 213.75zM218.5 555c-8 -54.75 -8.75 -92.5 28 -92.5c33 0 60.5 13.75 73.5 33.75l19.75 135
c-21.5 5.75 -46.25 8.25 -63.25 5.25c-22.25 -3.75 -48.75 -14.75 -58 -81.5z" />
    <glyph glyph-name="b.superior" horiz-adv-x="410" 
d="M89.75 367.5l83 523.25h124.25l-28.75 -181.75c33.75 16.25 74.75 24.75 107.25 24.75c106.5 0 113.5 -94.75 97 -208.25c-17.75 -121.25 -64 -162 -155.75 -162c-45 0 -73.25 20.75 -95.75 43l-28.25 -39h-103zM233.25 484.5c13.5 -11 30.75 -17 61.25 -17
c26.5 0 45.25 18.25 54.5 84.25c11 77.5 -0.75 87.75 -27 87.75c-27.25 0 -46.5 -3.75 -66 -12.5z" />
    <glyph glyph-name="c.superior" horiz-adv-x="351" 
d="M110.75 559.5c23.25 145.25 81 165.5 154 165.5c37.5 0 119 -5.75 173 -25.5l-12.25 -75.25s-51 4.25 -112 4.25c-45 0 -63.5 -1.25 -78 -85.25c-12.75 -76 1.75 -82.75 51.25 -82.75c63 0 119 4.75 119 4.75l-12.5 -74c-55 -23 -97.75 -28 -183 -27.25
c-72.75 0.75 -121.5 59 -99.5 195.5z" />
    <glyph glyph-name="d.superior" horiz-adv-x="410" 
d="M111.5 567c16.75 100 49.25 167 155.75 167c32.5 0 71.25 -8.5 100.5 -24.75l28.75 182h123.75l-83.25 -523.75h-103l-15.5 39c-31 -24 -62.25 -43 -107.25 -43c-93 0 -118.25 97.75 -99.75 203.5zM237.25 552c-10.25 -69.75 0.5 -84.5 27 -84.5c30.5 0 49 6 66.75 19.75
l22.5 141.25c-18.25 8.25 -34.25 11.25 -61.5 11.25c-26.25 0 -43 -10.75 -54.75 -87.75z" />
    <glyph glyph-name="e.superior" horiz-adv-x="384" 
d="M113 567.5c19.75 110.5 52.75 159.25 188.5 160c78 0.75 162.75 -22.5 157 -105.75c-10.75 -158 -208.5 -129.25 -232.75 -118.5c-6.25 -37.75 15.75 -45.25 59.25 -45.5c36 -1 100.75 4.25 138.75 10l-15 -85.5c-54.75 -18.25 -116 -29.75 -200.75 -21.5
c-88.5 8.25 -118.25 76.75 -95 206.75zM232.25 568c0 0 96.75 -26.25 108.25 30.25c5 27 -17.25 31.5 -44.5 31.5c-51 0 -57.5 -24.75 -63.75 -61.75z" />
    <glyph glyph-name="f.superior" horiz-adv-x="309" 
d="M116.5 632.25l12.5 78.25l55.25 15.5l10 49.25c15.75 73.5 56 116.5 145.25 116.5c36.25 0 65.75 -4 94.75 -17.75l-12.75 -73.25c-0.75 0 -60.5 0.75 -60.5 0.75c-40.5 0.75 -41.5 -20.25 -46.5 -53.5l-3.75 -24.5h80.75l-14.5 -91.25h-81.25l-41.75 -264.75h-125
l41.75 264.75h-54.25z" />
    <glyph glyph-name="g.superior" horiz-adv-x="403" 
d="M76.25 196.5l13.75 84.25h154.25c38.5 0 64.75 19.5 71 59.25l7.75 51.75c-27 -20.75 -55.25 -28.75 -88.5 -28.75c-108.75 0 -137.25 83.5 -117 208c21.25 127.75 83.75 162 174.75 162c78.5 0 170.25 -11.75 206.75 -25.25l-60.75 -388.75
c-15.75 -97.5 -74.75 -151 -191.25 -138.5zM243.25 556c-10 -60.25 -12.75 -98.25 33.75 -98.25c23.75 0 35.5 1.25 58.25 10l27.25 173.25h-56.25c-49.25 0 -56.5 -48 -63 -85z" />
    <glyph glyph-name="h.superior" horiz-adv-x="414" 
d="M91.75 367.5l83 521.5h124.25l-32.5 -205.5c31.25 23 63.25 48 122.75 48c95 0 104.25 -58 93 -129.75l-36.75 -234.25h-125l35.5 225.5c4.75 31 -6 41.25 -26.25 41.25c-31.5 0 -51 -7.5 -74.75 -26.25l-38.25 -240.5h-125z" />
    <glyph glyph-name="i.superior" horiz-adv-x="191" 
d="M90.5 367.5l56 356h125l-56 -356h-125zM154.25 771.25l12.25 76.75c2 11 9 19 21 19h94.75c11 0 15.25 -8 13.25 -19l-12.25 -76.75c-2 -11 -8.25 -17 -19.25 -17h-94.75c-11 0 -17 6 -15 17z" />
    <glyph glyph-name="j.superior" horiz-adv-x="191" 
d="M63 184.75l85 537h125.5l-57 -358c-8 -58 -20.25 -124.5 -58.25 -179h-95.25zM154.5 770l12.25 77.5c2 11 9 19 21 19h94.75c11 0 16 -8 14 -19l-12.25 -77.5c-2 -11 -9 -17.25 -20 -17.25h-94.75c-11 0 -17 6.25 -15 17.25z" />
    <glyph glyph-name="k.superior" horiz-adv-x="409" 
d="M91.75 367.5l83 521h125l-47.5 -290.25c60 19.5 106.75 63.5 128.25 123.5h130c-25.5 -92.5 -86.25 -140.5 -125.5 -162l101 -192.25h-138.25l-78.25 158.5l-27.75 -0.75l-25 -157.75h-125z" />
    <glyph glyph-name="l.superior" horiz-adv-x="240" 
d="M111.75 494.75l62 394.75h125.75l-58.75 -367.75c-7.5 -48 -0.75 -57.5 18.25 -65.5c0 0 35.25 -14 40.25 -14l-11.5 -74.75h-76.75c-68.25 0 -114.25 33.25 -99.25 127.25z" />
    <glyph glyph-name="m.superior" horiz-adv-x="643" 
d="M89.75 367.5l56 353.25h102.25l11.75 -41.5c35.75 25.25 63.25 47.75 122.5 47.75c51.25 0 80.75 -19 92.5 -49.25c37.25 23.75 82.5 49.25 141.25 49.25c89.25 0 106.5 -56 95 -128.25l-36.75 -231.25h-125l35.5 222.5c4.5 29.75 -6.5 40.5 -26.75 40.5
c-30.5 0 -54.25 -6 -76 -23.25c-0.75 -3.75 -2.75 -15.5 -3.5 -20l-34.5 -219.75h-125l35.5 222.5c4.5 29.75 -7 40.5 -27.25 40.5c-31.75 0 -51.5 -7.5 -75.25 -26.25l-37.25 -236.75h-125z" />
    <glyph glyph-name="n.superior" horiz-adv-x="414" 
d="M91.75 367.5l56 353.25h101.25l13.5 -40.75c33.5 24.5 63.5 47.75 123.75 47.75c96.5 0 107.25 -57.25 96 -128.25l-36.75 -232h-125l35.75 223.5c4.75 31 -6.5 40.5 -26.75 40.5c-31.75 0 -51.5 -7.75 -75.25 -26.5l-37.5 -237.5h-125z" />
    <glyph glyph-name="o.superior" horiz-adv-x="391" 
d="M111.5 552.25c21.5 142.5 65.75 173 198.25 173c133.5 0 162.75 -60.5 141.5 -198.5c-20.5 -131.25 -58.25 -163 -195.75 -163c-132.75 0 -163 61.5 -144 188.5zM228.25 540.25c-12 -74 -0.5 -80 40.75 -80c47.75 0 53 3.75 65.5 80c12.5 77.75 11.5 88.5 -38.75 88.5
c-50.75 0 -55.25 -9 -67.5 -88.5z" />
    <glyph glyph-name="p.superior" horiz-adv-x="406" 
d="M62.75 184l83 522.25c48.25 15.5 119.5 23.5 212.25 23.5c90.75 0 132.5 -70 114 -194.75c-15.5 -110 -50.75 -180.25 -160.75 -180.25c-32 0 -72.25 8.5 -92.5 30l-31.75 -200.75h-124.25zM231.75 463c16.5 -9.75 31.75 -13.25 54.75 -13.25c37.25 0 49.5 20.5 62 98.75
c7.75 48.75 8 89.5 -33.5 89.5h-55.25z" />
    <glyph glyph-name="q.superior" horiz-adv-x="408" 
d="M113.5 562.75c22 133.75 84.5 167.25 175.5 167.25c78.5 0 166.25 -11 202.75 -24.5l-82.25 -524.25h-125l32 203c-27 -21.5 -55.5 -29.25 -87.5 -29.5c-108 0 -135.75 83.5 -115.5 208zM237.75 548.5c-10 -60.25 -12 -99 34.5 -99c24 -0.25 33.75 2.75 56.5 13l28 175.5
h-53.75c-49.25 0 -58.75 -52.5 -65.25 -89.5z" />
    <glyph glyph-name="r.superior" horiz-adv-x="304" 
d="M89.75 367.5l56 353.25h108.75l3 -50.25c24.5 26.75 62.75 54.25 106 54.25c15.25 0 28.25 -0.5 37.75 -4.5l-19 -120c-10.5 0.5 -31.5 1 -52.75 1c-34.5 0 -63.5 -3.25 -83.5 -36.25l-31.25 -197.5h-125z" />
    <glyph glyph-name="s.superior" horiz-adv-x="356" 
d="M100.5 387.5l11.5 75.5h164.25c9 0 20.75 0.5 22.25 16.5l1 7c0.75 11.5 -0.75 16.75 -16.5 16.75h-74.25c-63 0 -98.75 43.5 -89 106.75l4.25 30.5c8.5 54 39.25 85.75 108.5 85.75c81 0 174 -0.75 194.75 -23.5l-11.75 -76.75h-157.5c-17.25 0 -23.5 -4 -25 -15.25
l-1 -9.75c-2 -15.25 7.25 -17 19.5 -17h76.5c72 0 94.5 -48.25 87.5 -92.25l-6.75 -39.25c-12.75 -77 -58.75 -90 -103 -90c-79.75 0 -184.5 1 -205.25 25z" />
    <glyph glyph-name="t.superior" horiz-adv-x="284" 
d="M116.5 633l10.25 72.75l63.25 20.25l32.5 97.25h105.25l-15.75 -99h72.25l-14.5 -91.25h-72.25l-18.5 -115.5c-7.75 -48 -0.25 -54.75 18.5 -61.75c0 0 32.25 -12.75 36.25 -12.75l-12.25 -75.25h-80c-59 0 -105.75 32.75 -91.5 123.25l22.5 142h-56z" />
    <glyph glyph-name="u.superior" horiz-adv-x="413" 
d="M106.5 490.25l36.75 230.5h125l-35.75 -223.5c-4.5 -30 6.75 -40.25 26.75 -40.25c31 0 49.5 7 73.25 25.75l37.5 238h125l-56 -353.25h-101.5l-12.75 43.75c-36.5 -30.5 -62 -50.75 -122.25 -50.75c-96.5 0 -107.25 58.75 -96 129.75z" />
    <glyph glyph-name="v.superior" horiz-adv-x="391" 
d="M129.25 720.75h120l29 -224.5l69.75 143.25c9.5 17.75 19 43.5 22.25 82.75h118.75c10 -43.75 -8.75 -90.75 -24.75 -120l-134 -234.75h-133.5z" />
    <glyph glyph-name="w.superior" horiz-adv-x="603" 
d="M129.25 720.75h118.75l28.75 -223.25l70.75 142.25c9.5 17.75 19 43.25 22.25 82.5h118.75c7 -29.5 1 -60 -9.75 -87c-1.5 -3.75 -12.75 -23 -14.25 -26.75l24.5 -111l70.25 142c9.5 17.75 19.25 43.5 22.5 82.75h118.75c10 -43.75 -9.5 -90.75 -25.5 -120
l-133.5 -234.75h-130l-26.5 111.25l-55.5 -111.25h-133.5z" />
    <glyph glyph-name="x.superior" horiz-adv-x="409" 
d="M74 365.5l149.5 187l-94.75 168h133.5l41.5 -94.75l70.5 94.75h136l-152 -188.5l92.25 -166.5h-129.75l-41 94l-69.75 -94h-136z" />
    <glyph glyph-name="y.superior" horiz-adv-x="419" 
d="M142.25 160.25v78c66 37.25 103.75 91.5 122.5 128.25c-66.5 0.75 -100.75 41.25 -104.75 93.5l-29.75 261.75h124.25l20 -236c1.75 -19.75 14 -26.75 27.25 -27.5l75.25 165c8.25 21.75 15.5 52.25 20.25 99h118.75c10 -44.5 -5.75 -91.5 -19.5 -122.25l-106.25 -234.25
c-88.5 -187.25 -205.5 -199.75 -248 -205.5z" />
    <glyph glyph-name="z.superior" horiz-adv-x="352" 
d="M92.5 368.5l16 101l163.25 148.75h-150.25l16.75 102.5h305.5l-14.25 -88.5l-165.75 -161.25h139.75c1 -1 -16 -102.5 -16 -102.5h-295z" />
    <glyph glyph-name="zero.tnum" horiz-adv-x="609" 
d="M67.25 184.5l56.75 355.5c20.25 126.25 82.75 192 203.75 192h164c139 0 181.25 -89.75 166 -184.5l-57.5 -363c-19 -119 -78.25 -184.5 -195.25 -184.5h-164c-120.25 0 -192.75 64.5 -173.75 184.5zM236.5 215.25c-10.25 -64.75 27.75 -66.25 56.25 -66.25h72.5
c40.75 0 66.5 11.5 75.5 65.5l48.5 303c7.5 48.75 -10.25 65.5 -49 65.5h-83.75c-58.75 0 -69 -44.25 -72.25 -65.5z" />
    <glyph glyph-name="one.tnum" horiz-adv-x="609" 
d="M90.5 0l21 135h137.5l70.25 435.25c-38.25 -26.5 -111.25 -25.75 -135.25 -25.75l16.25 105.5c25 0 109.25 40.75 145.25 82h162.75l-95 -597h138.25l-21 -135h-440z" />
    <glyph glyph-name="two.tnum" horiz-adv-x="609" 
d="M44.25 0l23 143c101.5 61.75 396.5 267 412 364.75c10.5 65.75 -21.25 84.25 -105.25 84.25h-243l19.5 122.5c89.75 16.75 165.5 27.5 301.25 27.5c150.75 0 209.75 -118.25 190.75 -249.75c-20.75 -150.25 -224 -287 -299.25 -343.25h242.5l-24 -149h-517.5z" />
    <glyph glyph-name="three.tnum" horiz-adv-x="609" 
d="M53 21l20 122h238c70.5 0 102.25 7.25 110.25 59.25l3.25 22.25c9.25 59.5 -23.75 61.25 -84.5 64.75l-182 8.5l22 133l184 8.5c69 3 98.75 11.75 106.5 61.5l3.5 23.25c9.75 57.25 -35 61 -87 61h-251l19 121c93 31 213.5 30 330.5 28c106.5 -2 174.25 -82 156.25 -195
l-8 -46.5c-12.25 -75 -47.25 -119 -102.25 -128.5c57.25 -18 68 -90.5 56 -166.5l-6.25 -36.5c-18.5 -118 -97.75 -168 -219.75 -168c-114 0 -225.5 -3 -308.5 28z" />
    <glyph glyph-name="four.tnum" horiz-adv-x="609" 
d="M54 224l318.5 508h179.25l-259.25 -429.5h141.75l24.75 152.25l42.25 77.25h134.5l-36.75 -229.5h67.5l-19.5 -126.5l-72 -26.5l-23 -147.5h-164.75l23 147.5h-334.25z" />
    <glyph glyph-name="five.tnum" horiz-adv-x="609" 
d="M64.25 20.75l21 130h274c63.75 0 72.25 38.5 76 63l8 49.25c5 32 1.75 64.5 -48.25 64.5h-70.5c-33.75 0 -56 -15.75 -62 -52.5h-157l94.75 457.5h453l-24 -149h-293.25l-27.75 -137c26.25 16.75 54.75 21.25 73.75 22.75c32.5 2.75 73.75 0.5 90.75 -0.25
c109 -7.5 151.25 -92.75 136.75 -197.25l-15.5 -112.5c-22 -137 -126 -161.25 -222.25 -162.5c-124.25 -1.75 -177.5 1 -307.5 24z" />
    <glyph glyph-name="six.tnum" horiz-adv-x="609" 
d="M101.25 399c42 265 139.75 324.75 228.75 335.25c102.5 12 228.25 -1 320.75 -20.5l-19.5 -124.75h-236.5c-89.75 0 -108.25 -83.75 -121 -159.5c51.75 16.75 102 20.75 183.5 21c143.25 0.5 162.5 -98.25 147.5 -194l-16.25 -108.5
c-20.25 -125.5 -99.25 -148.75 -209.75 -148.75h-140.25c-115.25 0 -187.25 84.75 -137.25 399.75zM254.25 309c-17.25 -108 -11 -161.5 62.75 -161.5h53.75c33 0 56 9.75 63.25 55.25l7.75 46.25c7.75 47.5 2 60 -41.5 60h-146z" />
    <glyph glyph-name="seven.tnum" horiz-adv-x="609" 
d="M137.25 583l24 149h475.5l30.25 -70.5l-342.25 -661.5h-176.5l305 583h-316z" />
    <glyph glyph-name="eight.tnum" horiz-adv-x="609" 
d="M72.5 187.75l9.75 64.25c9 56 43 92.75 97.75 100.75c-67.5 33.25 -65.25 103.5 -55.75 161.25l10.25 65c21.75 138.75 112.5 158 218 158h153.5c113.25 0 169.25 -65.25 150 -188.75l-8 -49.25c-3.5 -25.75 -27 -91 -95 -101.5c63.75 -14.25 61.75 -110.75 54.5 -153.75
l-12.75 -81.5c-25.25 -157.75 -114.75 -162.25 -206.75 -162.25h-152.5c-184.5 0 -172 130.5 -163 187.75zM240 195.25c-6.75 -40.75 7.25 -53.75 51.75 -53.75h75.25c42.75 0 61.25 17.75 66.5 53.75l8.75 56.25c5.25 33.75 -5.75 55.5 -46 55.5h-80.25
c-43 0 -61.75 -19.75 -67.25 -55.5zM287.25 494c-7.25 -46 15.5 -54 49.5 -54h78.75c51.25 0 60 22.5 65.25 54l5.75 39.5c9.25 56 -13.25 62 -47.25 62h-75.5c-43.25 0 -62.75 -10 -70.75 -62z" />
    <glyph glyph-name="nine.tnum" horiz-adv-x="609" 
d="M67.5 19.75l19.5 124.75h236.5c89.75 0 109 83.75 121.75 159.5c-51.75 -16.75 -102.75 -20.75 -184.25 -21c-143.25 -0.5 -161 105.75 -146 201.5l14.75 93.5c19.5 125.5 97.75 156.25 208.25 156.25h140.25c119.75 0 188 -99.75 138 -414.75
c-42 -265 -138.25 -309.75 -227.25 -320.25c-102.5 -12 -232.25 0.75 -321.5 20.5zM277.25 484.5c-7.75 -47.5 -2.75 -60 40.75 -60h146c17.25 108 10.25 161.5 -63.5 161.5h-53c-33 0 -56 -9.75 -63.25 -55.25z" />
    <glyph glyph-name="zero.tosf" horiz-adv-x="609" 
d="M67.25 184.5l41.5 255.5c20.25 126.25 82.75 192 203.75 192h164c154 0 182 -89.75 166.75 -184.5l-43 -263c-19 -119 -78.25 -184.5 -195.25 -184.5h-164c-120.25 0 -193.5 64.5 -173.75 184.5zM236.5 215.25c-10.25 -64.75 27.75 -66.25 56.25 -66.25h72.5
c40.75 0 67.25 11.5 76.25 65.5l32.5 203c7.5 48.75 -9.5 65.5 -48.25 65.5h-83.75c-56.5 0 -69.75 -44.25 -73 -65.5z" />
    <glyph glyph-name="one.tosf" horiz-adv-x="609" 
d="M106.75 0l21 135h134.25l50 335.25c-37.5 -25.75 -114 -25.75 -138 -25.75l16.5 105.5c25 0 109 40.75 145 82h162l-68.5 -497h133.75l-21 -135h-435z" />
    <glyph glyph-name="two.tosf" horiz-adv-x="609" 
d="M44 0l23 143c114.75 51 389.25 169 404 262c10.5 64 -16 79.25 -100.75 78.75c-12.5 0 -243.5 -0.25 -243.5 -0.25l19.75 122.5c89.25 17 162.75 27.5 300.75 27.5c157.25 0 210.25 -102 191.75 -229c-20.25 -147.5 -164 -222.5 -239.5 -255.5h186l-24 -149h-517.5z" />
    <glyph glyph-name="three.tosf" horiz-adv-x="609" 
d="M38 -77.5l20 122h238c70.5 0 102.25 7.25 110.25 59.25l3.25 22.25c9.25 59.5 -23.75 61.25 -84.5 64.75l-182 8.5l22 133l184 8.5c69 3 98.75 11.75 106.5 61.5l3.5 23.25c9.75 57.25 -35 61 -87 61h-251l19 121c93 31 213.5 30 330.5 28
c106.5 -2 174.25 -82 156.25 -195l-8 -46.5c-12.25 -75 -47.25 -119 -102.25 -128.5c57.25 -18 68 -90.5 56 -166.5l-6.25 -36.5c-18.5 -118 -97.75 -168 -219.75 -168c-114 0 -225.5 -3 -308.5 28z" />
    <glyph glyph-name="four.tosf" horiz-adv-x="609" 
d="M38 124l318.5 508h179.25l-259.25 -429.5h141.75l24.75 152.25l42.25 77.25h134.5l-36.75 -229.5h67.5l-19.5 -126.5l-72 -26.5l-23 -147.5h-164.75l23 147.5h-334.25z" />
    <glyph glyph-name="five.tosf" horiz-adv-x="609" 
d="M38.25 -79.75l21 130h274c63.75 0 72.25 38.5 76 63l8 49.25c5 32 1.75 64.5 -48.25 64.5h-70.5c-33.75 0 -56 -15.75 -62 -52.5h-157l94.75 457.5h453l-24 -149h-293.25l-27.75 -137c26.25 16.75 54.75 21.25 73.75 22.75c32.5 2.75 73.75 0.5 90.75 -0.25
c109 -7.5 151.25 -92.75 136.75 -197.25l-15.5 -112.5c-22 -137 -126 -161.25 -222.25 -162.5c-124.25 -1.75 -177.5 1 -307.5 24z" />
    <glyph glyph-name="six.tosf" horiz-adv-x="609" 
d="M101.25 399c42 265 139.75 324.75 228.75 335.25c102.5 12 226 -1.5 320.75 -20.5l-19.5 -124.75h-236.5c-89.75 0 -108.25 -83.75 -121 -159.5c51.75 16.75 102 20.75 183.5 21c143.25 0.5 162.5 -98.25 147.5 -194l-16.25 -108.5
c-20.25 -125.5 -99.25 -148.75 -209.75 -148.75h-140.25c-115.25 0 -187.25 84.75 -137.25 399.75zM254.25 309c-17.25 -108 -11 -161.5 62.75 -161.5h53.75c33 0 56 9.75 63.25 55.25l7.75 46.25c7.75 47.5 2 60 -41.5 60h-146z" />
    <glyph glyph-name="seven.tosf" horiz-adv-x="609" 
d="M121.25 483l24 149h475.5l30.25 -70.5l-342.25 -661.5h-176.5l305 583h-316z" />
    <glyph glyph-name="eight.tosf" horiz-adv-x="609" 
d="M72.5 187.75l9.75 64.25c9 56 43 92.75 97.75 100.75c-67.5 33.25 -65.25 103.5 -55.75 161.25l10.25 65c21.75 138.75 112.5 158 218 158h153.5c113.25 0 169.25 -65.25 150 -188.75l-8 -49.25c-3.5 -25.75 -27 -91 -95 -101.5c63.75 -14.25 61.75 -110.75 54.5 -153.75
l-12.75 -81.5c-25.25 -157.75 -114.75 -162.25 -206.75 -162.25h-152.5c-184.5 0 -172 130.5 -163 187.75zM240 195.25c-6.75 -40.75 7.25 -53.75 51.75 -53.75h75.25c42.75 0 61.25 17.75 66.5 53.75l8.75 56.25c5.25 33.75 -5.75 55.5 -46 55.5h-80.25
c-43 0 -61.75 -19.75 -67.25 -55.5zM287.25 494c-7.25 -46 15.5 -54 49.5 -54h78.75c51.25 0 60 22.5 65.25 54l5.75 39.5c9.25 56 -13.25 62 -47.25 62h-75.5c-43.25 0 -62.75 -10 -70.75 -62z" />
    <glyph glyph-name="nine.tosf" horiz-adv-x="609" 
d="M51.5 -81.75l19.5 124.75h236.5c89.75 0 109 83.75 121.75 159.5c-51.75 -16.75 -102.75 -20.75 -184.25 -21c-143.25 -0.5 -161 105.75 -146 201.5l14.75 93.5c19.5 125.5 97.75 156.25 208.25 156.25h140.25c119.75 0 188 -99.75 138 -414.75
c-42 -265 -138.25 -309.75 -227.25 -320.25c-102.5 -12 -228.25 -0.75 -321.5 20.5zM261.25 383c-7.75 -47.5 -2.75 -60 40.75 -60h146c17.25 108 10.25 161.5 -63.5 161.5h-53c-33 0 -56 -9.75 -63.25 -55.25z" />
    <glyph glyph-name="partialdiff" unicode="&#x2202;" horiz-adv-x="628" 
d="M73 242c24 151 128.5 223 270.75 223c51 0 108.75 -13.75 130.25 -57c18 130.5 -11.25 183 -89.5 183c-77.25 0 -156.25 -28 -197.25 -51l-3.75 122c74 44 141.75 78 228 78c186.5 0 258 -167.75 224.25 -383c-36.25 -229.75 -133 -362 -338.75 -362
c-133.5 0 -246.75 97 -224 247zM236.25 230c-9.25 -58.25 31.25 -88.25 81 -88.25c82.25 0 119.25 113 126.25 154.5c-17.5 10.75 -50 22 -91.5 22c-74.25 0 -107.75 -38.25 -115.75 -88.25z" />
    <glyph glyph-name="summation" unicode="&#x2211;" horiz-adv-x="566" 
d="M-4.75 -200l24 152l264 318l-164 313l24 149h526l-24 -149h-329l167.75 -316.75l-248.75 -314.25h310l-24 -152h-526z" />
    <glyph glyph-name="product" unicode="&#x220f;" horiz-adv-x="653" 
d="M84.25 0l92 583h-71l24 149h626.5l-24 -149h-72l-92 -583h-164l92 583h-155.5l-92 -583h-164z" />
    <glyph glyph-name="pi" unicode="&#x3c0;" horiz-adv-x="646" 
d="M73.25 382l24 149h572.5l-24 -149h-76.5l-29.5 -186c-9.75 -62.75 8.75 -73.5 57.75 -73.5h55.5l-15.25 -96.5c-28 -17 -63 -31 -128 -31c-99.25 0 -156.5 61.5 -135.5 193.5l31 193.5h-97l-60.75 -382h-164l60.75 382h-71z" />
    <glyph glyph-name="integral" unicode="&#x222b;" horiz-adv-x="443" 
d="M-14.75 -179l16.25 101.5h52.5c70 0 86.25 88.25 98.75 165.5l66 418c26.5 165.75 91.5 294 208.5 294c84.25 0 108 -18 125 -25l-16.25 -101.5h-50.5c-69 0 -88 -77.5 -102.75 -167.5l-66 -418c-28 -179.25 -84.5 -292 -204.5 -292c-65 0 -108 11 -127 25z" />
    <glyph glyph-name="Omega" unicode="&#x3a9;" horiz-adv-x="757" 
d="M49.25 0l21.5 135.5l105 10c-74.75 58 -85.25 177.75 -68.25 280c25.25 153.75 119.5 313.5 381.5 313.5c242.5 0 311.5 -166.5 282.5 -348.5c-19 -117 -56.75 -181 -132.25 -246l97 -10l-21.5 -134.5h-258l23.5 145.5c88 65.5 110.75 139.5 126.5 239.5
c13.25 85 5.75 205 -134.25 205c-144.5 0 -191.25 -120.5 -205.25 -210c-15.75 -98.25 -16 -159 55.5 -234.5l-23.5 -145.5h-250z" />
    <glyph glyph-name="radical" unicode="&#x221a;" horiz-adv-x="670" 
d="M48.25 224l24 149h174.25l43.25 -150l315.5 577h178.25l-433.75 -800h-161.75l-78.75 224h-61z" />
    <glyph glyph-name="florin" unicode="&#x192;" horiz-adv-x="556" 
d="M-14.75 -179l30.25 101.5h52.5c70 0 96.75 88.25 117 165.5l75.75 279h-81l34.75 119.25h81l5 19.75c40.75 150 111 286.5 228 294c80.5 6 123.5 -19.25 137 -25l-29.5 -101.5h-50.5c-69.25 0 -95 -77.5 -120.25 -167.5l-5 -20h106.5l-34.75 -119h-106.5l-75.75 -279
c-42.25 -153.75 -110.75 -283 -233 -292c-65.25 -5.25 -117.25 13.5 -131.5 25z" />
    <glyph glyph-name="approxequal" unicode="&#x2248;" horiz-adv-x="501" 
d="M74.75 263.5c39.75 32.25 94 71 158 71c60 0 83 -37 143 -37c47 0 74.5 14.25 120 39l14.25 -69.75c-41.5 -36 -91 -74.25 -152.5 -74.25c-48.75 0 -83 38 -143 38c-51 0 -79.75 -23 -130 -38zM103.5 445.75c39.75 32.25 94 71 158 71c60 0 83.75 -37 143.75 -37
c47 0 73.75 14.25 119.25 39l14.25 -69.75c-41.5 -36 -91 -74.25 -152.5 -74.25c-48.75 0 -83 38 -143 38c-51 0 -79.75 -23 -130 -38z" />
    <glyph glyph-name="uni2206" unicode="&#x2206;" horiz-adv-x="711" 
d="M13.25 0l427 732h75l183 -732h-685zM258 141.5h281.25l-87.25 340.75z" />
    <glyph glyph-name="lozenge" unicode="&#x25ca;" horiz-adv-x="508" 
d="M72.25 373l264 359h74l144 -359l-260 -373h-74zM223 367l59 -160.75l126.5 174.5l-62 149z" />
    <glyph glyph-name="cdotaccent" unicode="&#x10b;" horiz-adv-x="490" 
d="M288.897 621.75l13.5 84c2 15 12 25 28 25h80c15 0 21 -11 19 -25l-13.5 -84c-2 -15 -12 -23 -26 -23h-80c-14 0 -23 9 -21 23zM74.75 288.5c35.75 219.25 117.25 251.75 217.25 251.75c52 0 170 -7.5 245.5 -34l-15.5 -99s-78.75 6.5 -167.75 6.5
c-65.75 0 -91.75 -4.25 -116.5 -150.25c-21 -128.75 -0.25 -142.5 70 -142.5c92 0 177.75 8.75 177.75 8.75l-15.75 -99.5c-76 -30.5 -141 -37.25 -260.75 -35.5c-99.75 1 -167.75 87.5 -134.25 293.75z" />
    <glyph glyph-name="ccircumflex" unicode="&#x109;" horiz-adv-x="490" 
d="M192.417 598l126 137.5h116l72.5 -137.5h-99.5l-37.5 59l-66 -59h-111.5zM74.75 288.5c35.75 219.25 117.25 251.75 217.25 251.75c52 0 170 -7.5 245.5 -34l-15.5 -99s-78.75 6.5 -167.75 6.5c-65.75 0 -91.75 -4.25 -116.5 -150.25c-21 -128.75 -0.25 -142.5 70 -142.5
c92 0 177.75 8.75 177.75 8.75l-15.75 -99.5c-76 -30.5 -141 -37.25 -260.75 -35.5c-99.75 1 -167.75 87.5 -134.25 293.75z" />
    <glyph glyph-name="Hbar" unicode="&#x126;" horiz-adv-x="669" 
d="M55.75 0l82 516.25h-64l10.25 69.25h64l23.75 146.5h164l-23.75 -146.5h215l23.75 146.5h164l-23.75 -146.5h63.5l-10.25 -69.25h-63.5l-82 -516.25h-164l44.5 279.75h-215l-44.5 -279.75h-164zM287.75 429h215l14 87.25h-215z" />
    <glyph glyph-name="Hcircumflex" unicode="&#x124;" horiz-adv-x="636" 
d="M295.365 797l126 137.5h116l72.5 -137.5h-99.5l-37.5 59l-66 -59h-111.5zM55 0l116 732h164l-48.25 -303.5h215l48.25 303.5h164l-116 -732h-164l44.25 279.5h-215l-44.25 -279.5h-164z" />
    <glyph glyph-name="Idotaccent" unicode="&#x130;" horiz-adv-x="267" 
d="M204.346 820l13.5 84c2 15 12 25 28 25h80c15 0 21 -11 19 -25l-13.5 -84c-2 -15 -12 -23 -26 -23h-80c-14 0 -23 9 -21 23zM56.25 0l116 732h164l-116 -732h-164z" />
    <glyph glyph-name="Gbreve" unicode="&#x11e;" horiz-adv-x="615" 
d="M342.598 912.26h61.75c-3.75 -33.25 13 -52.25 45.25 -52.25c39.25 -0.25 57 18.5 60.5 52.25h61.75c-7.25 -71.25 -52.5 -112.5 -123 -112.5c-65 0 -112.25 43 -106.25 112.5zM99 399.25c44.25 233.25 103 340.5 302 340.5c131.5 0.25 167.5 -5.5 281.25 -36.5l-20 -125
c-19.5 2.25 -131.25 19.75 -238 20c-84.5 0.25 -129.75 -32.5 -160.5 -231c-26 -163.75 -18.25 -221 77 -220.75c66 0 107.75 48.25 107.75 48.25l17.5 104.25h-79l16.25 102.5c47.25 20.75 109.25 25 179 25c21 0 43.75 -1 67.75 -3l-67.75 -423.5h-117l-37.75 51
c-33.5 -35 -68.25 -52.75 -147.25 -56.5c-203.25 -9.5 -219 206.25 -181.25 404.75z" />
    <glyph glyph-name="Jcircumflex" unicode="&#x134;" horiz-adv-x="355" 
d="M202.365 797l126 137.5h116l72.5 -137.5h-99.5l-37.5 59l-66 -59h-111.5zM26.75 24l21.25 129c96.5 -4.5 128.75 4 143 95.25l76.5 483.75h164l-90 -567c-7 -47 -21.5 -115 -76.5 -147c-58 -34 -191.25 -28 -238.25 6z" />
    <glyph glyph-name="hbar" unicode="&#x127;" horiz-adv-x="570" 
d="M60 0l95.5 602.5h-64.25l11 69h64.25l17.5 111h164l-17.5 -111h104.75l-11 -69h-104.75l-20 -126c54.25 30.5 90 63.75 167.25 63.5c130 0 142.75 -86.5 125.75 -192.5l-55.25 -347.5h-164l55.25 350.5c7.75 48 -7.5 63.25 -36.75 63c-41.25 -0.25 -75.25 -12.5 -108 -42
l-59 -371.5h-164.75z" />
    <glyph glyph-name="hcircumflex" unicode="&#x125;" horiz-adv-x="552" 
d="M49.25 842.5l126 137.5h116l72.5 -137.5h-99.5l-37.5 59l-66 -59h-111.5zM-1.75 0l124 782.5h163.25l-48.5 -306c42.25 30.5 88.75 63.5 169.75 63.5c130 0 142.75 -86.5 125.75 -192.5l-55.25 -347.5h-164l55.25 350.5c7.75 48 -7.25 63 -36.75 63
c-47.75 0 -77.75 -12.5 -110.5 -42l-59 -371.5h-164z" />
    <glyph glyph-name="jcircumflex" unicode="&#x135;" horiz-adv-x="251" 
d="M6.5 -270l127 801h165.25l-85 -535c-13 -86 -31 -184.5 -83 -266h-124.25zM61.25 594.75l125.75 138.5h116l72.75 -138.5h-100.5l-44.5 58.25l-64.5 -58.25h-105z" />
    <glyph glyph-name="Cdotaccent" unicode="&#x10a;" horiz-adv-x="569" 
d="M383.897 823l13.5 84c2 15 12 25 28 25h80c15 0 21 -11 19 -25l-13.5 -84c-2 -15 -12 -23 -26 -23h-80c-14 0 -23 9 -21 23zM94.75 391.25c36.75 233.25 110.25 348.75 309.25 348.75c121 0 175.75 -10.25 253.5 -37.5l-20.25 -128c-6.25 0.75 -109.75 17 -210.75 16.5
c-76.75 -0.25 -131.75 4 -167.75 -225c-26.5 -163.5 -9.75 -220.75 95.25 -223c89.75 -0.75 181.5 6.25 217 8.75l-20 -128c-70.75 -25.25 -136.75 -32 -264 -29.75c-185.25 2.25 -227.75 170.25 -192.25 397.25z" />
    <glyph glyph-name="Ccircumflex" unicode="&#x108;" horiz-adv-x="569" 
d="M284.167 800l126 137.5h116l72.5 -137.5h-99.5l-37.5 59l-66 -59h-111.5zM94.75 391.25c36.75 233.25 110.25 348.75 309.25 348.75c121 0 175.75 -10.25 253.5 -37.5l-20.25 -128c-6.25 0.75 -109.75 17 -210.75 16.5c-76.75 -0.25 -131.75 4 -167.75 -225
c-26.5 -163.5 -9.75 -220.75 95.25 -223c89.75 -0.75 181.5 6.25 217 8.75l-20 -128c-70.75 -25.25 -136.75 -32 -264 -29.75c-185.25 2.25 -227.75 170.25 -192.25 397.25z" />
    <glyph glyph-name="Gdotaccent" unicode="&#x120;" horiz-adv-x="615" 
d="M384.25 823l13.5 84c2 15 12 25 28 25h80c15 0 21 -11 19 -25l-13.5 -84c-2 -15 -12 -23 -26 -23h-80c-14 0 -23 9 -21 23zM99 399.25c44.25 233.25 103 340.5 302 340.5c131.5 0.25 167.5 -5.5 281.25 -36.5l-20 -125c-19.5 2.25 -131.25 19.75 -238 20
c-84.5 0.25 -129.75 -32.5 -160.5 -231c-26 -163.75 -18.25 -221 77 -220.75c66 0 107.75 48.25 107.75 48.25l17.5 104.25h-79l16.25 102.5c47.25 20.75 109.25 25 179 25c21 0 43.75 -1 67.75 -3l-67.75 -423.5h-117l-37.75 51c-33.5 -35 -68.25 -52.75 -147.25 -56.5
c-203.25 -9.5 -219 206.25 -181.25 404.75z" />
    <glyph glyph-name="Gcircumflex" unicode="&#x11c;" horiz-adv-x="615" 
d="M283.457 799.76l126 137.5h116l72.5 -137.5h-99.5l-37.5 59l-66 -59h-111.5zM99 399.25c44.25 233.25 103 340.5 302 340.5c131.5 0.25 167.5 -5.5 281.25 -36.5l-20 -125c-19.5 2.25 -131.25 19.75 -238 20c-84.5 0.25 -129.75 -32.5 -160.5 -231
c-26 -163.75 -18.25 -221 77 -220.75c66 0 107.75 48.25 107.75 48.25l17.5 104.25h-79l16.25 102.5c47.25 20.75 109.25 25 179 25c21 0 43.75 -1 67.75 -3l-67.75 -423.5h-117l-37.75 51c-33.5 -35 -68.25 -52.75 -147.25 -56.5c-203.25 -9.5 -219 206.25 -181.25 404.75z
" />
    <glyph glyph-name="Ubreve" unicode="&#x16c;" horiz-adv-x="653" 
d="M362.131 909.5h61.75c-3.75 -33.25 13 -52.25 45.25 -52.25c39.25 -0.25 57 18.5 60.5 52.25h61.75c-7.25 -71.25 -52.5 -112.5 -123 -112.5c-65 0 -112.25 43 -106.25 112.5zM103.75 338l63.5 394h164.25l-65.75 -416.5c-18.75 -118 -11 -171.5 90.25 -171.5
c99.25 0 125 59.5 142.5 171.5l65.75 416.5h165l-62 -439c-44 -278 -182.25 -298 -333.75 -298c-143 0 -278.25 38 -229.75 343z" />
    <glyph glyph-name="Scircumflex" unicode="&#x15c;" horiz-adv-x="582" 
d="M252.556 798.844l126 137.5h116l72.5 -137.5h-99.5l-37.5 59l-66 -59h-111.5zM67.75 23.5l20.25 128.25c40 -4.5 154 -10.75 247 -10.75c42.5 0 78.25 9.5 85.25 53.25l4.25 29c6 36 0.5 57.5 -51.5 57.5h-87.25c-182.5 0 -177.877 151.664 -170.25 205.75l10.75 79.5
c21.25 147.75 118.75 170.75 229.75 172c124.25 2.5 216.5 -8.5 282.5 -30.75l-20.25 -128c-59.75 5.25 -184.25 9.75 -233.75 9.75c-59.5 1 -86.75 -3.5 -95.75 -59l-4 -24.75c-8 -50 8 -60.5 61.75 -60.5h90.25c144.75 0 163.25 -121.5 152.5 -202l-4.25 -64.25
c-11.25 -179 -148.5 -186.5 -243.25 -186.5c-127.525 0 -194 4.25 -274 31.5z" />
    <glyph glyph-name="ubreve" unicode="&#x16d;" horiz-adv-x="551" 
d="M271.256 710.75h61.75c-3.75 -33.25 13 -52.25 45.25 -52.25c39.25 -0.25 57 18.5 60.5 52.25h61.75c-7.25 -71.25 -52.5 -112.5 -123 -112.5c-65 0 -112.25 43 -106.25 112.5zM62.5 183.5l55 347.5h164l-55.75 -350.5c-8.25 -50.5 8.25 -63 37.5 -63
c47.75 0 77.75 12.5 110.5 42l58.75 371.5h164l-84.75 -531h-134.5l-20.25 54.5c-48.25 -38 -87.75 -63.5 -168.75 -63.5c-130 0 -143 84.75 -125.75 192.5z" />
    <glyph glyph-name="scircumflex" unicode="&#x15d;" horiz-adv-x="509" 
d="M186.667 599.5l126 137.5h116l72.5 -137.5h-99.5l-37.5 59l-66 -59h-111.5zM52.75 26.25l15.75 99.25h241.75c12.75 0 28.5 3.75 32.5 26.25l3 17.25c3 17.75 -1.5 27.25 -24.5 27.25h-108.25c-94 0 -148.5 59.5 -132.5 161.75l8 47.25c13.25 83 58.25 132 161.25 132
c120.25 0 253.75 -0.5 286 -31l-15.75 -99.75h-232.5c-25.75 0 -34.25 -9.75 -37.25 -28.25l-2.75 -17.25c-5 -28.75 12.75 -26.25 28.75 -26.25h112.5c106.5 0 137.5 -77.25 124.75 -155.25l-9 -60c-17 -109 -91 -125.75 -153 -125.75c-119.5 0 -267 0.75 -298.75 32.5z
" />
    <glyph glyph-name="gbreve" unicode="&#x11f;" horiz-adv-x="558" 
d="M273.308 714h61.75c-3.75 -33.25 13 -52.25 45.25 -52.25c39.25 -0.25 57 18.5 60.5 52.25h61.75c-7.25 -71.25 -52.5 -112.5 -123 -112.5c-65 0 -112.25 43 -106.25 112.5zM13 -248l17 109h213c51.5 0 90 31 100 95l13.5 84.25c-36.5 -27.5 -77.5 -38 -122.5 -38
c-154.75 0 -186 117.75 -157.25 301.25c29.25 183.75 116.25 238 238 238c106 0 232.25 -15.25 282 -32.75l-91.25 -575.25c-22.25 -140.5 -99.75 -222.5 -261 -205.5zM241.5 285.25c-16 -101.75 -22.75 -159.75 44.75 -159.75c33.5 0 54.75 4 86.75 20.5l44.25 276.5
h-80.75c-70.25 0 -85.75 -81 -95 -137.25z" />
    <glyph glyph-name="gdotaccent" unicode="&#x121;" horiz-adv-x="558" 
d="M312.147 624.5l13.5 84c2 15 12 25 28 25h80c15 0 21 -11 19 -25l-13.5 -84c-2 -15 -12 -23 -26 -23h-80c-14 0 -23 9 -21 23zM13 -248l17 109h213c51.5 0 90 31 100 95l13.5 84.25c-36.5 -27.5 -77.5 -38 -122.5 -38c-154.75 0 -186 117.75 -157.25 301.25
c29.25 183.75 116.25 238 238 238c106 0 232.25 -15.25 282 -32.75l-91.25 -575.25c-22.25 -140.5 -99.75 -222.5 -261 -205.5zM241.5 285.25c-16 -101.75 -22.75 -159.75 44.75 -159.75c33.5 0 54.75 4 86.75 20.5l44.25 276.5h-80.75c-70.25 0 -85.75 -81 -95 -137.25z
" />
    <glyph glyph-name="gcircumflex" unicode="&#x11d;" horiz-adv-x="558" 
d="M215.917 601.5l126 137.5h116l72.5 -137.5h-99.5l-37.5 59l-66 -59h-111.5zM13 -248l17 109h213c51.5 0 90 31 100 95l13.5 84.25c-36.5 -27.5 -77.5 -38 -122.5 -38c-154.75 0 -186 117.75 -157.25 301.25c29.25 183.75 116.25 238 238 238
c106 0 232.25 -15.25 282 -32.75l-91.25 -575.25c-22.25 -140.5 -99.75 -222.5 -261 -205.5zM241.5 285.25c-16 -101.75 -22.75 -159.75 44.75 -159.75c33.5 0 54.75 4 86.75 20.5l44.25 276.5h-80.75c-70.25 0 -85.75 -81 -95 -137.25z" />
    <glyph glyph-name="gbreve.salt" horiz-adv-x="517" 
d="M237.616 710.75h61.75c-3.75 -33.25 13 -52.25 45.25 -52.25c39.25 -0.25 57 18.5 60.5 52.25h61.75c-7.25 -71.25 -52.5 -112.5 -123 -112.5c-65 0 -112.25 43 -106.25 112.5zM12.25 -101l42 215c5 36 27 86 77 86c-56.5 34 -53 113.5 -45 166.5
c22.25 142 116.75 168.5 214 166.5l97.5 -2c68 -0.75 173 -37.75 146 -209.5c-11.5 -77 -69 -173.5 -211 -173.5h-72c-16 0 -40.25 5 -45.25 -15.75c-4.75 -20 17.25 -23 37.5 -26.75l125.5 -22.75c67.25 -14.25 137.25 -56.75 121.25 -158.25l-8 -48
c-13.25 -84.25 -49.5 -146.5 -196.5 -146.5h-116.5c-144 0 -185.5 73 -166.5 169zM178 -93.5c-7 -37.25 4.25 -47.5 40.25 -47.5h67.5c32.75 0 41 14.75 45 40l2 15.25c4.75 32.75 -6.25 40 -37.75 45.75l-103.75 16zM250.25 344c-8 -49 -7.75 -76 38.5 -76h33.5
c42 0 52.25 41 57.5 76c9 55 6.25 70 -34.75 70h-33.5c-43 0 -52.25 -18 -61.25 -70z" />
    <glyph glyph-name="gdotaccent.salt" horiz-adv-x="517" 
d="M289.464 621.25l13.5 84c2 15 12 25 28 25h80c15 0 21 -11 19 -25l-13.5 -84c-2 -15 -12 -23 -26 -23h-80c-14 0 -23 9 -21 23zM12.25 -101l42 215c5 36 27 86 77 86c-56.5 34 -53 113.5 -45 166.5c22.25 142 116.75 168.5 214 166.5l97.5 -2
c68 -0.75 173 -37.75 146 -209.5c-11.5 -77 -69 -173.5 -211 -173.5h-72c-16 0 -40.25 5 -45.25 -15.75c-4.75 -20 17.25 -23 37.5 -26.75l125.5 -22.75c67.25 -14.25 137.25 -56.75 121.25 -158.25l-8 -48c-13.25 -84.25 -49.5 -146.5 -196.5 -146.5h-116.5
c-144 0 -185.5 73 -166.5 169zM178 -93.5c-7 -37.25 4.25 -47.5 40.25 -47.5h67.5c32.75 0 41 14.75 45 40l2 15.25c4.75 32.75 -6.25 40 -37.75 45.75l-103.75 16zM250.25 344c-8 -49 -7.75 -76 38.5 -76h33.5c42 0 52.25 41 57.5 76c9 55 6.25 70 -34.75 70h-33.5
c-43 0 -52.25 -18 -61.25 -70z" />
    <glyph glyph-name="gcircumflex.salt" horiz-adv-x="517" 
d="M182.663 598.25l126 137.5h116l72.5 -137.5h-99.5l-37.5 59l-66 -59h-111.5zM12.25 -101l42 215c5 36 27 86 77 86c-56.5 34 -53 113.5 -45 166.5c22.25 142 116.75 168.5 214 166.5l97.5 -2c68 -0.75 173 -37.75 146 -209.5c-11.5 -77 -69 -173.5 -211 -173.5h-72
c-16 0 -40.25 5 -45.25 -15.75c-4.75 -20 17.25 -23 37.5 -26.75l125.5 -22.75c67.25 -14.25 137.25 -56.75 121.25 -158.25l-8 -48c-13.25 -84.25 -49.5 -146.5 -196.5 -146.5h-116.5c-144 0 -185.5 73 -166.5 169zM178 -93.5c-7 -37.25 4.25 -47.5 40.25 -47.5h67.5
c32.75 0 41 14.75 45 40l2 15.25c4.75 32.75 -6.25 40 -37.75 45.75l-103.75 16zM250.25 344c-8 -49 -7.75 -76 38.5 -76h33.5c42 0 52.25 41 57.5 76c9 55 6.25 70 -34.75 70h-33.5c-43 0 -52.25 -18 -61.25 -70z" />
    <glyph glyph-name="f_f" unicode="&#xfb00;" horiz-adv-x="802" 
d="M77.75 412l16.5 102l101.25 17l14 89c10.5 67.5 58 156 178 156c49 0 97.5 -6.5 135.5 -23.75l-15.5 -96.25c-0.75 0 -76.75 0.75 -76.75 0.75c-49.5 0.75 -55.25 -28.5 -63.25 -76.5l-8 -49.25h213.25l15.75 99c16.5 104.25 73.75 156 193.75 156
c49 0 88.75 -5 127.5 -23.75l-15.5 -95.5c-0.75 0 -85 0.75 -85 0.75c-53.25 0.75 -54.75 -24 -64.25 -82.5l-8.25 -54h110l-18.75 -119h-110.5l-65.25 -412h-164l65.25 412h-214.75l-65.25 -412h-164l65.25 412h-97z" />
    <glyph glyph-name="f_f_i" unicode="&#xfb03;" horiz-adv-x="1020" 
d="M77.75 412l16.5 102l101.25 17l14 89c10.5 67.5 58 156 178 156c49 0 97.5 -6.5 135.5 -23.75l-15.5 -96.25c-0.75 0 -76.75 0.75 -76.75 0.75c-49.5 0.75 -53.5 -28.5 -64 -76.5l-8.5 -49.25h200.25l5 35c19.25 122.75 119.5 217 259.5 220
c54.75 0.75 205.75 -5 244.5 -23.75l-14.75 -95.5c-0.75 0 -187 0.75 -187 0.75c-53.5 0 -123.5 -13 -139 -109l-4.25 -27.5l339.75 -10l-82 -521h-164.25l65.25 412h-178l-65.25 -412h-164l65.25 412h-199.75l-65.25 -412h-164.75l65.25 412h-97z" />
    <glyph glyph-name="ffl" unicode="&#xfb04;" horiz-adv-x="1108" 
d="M77.75 412l16.5 102l101.25 17l14 89c10.5 67.5 58 156 178 156c49 0 97.5 -6.5 135.5 -23.75l-15.5 -96.25c-0.75 0 -76.75 0.75 -76.75 0.75c-49.5 0.75 -55 -28.5 -64 -76.5l-8.5 -49.25h204l6.5 42.5c26 165.75 120.75 211.5 242.25 212.5l308 -2.25l-88.75 -564.75
c-11.75 -73.5 0.75 -88 26 -100c0 0 48.25 -21 55.25 -21l-15.5 -98h-103c-94.75 0 -154 48 -132 189l75.75 477.75c-33.75 0 -113 0.75 -113 0.75c-53.5 0 -79.25 -20.5 -91 -94l-6.5 -42.5h110l-19.5 -119h-110.5l-65.25 -412h-164l65.25 412h-202.75l-65.25 -412h-164.75
l65.25 412h-97z" />
    <glyph glyph-name="c_t" horiz-adv-x="853" 
d="M67.25 284.75c38.75 237.25 125.5 247.5 225.5 247.5l363.25 -0.75l48.75 147.75h138.5l-23.25 -148h105.5l-18.75 -119.5h-105.5l-30.75 -192.5c-12.25 -78 0 -90 26 -101.5c0 0 47.75 -20.25 53.25 -20.25l-15.75 -98.75h-109.5c-83.75 0 -144.5 49.75 -122.5 190.5
l35.25 222.5l-281.5 -0.75c-59.75 0 -98.5 9.75 -125.5 -152.75c-21.75 -133.25 2.75 -138.75 73 -138.75c92 0 177.75 8.75 177.75 8.75l-15.75 -99.5c-82.75 -29 -143.25 -35.75 -261.5 -35.5c-102 0.25 -173 66.5 -136.5 291.5z" />
    <glyph glyph-name="s_t" unicode="&#xfb06;" horiz-adv-x="888" 
d="M52.75 26l15.75 99.25h241.75c12.75 0 28.5 3.75 32.5 26.25l3 16.25c3 17.75 -1.5 27.25 -24.5 27.25h-108.25c-94 0 -146.25 59.5 -130.25 161.75l5.75 46.25c9.75 83.75 65 128.25 168 128.25h430.75l48.5 148h138.5l-23 -148h105.5l-19.5 -118.5h-105.5l-30 -193.5
c-12 -78 -0.25 -90 25.75 -101.5c0 0 47.25 -20.25 52.75 -20.25l-15.75 -98.75h-109.5c-83.75 0 -144.5 49.75 -122.5 190.5l34.5 215.25h-379.5c-25.75 0 -34.25 -10.25 -37.25 -28.5l-2.75 -16.25c-5 -28.75 12.75 -26.25 28.75 -26.25h112.5
c106.5 0 135.25 -77.25 122.5 -155.25l-6.75 -59c-13.25 -109.75 -91 -125.75 -153 -125.75c-82 0 -267 0.75 -298.75 32.5z" />
    <glyph glyph-name="t_t" horiz-adv-x="762" 
d="M78.5 413l13.5 86l86.25 33l49.25 148h138.5l-23.75 -148h221l49.25 148h138.5l-23.75 -148h105.5l-18.75 -119h-105.5l-30 -193c-12.25 -78 0.25 -90.25 25 -101.5c0 0 47.75 -20.25 53.25 -20.25l-15.5 -98.75h-107c-80.75 0 -147 49.75 -125 190.5l35.25 223h-221
l-31 -193c-12.25 -78 1 -90.25 25.75 -101.5c0 0 47.75 -20.25 53.25 -20.25l-15.5 -98.75h-107c-80.75 0 -147 49.75 -124.75 190.5l35.25 223h-81z" />
    <glyph glyph-name="f_t" horiz-adv-x="757" 
d="M77.75 412l16.5 102l81 17l15.75 99c16.5 104.25 73.75 156 193.75 156c49 0 88.75 -5 127.5 -23.75l-15.5 -95.5c-0.75 0 -85 0.75 -85 0.75c-53.25 0.75 -54.75 -24 -64.25 -82.5l-8.25 -53h220.5l48.5 148h138.5l-23 -148h105.5l-18.75 -119h-105.5l-30.25 -193
c-12 -78 1 -90.25 25.75 -101.5c0 0 47.25 -20.25 52.75 -20.25l-15 -98.75h-107c-80.75 0 -146.75 49.75 -125 190.5l34.75 223h-221l-65.25 -413h-164l65.25 412h-78.25z" />
    <glyph glyph-name="t_y" horiz-adv-x="947" 
d="M78.5 413l13.5 86l86.25 33l49.25 148h138.5l-23.75 -148h141.5c114 -0.25 166.75 -49.25 172 -135.25l16.25 -221c2.75 -35.5 32.5 -38.25 48.25 -39l113.75 272.5c11 27.75 20.75 64.75 26 123.5h154.75c12.5 -66 -10 -134.75 -29.5 -180l-153 -352
c-113.75 -258 -268.75 -284 -338.5 -295.5v115.25c92.25 46.25 137.25 106.75 174.25 180c-97.75 0 -145 52 -153.25 144.5l-21 194.75c-4.75 60.75 -25.75 73.25 -85 73.25h-85.25l-30.75 -193.25c-12.25 -78 1 -90.25 25.75 -101.5c0 0 47.75 -20.25 53.25 -20.25
l-15.5 -98.75h-107c-80.75 0 -147 49.75 -125 190.5l35.25 223.25h-81z" />
    <glyph glyph-name="f_y" horiz-adv-x="957" 
d="M77.75 412l16.5 102l81 17l15.75 99c16.5 104.25 73.75 156 193.75 156c49 0 88.75 -5 127.5 -23.75l-15.5 -95.5c-0.75 0 -85 0.75 -85 0.75c-53.25 0.75 -54.75 -24 -64.25 -82.5l-8.25 -54h154.5c117.75 0.75 170.75 -49.5 176 -135.25l17.25 -221
c3 -35.5 33.75 -38.25 45.75 -39l111.75 272.5c10.75 27.75 20.5 64.75 25.75 123.5h154.75c12.5 -66 -9.75 -134.75 -29.25 -180l-153.25 -352c-113.75 -258 -268.5 -284 -338.25 -295.5v115.25c92.25 46.25 138 106.75 175 180c-93.25 0 -141.5 52 -150.5 144.5
l-20.75 194.75c-5 60.75 -26.25 74 -86.25 73.25h-101.75l-65.25 -412h-164l65.25 412h-78.25z" />
    <glyph glyph-name="kgreenlandic" unicode="&#x138;" horiz-adv-x="582" 
d="M40.5 0l84 531h164.75l-33 -208.5h40.75l167.25 208.5h189.25l-214.25 -280.75l119.5 -250.25h-180.5l-91.75 203.5h-48.75l-32.5 -203.5h-164.75z" />
    <glyph glyph-name="Rcommaaccent" unicode="&#x156;" horiz-adv-x="601" 
d="M217.925 -274.2l7.875 49.0498c27 -0.899414 29.25 11.9258 31.0498 21.1504l1.5752 9h-9.89941c-12.6006 0 -21.6006 7.2002 -18.9004 22.5l13.9502 89.0996c2.7002 16.2002 11.9248 24.3008 26.3252 24.3008h86.3994c16.2002 0 19.5752 -10.8008 17.7754 -24.3008
l-19.3506 -121.5c-16.875 -105.074 -136.8 -69.2998 -136.8 -69.2998zM51.75 0l116 732h308.25c118.75 0 199.75 -71.75 173.75 -250c-25.75 -178.5 -109 -193.25 -147 -198.75l103 -283.25h-186l-81 275.25l-78.5 6.5l-44.5 -281.75h-164zM281 407.25h123.25
c52 0 72.25 27.5 80.5 93.5c8 66 -4 88.75 -50 88.75h-124.5z" />
    <glyph glyph-name="Itilde" unicode="&#x128;" horiz-adv-x="267" 
d="M101.3 857.5c34.5 35.25 81 71.5 133.25 71.5c45.5 -0.75 63 -34.5 100 -34.75c36 -1.75 79 20.25 100 38.5l14.25 -66c-31 -31.5 -75.25 -69.75 -124.5 -69.5c-46.25 0.25 -69.75 35 -108 34.75c-40.25 -0.25 -65 -13.5 -99.25 -35zM56.25 0l116 732h164l-116 -732h-164
z" />
    <glyph glyph-name="Lcommaaccent" unicode="&#x13b;" horiz-adv-x="527" 
d="M192.675 -274.2l7.875 49.0498c27 -0.899414 29.25 11.9258 31.0498 21.1504l1.5752 9h-9.89941c-12.6006 0 -21.6006 7.2002 -18.9004 22.5l13.9502 89.0996c2.7002 16.2002 11.9248 24.3008 26.3252 24.3008h86.3994c16.2002 0 19.5752 -10.8008 17.7754 -24.3008
l-19.3506 -121.5c-16.875 -105.074 -136.8 -69.2998 -136.8 -69.2998zM76.5 148.5l92.75 583.5h163.75l-84.25 -531c-8 -53 25.25 -52 54.25 -52h231l-23.75 -149h-299c-85 0 -152 40.25 -134.75 148.5z" />
    <glyph glyph-name="Emacron" unicode="&#x112;" horiz-adv-x="558" 
d="M275.75 792l13.75 85.5h292l-13.75 -85.5h-292zM72.5 160.5l66.25 419c21.25 132.5 110.75 153.5 196.5 152.5c0 0 220.25 -4 306.5 -16l-21.75 -136.75h-264.5c-51 0 -56.25 -29 -60.25 -56l-12.5 -80l266.5 -10.75l-22 -135.5l-269.25 -9.25l-14 -86
c-8.5 -53 25.25 -52 54.25 -52h254.5l-22 -135.75c-79.5 -10.5 -302.5 -17 -302.5 -17c-72.25 -2.75 -177.5 25.25 -155.75 163.5z" />
    <glyph glyph-name="Gcommaaccent" unicode="&#x122;" horiz-adv-x="615" 
d="M239.175 -279.2l7.875 49.0498c27 -0.899414 29.25 11.9258 31.0498 21.1504l1.5752 9h-9.89941c-12.6006 0 -21.6006 7.2002 -18.9004 22.5l13.9502 89.0996c2.7002 16.2002 11.9248 24.3008 26.3252 24.3008h86.3994c16.2002 0 19.5752 -10.8008 17.7754 -24.3008
l-19.3506 -121.5c-16.875 -105.074 -136.8 -69.2998 -136.8 -69.2998zM99 399.25c44.25 233.25 103 340.5 302 340.5c131.5 0.25 167.5 -5.5 281.25 -36.5l-20 -125c-19.5 2.25 -131.25 19.75 -238 20c-84.5 0.25 -129.75 -32.5 -160.5 -231
c-26 -163.75 -18.25 -221 77 -220.75c66 0 107.75 48.25 107.75 48.25l17.5 104.25h-79l16.25 102.5c47.25 20.75 109.25 25 179 25c21 0 43.75 -1 67.75 -3l-67.75 -423.5h-117l-37.75 51c-33.5 -35 -68.25 -52.75 -147.25 -56.5c-203.25 -9.5 -219 206.25 -181.25 404.75z
" />
    <glyph glyph-name="Tbar" unicode="&#x166;" horiz-adv-x="607" 
d="M115.75 583l24 149h553l-24 -149h-197.5l-24.25 -154h90l-11 -69h-90l-56.75 -360h-164l56.75 360h-90l11 69h90l24.25 154h-191.5z" />
    <glyph glyph-name="rcommaaccent" unicode="&#x157;" horiz-adv-x="414" 
d="M42.1748 -274.2l7.875 49.0498c27 -0.899414 29.25 11.9258 31.0498 21.1504l1.5752 9h-9.89941c-12.6006 0 -21.6006 7.2002 -18.9004 22.5l13.9502 89.0996c2.7002 16.2002 11.9248 24.3008 26.3252 24.3008h86.3994c16.2002 0 19.5752 -10.8008 17.7754 -24.3008
l-19.3506 -121.5c-16.875 -105.074 -136.8 -69.2998 -136.8 -69.2998zM62.5 0l84 531h142l11 -67c34 35.75 87.5 72.25 147.75 72.25c20.75 0 38.75 -0.5 52.75 -5.75l-24.75 -157.75c-15 0.75 -47 1.5 -77.5 1.5c-50 0 -93.25 -5.25 -121.5 -59.5l-49.75 -314.75h-164z" />
    <glyph glyph-name="itilde" unicode="&#x129;" horiz-adv-x="237" 
d="M32.5498 658.75c34.5 35.25 81 71.5 133.25 71.5c45.5 -0.75 63 -34.5 100 -34.75c36 -1.75 79 20.25 100 38.5l14.25 -66c-31 -31.5 -75.25 -69.75 -124.5 -69.5c-46.25 0.25 -69.75 35 -108 34.75c-40.25 -0.25 -65 -13.5 -99.25 -35zM30 0l84 531h164l-84 -531h-164z
" />
    <glyph glyph-name="lcommaaccent" unicode="&#x13c;" horiz-adv-x="314" 
d="M69.1748 -274.2l7.875 49.0498c27 -0.899414 29.25 11.9258 31.0498 21.1504l1.5752 9h-9.89941c-12.6006 0 -21.6006 7.2002 -18.9004 22.5l13.9502 89.0996c2.7002 16.2002 11.9248 24.3008 26.3252 24.3008h86.3994c16.2002 0 19.5752 -10.8008 17.7754 -24.3008
l-19.3506 -121.5c-16.875 -105.074 -136.8 -69.2998 -136.8 -69.2998zM68 189l94 594h164l-88.75 -564c-12.25 -76.5 2 -88.75 26.75 -100c0 0 47 -20.25 52.5 -20.25l-15.75 -98.75h-98c-95 0 -156.25 51 -134.75 189z" />
    <glyph glyph-name="emacron" unicode="&#x113;" horiz-adv-x="528" 
d="M209.415 593.5l13.75 85.5h292l-13.75 -85.5h-292zM75.5 308c31 163 76.5 231.5 271.5 233c110.25 0.75 220.25 -28.75 214.25 -153c-10.75 -250.5 -293.5 -202.25 -330.5 -187.25c-10.5 -65.5 9.25 -80.25 80.25 -80.5c53.5 -1.5 149.25 7.5 205.5 17.75l-20 -116
c-78.75 -24.5 -165.5 -38 -286.75 -29c-127.25 8.25 -170.25 121 -134.25 315zM244 307.25c0 0 134 -28 148.75 54.5c7.5 41.75 -14 53.5 -58 52.75c-71.25 -1.5 -80.75 -50.75 -90.75 -107.25z" />
    <glyph glyph-name="gcommaaccent" unicode="&#x123;" horiz-adv-x="625" 
d="M30.5 -248l17 109h213c51.5 0 90 31 100 95l13.5 84.25c-36.5 -27.5 -77.5 -38 -122.5 -38c-154.75 0 -186 117.75 -157.25 301.25c29.25 183.75 116.25 238 238 238c106 0 232.25 -15.25 282 -32.75l-91.25 -575.25c-22.25 -140.5 -99.75 -222.5 -261 -205.5z
M259 285.25c-16 -101.75 -22.75 -159.75 44.75 -159.75c33.5 0 54.75 4 86.75 20.5l44.25 276.5h-80.75c-70.25 0 -85.75 -81 -95 -137.25zM333 627.5l18.75 121.5c17 105.5 137.5 69.25 137.5 69.25l-8 -49.25c-27 1 -30 -12 -31.25 -21.25l-1.75 -8.75h10
c13 0 21 -7 19 -22l-13.75 -89.5c-3 -16 -12.75 -24 -27 -24h-86.5c-16 0 -19 10 -17 24z" />
    <glyph glyph-name="gcommaaccent.salt" horiz-adv-x="517" 
d="M12.25 -101l42 215c5 36 27 86 77 86c-56.5 34 -53 113.5 -45 166.5c22.25 142 116.75 168.5 214 166.5l97.5 -2c68 -0.75 173 -37.75 146 -209.5c-11.5 -77 -69 -173.5 -211 -173.5h-72c-16 0 -40.25 5 -45.25 -15.75c-4.75 -20 17.25 -23 37.5 -26.75l125.5 -22.75
c67.25 -14.25 137.25 -56.75 121.25 -158.25l-8 -48c-13.25 -84.25 -49.5 -146.5 -196.5 -146.5h-116.5c-144 0 -185.5 73 -166.5 169zM178 -93.5c-7 -37.25 4 -47 40 -47h67.5c32.75 0 41.25 14.25 45.25 39.5l2 15.25c4.75 32.75 -6.25 40 -37.75 45.75l-103.75 16z
M250.25 344c-8 -49 -7.75 -76 38.5 -76h33.5c42 0 52.25 41 57.5 76c9 55 6.25 70 -34.75 70h-33.5c-43 0 -52.25 -18 -61.25 -70zM293 620l19 121.5c17 105.5 136.5 69.25 136.5 69.25l-7 -49.25c-27 1 -30.25 -12 -31.5 -21.25l-1.5 -8.75h10c13 0 21 -7 19 -22l-14 -89.5
c-3 -16 -12.5 -24 -26.75 -24h-86.5c-16 0 -19.25 10 -17.25 24z" />
    <glyph glyph-name="tbar" unicode="&#x167;" horiz-adv-x="373" 
d="M59.75 253l11.25 69h66.75l14.25 91h-81l13.5 86l86.25 33l48.5 148h138.5l-23 -148h105.5l-18.75 -119h-105.5l-14.25 -91h74.25l-11.25 -69h-74.25l-5.25 -33c-12.25 -78 1 -90.25 25.75 -101.5c0 0 48 -20.25 53.5 -20.25l-15.75 -98.75h-107
c-80.75 0 -147 49.75 -125 190.5l9.75 63h-66.75z" />
    <glyph glyph-name="Eng" unicode="&#x14a;" horiz-adv-x="672" 
d="M53.75 0l116 732h165l182.25 -429l67.75 429h164l-115.75 -731l-11 -70c-29.25 -182.75 -178.75 -197.75 -296.75 -188l18.75 117c53.5 4.75 103 4 114.5 77.5l10.5 64l-183.25 420l-67 -421.5h-165z" />
    <glyph glyph-name="eng" unicode="&#x14b;" horiz-adv-x="559" 
d="M40.5 0l84 531h134.5l21 -54.5c54.25 30.5 88 63.5 169 63.5c130 0 142.75 -86.5 125.75 -192.5l-55.25 -347.5l-10.5 -60c-28.5 -166.75 -175.25 -204.5 -240.5 -208l-23.25 90.5c54 17 84.75 29.5 99.75 113.5l10.5 64l55.25 350.5c7.75 48 -7.5 63 -36.75 63
c-47.75 0 -77.75 -12.5 -110.5 -42l-59 -371.5h-164z" />
    <glyph glyph-name="Amacron" unicode="&#x100;" horiz-adv-x="698" 
d="M344.613 797l13.75 85.5h292l-13.75 -85.5h-292zM30 0l355 732h190.25l114.75 -732h-168l-25.5 147h-215.25l-69.75 -147h-181.5zM343.5 289.25h139.75l-33 234.5z" />
    <glyph glyph-name="Iogonek" unicode="&#x12e;" horiz-adv-x="267" 
d="M114.085 0.769531h61.1787c-86.5449 -56.75 -54.4639 -111.5 -6.2168 -106l-12.9326 -82.5c-106.938 -29.5 -192.24 114 -42.0293 188.5zM56.25 0l116 732h164l-116 -732h-164z" />
    <glyph glyph-name="Edotaccent" unicode="&#x116;" horiz-adv-x="558" 
d="M371.061 820l13.5 84c2 15 12 25 28 25h80c15 0 21 -11 19 -25l-13.5 -84c-2 -15 -12 -23 -26 -23h-80c-14 0 -23 9 -21 23zM72.5 160.5l66.25 419c21.25 132.5 110.75 153.5 196.5 152.5c0 0 220.25 -4 306.5 -16l-21.75 -136.75h-264.5c-51 0 -56.25 -29 -60.25 -56
l-12.5 -80l266.5 -10.75l-22 -135.5l-269.25 -9.25l-14 -86c-8.5 -53 25.25 -52 54.25 -52h254.5l-22 -135.75c-79.5 -10.5 -302.5 -17 -302.5 -17c-72.25 -2.75 -177.5 25.25 -155.75 163.5z" />
    <glyph glyph-name="Imacron" unicode="&#x12a;" horiz-adv-x="267" 
d="M103.5 795.75l13.75 85.5h292l-13.75 -85.5h-292zM44.25 0l116 732h164l-116 -732h-164z" />
    <glyph glyph-name="Ncommaaccent" unicode="&#x145;" horiz-adv-x="672" 
d="M250.925 -274.2l7.875 49.0498c27 -0.899414 29.25 11.9258 31.0498 21.1504l1.5752 9h-9.89941c-12.6006 0 -21.6006 7.2002 -18.9004 22.5l13.9502 89.0996c2.7002 16.2002 11.9248 24.3008 26.3252 24.3008h86.3994c16.2002 0 19.5752 -10.8008 17.7754 -24.3008
l-19.3506 -121.5c-16.875 -105.074 -136.8 -69.2998 -136.8 -69.2998zM53.75 0l116 732h165l182.25 -432.75l67.75 432.75h164l-116 -732h-163l-184 425.25l-67 -425.25h-165z" />
    <glyph glyph-name="Omacron" unicode="&#x14c;" horiz-adv-x="666" 
d="M319.75 795.75l13.75 85.5h292l-13.75 -85.5h-292zM99.25 379.75c54 343 185 357.25 354.75 357.25c173.25 0 294.25 -54.75 241.25 -394.75c-50.5 -323 -175.25 -346.25 -353.5 -346.25c-175.5 0 -295.5 50.75 -242.5 383.75zM263.25 361
c-28.25 -179 -11.75 -216 99.25 -216c100 0 140.25 37.5 168.75 216c32 202.25 1.25 227 -98 227s-137.25 -18 -170 -227z" />
    <glyph glyph-name="Kcommaaccent" unicode="&#x136;" horiz-adv-x="638" 
d="M220.675 -274.2l7.875 49.0498c27 -0.899414 29.25 11.9258 31.0498 21.1504l1.5752 9h-9.89941c-12.6006 0 -21.6006 7.2002 -18.9004 22.5l13.9502 89.0996c2.7002 16.2002 11.9248 24.3008 26.3252 24.3008h86.3994c16.2002 0 19.5752 -10.8008 17.7754 -24.3008
l-19.3506 -121.5c-16.875 -105.074 -136.8 -69.2998 -136.8 -69.2998zM53.75 0l116 732h156.5l-47.5 -298h44.25l215 298h197.75l-270.25 -379.75l154.25 -352.25h-185.75l-117.25 292.5h-59.5l-46 -292.5h-157.5z" />
    <glyph glyph-name="Uogonek" unicode="&#x172;" horiz-adv-x="653" 
d="M311.5 1h61.5c-87 -56.75 -54.75 -111.5 -6.25 -106l-13 -82.5c-107.5 -29.5 -193.25 114 -42.25 188.5zM103.75 338l63.5 394h164.25l-65.75 -416.5c-18.75 -118 -11 -171.5 90.25 -171.5c99.25 0 125 59.5 142.5 171.5l65.75 416.5h165l-62 -439
c-44 -278 -182.25 -298 -333.75 -298c-143 0 -278.25 38 -229.75 343z" />
    <glyph glyph-name="Utilde" unicode="&#x168;" horiz-adv-x="653" 
d="M294.925 857.5c34.5 35.25 81 71.5 133.25 71.5c45.5 -0.75 63 -34.5 100 -34.75c36 -1.75 79 20.25 100 38.5l14.25 -66c-31 -31.5 -75.25 -69.75 -124.5 -69.5c-46.25 0.25 -69.75 35 -108 34.75c-40.25 -0.25 -65 -13.5 -99.25 -35zM103.75 338l63.5 394h164.25
l-65.75 -416.5c-18.75 -118 -11 -171.5 90.25 -171.5c99.25 0 125 59.5 142.5 171.5l65.75 416.5h165l-62 -439c-44 -278 -182.25 -298 -333.75 -298c-143 0 -278.25 38 -229.75 343z" />
    <glyph glyph-name="Umacron" unicode="&#x16a;" horiz-adv-x="653" 
d="M312.738 797l13.75 85.5h292l-13.75 -85.5h-292zM103.75 338l63.5 394h164.25l-65.75 -416.5c-18.75 -118 -11 -171.5 90.25 -171.5c99.25 0 125 59.5 142.5 171.5l65.75 416.5h165l-62 -439c-44 -278 -182.25 -298 -333.75 -298c-143 0 -278.25 38 -229.75 343z" />
    <glyph glyph-name="amacron" unicode="&#x101;" horiz-adv-x="544" 
d="M204.704 601.493l13.75 85.5h292l-13.75 -85.5h-292zM73.75 303.5c44.25 220.75 164.75 235 263.25 237.5c79 2.25 194.75 -13 245.75 -62l-70 -477.5h-128l-25.25 52.5c-25.25 -37.75 -92.5 -59.5 -151.5 -59.5c-99.75 0 -176.5 98 -134.25 309zM234 278.75
c-13 -87 -13.25 -149.5 43.75 -149.5c50.75 0 77.25 19 96.5 51l33.25 226.75c-21 9.25 -57.5 12.75 -82.75 7c-38 -8.25 -74 -22.25 -90.75 -135.25z" />
    <glyph glyph-name="iogonek" unicode="&#x12f;" horiz-adv-x="237" 
d="M88.46 3.76953h61.5c-87 -56.75 -54.75 -111.5 -6.25 -106l-13 -82.5c-107.5 -29.5 -193.25 114 -42.25 188.5zM36.75 0l84 531h164l-84 -531h-164zM129.5 607l15.5 101.25c2 15 12 25 28 25h125c15 0 20.25 -11 18.25 -25l-15.5 -101.25c-2 -15 -12.25 -23 -26.25 -23
h-125c-14 0 -22 9 -20 23z" />
    <glyph glyph-name="edotaccent" unicode="&#x117;" horiz-adv-x="528" 
d="M298.397 624l13.5 84c2 15 12 25 28 25h80c15 0 21 -11 19 -25l-13.5 -84c-2 -15 -12 -23 -26 -23h-80c-14 0 -23 9 -21 23zM75.5 308c31 163 76.5 231.5 271.5 233c110.25 0.75 220.25 -28.75 214.25 -153c-10.75 -250.5 -293.5 -202.25 -330.5 -187.25
c-10.5 -65.5 9.25 -80.25 80.25 -80.5c53.5 -1.5 149.25 7.5 205.5 17.75l-20 -116c-78.75 -24.5 -165.5 -38 -286.75 -29c-127.25 8.25 -170.25 121 -134.25 315zM244 307.25c0 0 134 -28 148.75 54.5c7.5 41.75 -14 53.5 -58 52.75
c-71.25 -1.5 -80.75 -50.75 -90.75 -107.25z" />
    <glyph glyph-name="imacron" unicode="&#x12b;" horiz-adv-x="237" 
d="M56.4648 598.25l13.75 85.5h292l-13.75 -85.5h-292zM30 0l84 531h164l-84 -531h-164z" />
    <glyph glyph-name="ncommaaccent" unicode="&#x146;" horiz-adv-x="552" 
d="M180.425 -274.2l7.875 49.0498c27 -0.899414 29.25 11.9258 31.0498 21.1504l1.5752 9h-9.89941c-12.6006 0 -21.6006 7.2002 -18.9004 22.5l13.9502 89.0996c2.7002 16.2002 11.9248 24.3008 26.3252 24.3008h86.3994c16.2002 0 19.5752 -10.8008 17.7754 -24.3008
l-19.3506 -121.5c-16.875 -105.074 -136.8 -69.2998 -136.8 -69.2998zM40.5 0l84 531h134.5l21 -54.5c45.25 32 88 63.5 169 63.5c130 0 142.75 -86.5 125.75 -192.5l-55.25 -347.5h-164l55.25 350.5c7.75 48 -7.5 63 -36.75 63c-47.75 0 -77.75 -12.5 -110.5 -42
l-59 -371.5h-164z" />
    <glyph glyph-name="omacron" unicode="&#x14d;" horiz-adv-x="555" 
d="M225.665 598.25l13.75 85.5h292l-13.75 -85.5h-292zM73.25 276.75c34 217 107 261.5 288.5 261.5s234.5 -94 202 -299c-31.5 -197 -97.5 -244.25 -284.5 -244.25c-183.25 0 -236 91.75 -206 281.75zM237.25 258c-20 -121.75 -4.5 -136.5 59.5 -136.5
c67.5 0 82 9.5 103 136.5c20.75 129 14 153.75 -57.25 153.75c-72.25 0 -84 -22.25 -105.25 -153.75z" />
    <glyph glyph-name="kcommaaccent" unicode="&#x137;" horiz-adv-x="545" 
d="M199.925 -274.2l7.875 49.0498c27 -0.899414 29.25 11.9258 31.0498 21.1504l1.5752 9h-9.89941c-12.6006 0 -21.6006 7.2002 -18.9004 22.5l13.9502 89.0996c2.7002 16.2002 11.9248 24.3008 26.3252 24.3008h86.3994c16.2002 0 19.5752 -10.8008 17.7754 -24.3008
l-19.3506 -121.5c-16.875 -105.074 -136.8 -69.2998 -136.8 -69.2998zM40.5 -2l124 782h164l-69.5 -436c73.75 29 148.5 95 176.5 185h173c-38.5 -140 -121.5 -210 -180.5 -243l148.5 -288h-180l-116.25 235l-38 -1l-37.75 -234h-164z" />
    <glyph glyph-name="uogonek" unicode="&#x173;" horiz-adv-x="561" 
d="M413 -1.5h61.5c-87 -56.75 -54.75 -111.5 -6.25 -106l-13 -82.5c-107.5 -29.5 -193.25 114 -42.25 188.5zM62.5 183.5l55 347.5h164l-55.75 -350.5c-8.25 -50.5 8.25 -63 37.5 -63c47.75 0 77.75 12.5 110.5 42l58.75 371.5h164l-84.75 -531h-134.5l-20.25 54.5
c-48.25 -38 -87.75 -63.5 -168.75 -63.5c-130 0 -143 84.75 -125.75 192.5z" />
    <glyph glyph-name="utilde" unicode="&#x169;" horiz-adv-x="551" 
d="M204.05 658.75c34.5 35.25 81 71.5 133.25 71.5c45.5 -0.75 63 -34.5 100 -34.75c36 -1.75 79 20.25 100 38.5l14.25 -66c-31 -31.5 -75.25 -69.75 -124.5 -69.5c-46.25 0.25 -69.75 35 -108 34.75c-40.25 -0.25 -65 -13.5 -99.25 -35zM62.5 183.5l55 347.5h164
l-55.75 -350.5c-8.25 -50.5 8.25 -63 37.5 -63c47.75 0 77.75 12.5 110.5 42l58.75 371.5h164l-84.75 -531h-134.5l-20.25 54.5c-48.25 -38 -87.75 -63.5 -168.75 -63.5c-130 0 -143 84.75 -125.75 192.5z" />
    <glyph glyph-name="umacron" unicode="&#x16b;" horiz-adv-x="551" 
d="M221.863 598.25l13.75 85.5h292l-13.75 -85.5h-292zM62.5 183.5l55 347.5h164l-55.75 -350.5c-8.25 -50.5 8.25 -63 37.5 -63c47.75 0 77.75 12.5 110.5 42l58.75 371.5h164l-84.75 -531h-134.5l-20.25 54.5c-48.25 -38 -87.75 -63.5 -168.75 -63.5
c-130 0 -143 84.75 -125.75 192.5z" />
    <glyph glyph-name="exclam.smcp" horiz-adv-x="272" 
d="M63.25 23l16.5 102c2 15 12 25 28 25h100c15 0 21 -11 19 -25l-16.5 -102c-2 -15 -12 -23 -26 -23h-100c-14 0 -23 9 -21 23zM99 189.5l46.5 380.5h159.5l-78.5 -380.5h-127.5z" />
    <glyph glyph-name="quotedbl.smcp" horiz-adv-x="467" 
d="M129.75 386.5l9.25 134l11 67h156.5l-11 -67l-31 -134h-134.75zM325.5 386.5l10.75 134l11 67h156.5l-11 -67l-31 -134h-136.25z" />
    <glyph glyph-name="numbersign.smcp" horiz-adv-x="625" 
d="M35 142.5l34.75 111.75h119.25l28 85h-119.75l34.5 111.75h120l43.75 136.25h112l-43.75 -136.25h85.75l43.5 136.25h112l-43.5 -136.25h123.75l-34.5 -111.75h-124l-27.75 -85l122.75 -0.75l-33.25 -111.75h-125l-46 -142h-112l45.75 142l-85.5 0.75l-46 -142.75h-112
l45.75 142.75h-118.5zM301.25 254.25h85.75l27.5 85h-85.5z" />
    <glyph glyph-name="dollar.smcp" horiz-adv-x="526" 
d="M56.25 14.75l18 115.25c7.5 0 135.5 -5 231 -5c26.5 0 43.75 16 46.5 32.75l3.75 20c4.25 25.75 -9.5 33 -34.5 33h-94c-126.5 0 -149 91.5 -135.5 178l5.75 35.5c15.75 99.5 74 147.5 191.75 149.25l12.25 78.5h97l-12.5 -82c55 -4 122.5 -11.5 167.25 -19.75l-18 -117
s-140.25 6.75 -225.75 6.75c-25.25 0 -44.5 -10.75 -48.75 -38.25l-2.75 -16.75c-3.75 -24 7 -33.5 35 -33.5h103.25c120.75 0 137.75 -100.5 124.5 -185l-5.25 -32c-23.5 -147.75 -101 -143.75 -221.5 -143.75l-12.25 -75.5h-96.75l12.25 78.75
c-58 3.5 -122.5 10.5 -140.75 20.75z" />
    <glyph glyph-name="percent.smcp" horiz-adv-x="996" 
d="M71.5 347l16.5 105.5c13 84.5 48.5 125 152 125h89.75c95 0 132.25 -53.5 119 -140l-16.5 -105.5c-13.25 -87 -48 -125 -149.75 -125h-89.75c-92.25 0 -134 55.25 -121.25 140zM185.25 362c-4 -28.75 0 -45 36.5 -45h52.25c39.25 0 48 16.5 52 45l9.75 60.5
c5.75 37 -3.5 45 -36.25 45h-52.25c-31 0 -46.75 -8.25 -52.25 -45zM299 0l370 570h111.5l-365.5 -570h-116zM637.75 140.25l16.5 105.5c13 84.5 47.75 125 151.25 125h89.75c95 0 133 -53.5 119.75 -140l-16.5 -105.5c-13 -87 -48 -125 -149.75 -125h-89.75
c-92.25 0 -134 55.25 -121.25 140zM751.5 155.25c-4 -28.75 -1 -45 35.5 -45h52.25c39.25 0 49 16.5 53 45l9 60.5c5.75 37 -3.5 45 -36.25 45h-52.25c-31 0 -46.75 -8.25 -52.25 -45z" />
    <glyph glyph-name="ampersand.smcp" horiz-adv-x="594" 
d="M65.75 84.25c-46.25 99.75 -3.75 167 78.5 231l54.75 41.75l-18.5 32c-48.5 84 17.25 171.5 88 181.5c77.5 11 179 -5.5 225.5 -21l-18 -113h-99.5c-34.5 0 -55.5 -13.25 -35.25 -47.5l73 -125.75l121.25 79.75l52.25 -70.75l-71.25 -95.25l-36 -27.5l91.25 -149.5h-165
l-40 64.5l-41.25 -33c-55.5 -42.25 -203.75 -69.25 -259.75 52.75zM197.25 153.25c13 -20 31.75 -30 60.25 -9.25l41.75 32.5l-39.25 67.5l-44 -31.5c-28.75 -20.5 -30.75 -39.75 -18.75 -59.25z" />
    <glyph glyph-name="quotesingle.smcp" horiz-adv-x="269" 
d="M129 386.5l10 134l11 67h156.5l-11 -67l-31 -134h-135.5z" />
    <glyph glyph-name="asterisk.smcp" horiz-adv-x="422" 
d="M96 396.75l9.75 62.5l142.5 21.5l-9.5 -89zM125.5 247.75l46 137.25l83.5 -22.25l-73.5 -133.75zM230.25 294l60.75 75l98 -89.75l-44 -50zM249 551.5l62.75 20.5l45 -124l-88 -33zM298.75 402l131.75 79.5l27.5 -51.5l-114.25 -97z" />
    <glyph glyph-name="zero.smcp" horiz-adv-x="559" 
d="M71.75 177l36.25 246c16.5 112.75 99.25 147 197.75 147h134c145.75 0 146.75 -121.25 137.5 -177l-35.5 -246c-16.75 -119 -91.75 -147 -193 -147h-134c-91 0 -162 57 -143 177zM239.5 202.5c-8.25 -52 12.75 -53.5 41.25 -53.5h48.5c39.25 0 50 22 55.25 54.25
l25 157.5c5.25 35.25 9.25 60.25 -38.5 60.25h-48.5c-46.75 0 -53.25 -27 -58 -59.5z" />
    <glyph glyph-name="one.smcp" horiz-adv-x="366" 
d="M86.25 382.5l16.25 105.5c21.25 0 101.75 40.75 137.75 82h162l-87.5 -570h-164l62.75 408.25c-36.25 -26.5 -103.25 -25.75 -127.25 -25.75z" />
    <glyph glyph-name="two.smcp" horiz-adv-x="518" 
d="M34 0l23 143c87 33 307.5 129.75 321.5 220.5c7.5 48.25 -7.25 63.75 -92 63.75l-191.75 -0.25l19.5 121.5c85 19.25 113.75 28.5 244.5 28.5c152.25 0 206 -89 186.25 -219c-19 -119.75 -121.5 -183.5 -181.75 -209h146l-24 -149h-451.25z" />
    <glyph glyph-name="three.smcp" horiz-adv-x="504" 
d="M27.25 16l19.25 124.25h220.75c24.5 0 45.5 5 49.5 30.75l1.75 10.25c4.75 28.75 -10 33 -39.25 34l-171.5 5l20 128.75l173.25 4c35.25 1 47.25 4.75 51.75 33.75l2 10.75c5.25 27 -9 30.25 -40.75 30.25h-227l20.25 123.25c73 24 195.75 24.25 291 22
c89.75 -2.25 138.25 -68.75 125 -151.5l-3.5 -26.5c-9 -57 -25 -100 -78.75 -112.75c44 -22.25 48.75 -71.25 39.75 -130.25l-2.5 -18.5c-14.5 -93 -60.25 -135 -176 -138.5c-89.75 -2.75 -210 -3 -275 21z" />
    <glyph glyph-name="four.smcp" horiz-adv-x="561" 
d="M44 197.5l231.75 372.5h172.75l-187.5 -309h104l17.25 105l51.25 90h127l-31.5 -195h60l-19.5 -126.5l-63 -19l-18 -113.5h-164l18 113.5h-267.5z" />
    <glyph glyph-name="five.smcp" horiz-adv-x="525" 
d="M54.25 23l19.5 122.5h229.75c31.5 0 44 8 48.75 36.25l3 20c4.25 27.25 3.25 37.25 -33.25 37.25h-50.5c-19.5 0 -45.25 -6 -50.5 -37.5h-137.5l75.75 368.5h392.5l-24 -149h-254l-19.25 -83c22.75 20.75 51.5 25.25 75.5 26.25c8.75 1.25 21 0.5 49 0.5
c118 0 155.5 -68.75 139.5 -172.25l-7.75 -48c-18.75 -119.75 -97.5 -144.5 -189.5 -145.5c-99.25 -1 -188 1 -267 24z" />
    <glyph glyph-name="six.smcp" horiz-adv-x="534" 
d="M88.75 315c34.25 220.5 133 261 220.5 261c79 0 180.75 0.75 257.25 -15l-21.25 -135h-214.5c-54.5 0 -64.25 -41.5 -70 -77.25c54.25 10.25 90.75 11.75 148.75 12c100.5 0.5 132 -79.75 119.5 -160.25l-9 -56.5c-18 -110.75 -81.25 -145 -160.25 -145h-117
c-114.25 0 -193 64.25 -154 316zM243.25 238c-7.5 -49.25 -10.5 -89 30.75 -89h49.25c22.25 0 33.5 5.5 37.5 33.5l3.5 26.25c3.75 25.75 -3.25 29.25 -26.75 29.25h-94.25z" />
    <glyph glyph-name="seven.smcp" horiz-adv-x="477" 
d="M87 421l23.25 149h392l34.75 -70.5l-262.5 -499.5h-176l222.5 421h-234z" />
    <glyph glyph-name="eight.smcp" horiz-adv-x="554" 
d="M70.75 145l8.75 55c9 58 48 69.75 81.75 78.25c-47 17 -56.25 70.75 -51.75 111.75l4.75 43c19.25 121.75 79.25 142 172.25 142h166c83.25 0 140.25 -43.25 122 -157l-7 -35.5c-3 -17 -16 -73.75 -74 -85.75c40.75 -9.5 49 -70.25 44 -104.25l-11 -70
c-17.75 -113.25 -100.5 -122.5 -160 -122.5h-178.5c-122.5 0 -126.75 87.25 -117.25 145zM238.25 170c-5.25 -31.25 4 -35 35.5 -35h53.5c28 0 36.5 5.25 41 32.75l4.25 27.5c4 26 -3 33.5 -28.75 33.5h-61.5c-21 0 -34.75 -4.25 -39 -31.25zM271.75 380.75
c-3.5 -22 3 -33.5 28.5 -33.5h64.5c31.5 0 34 16.75 36.5 31.25l4.75 30c3.75 25.75 -4.5 31.5 -28 31.5h-60.5c-23.75 0 -36.75 -2.75 -41 -31.5z" />
    <glyph glyph-name="nine.smcp" horiz-adv-x="533" 
d="M60.5 14l21.25 135h214.5c54.5 0 64.5 41.5 70.25 77.25c-73.75 -11 -102 -11.75 -157.75 -12c-100.5 -0.5 -123.25 82.75 -110.75 163.25l9 56.5c18 110.75 79.75 142 158.75 142h118.5c114.25 0 192.25 -67.25 153.25 -319c-34.25 -220.5 -132 -258 -219.5 -258
c-79 0 -181 -0.75 -257.5 15zM262 366.25c-3.75 -25.75 2.5 -29.25 26 -29.25h95.75c7.5 49.25 8.5 89 -32.75 89h-49.25c-22.25 0 -31.5 -5.5 -35.5 -33.5z" />
    <glyph glyph-name="question.smcp" horiz-adv-x="463" 
d="M79.5 420l21 133c63 11.5 155 23.75 240 19.75c118.5 0 178.25 -61.25 159.25 -189.75l-3.5 -26c-17.5 -109.25 -97 -154 -204.75 -133.5c0 -0.5 -5 -33.25 -4.75 -34.25h-121l22.25 145.25c44 -1 71.75 -0.5 98.5 0c30.25 0.5 40.75 7 45 33.75l2 14.75
c4.5 31 -9.25 37 -47 37h-207zM124.5 23l16.5 102c2 15 12 25 28 25h98c18 0 24 -9 21 -25l-16.5 -102c-3 -18 -14.75 -23 -28.75 -23h-98c-14 0 -22.25 9 -20.25 23z" />
    <glyph glyph-name="at.smcp" horiz-adv-x="906" 
d="M52.25 64.25l75 474.5c26.25 163.25 122.5 200.5 273.25 200.5h360c155.25 0 190 -104 169.25 -245.5l-47 -316.5c-13.75 -94.25 -57.25 -156.5 -201.25 -156.5h-106.5l-23.75 52.5c-19 -25.75 -52.25 -60.75 -125.25 -59.5c-121.5 2.5 -180.75 102.25 -152 291.75
c34 221.75 141 257.75 237.5 257.75c106.25 0 175.25 -18.25 226.25 -67.25l-50 -348.75c48 0 62.25 9 74.5 90l40.25 271.5c13.75 95.25 -14.5 110.5 -77.75 110.5h-352c-95 0 -111.75 -60 -119.75 -110.5l-72.75 -459.5c-9 -57 1.25 -99 87.25 -99h386l-16.25 -99.5
c-50 -10 -166 -27 -292 -27h-90.5c-185.75 0 -221 120 -202.5 240.5zM399.75 286.75c-10.5 -73.75 -15 -148.5 57 -146.5c55 1.25 91.75 20 111 67.5l34.5 222.25c-36.75 7 -68 7.75 -96.5 7.75c-55.75 0 -89 -32.75 -106 -151z" />
    <glyph glyph-name="a.smcp" horiz-adv-x="612" 
d="M23.75 0l278 570h201.5l86.5 -570h-158.5l-18 103.25h-168l-49 -103.25h-172.5zM303 229.75h97.25l-24 145.5z" />
    <glyph glyph-name="b.smcp" horiz-adv-x="549" 
d="M53.75 0l90 571h269.75c124 0 186.25 -53 169.25 -160.5c-13.25 -83.25 -56.25 -116.5 -104.5 -119.5c45 -7 80.25 -63 67.5 -144c-20.25 -126 -94.5 -147 -220.5 -147h-271.5zM239.5 135h92.5c20.75 0 45 7.5 51.25 51.75c4.25 34.75 -3.75 52.5 -35 52.5
c0 0 -83.5 -0.5 -92.5 0zM273.75 350.75h92.5c33.25 0 44 13.5 48.75 44.75c5 30.75 -6 41.5 -35.5 41.5h-92.5z" />
    <glyph glyph-name="c.smcp" horiz-adv-x="512" 
d="M84 322c27.5 174.25 91 256 271.5 256c87.25 0 156.5 -5.5 220.5 -32.5l-17.25 -111.5c-15 3 -113.5 17.5 -178.5 17.5c-102 0 -116 -51 -132.25 -156.5c-14.25 -89.75 -35 -170.5 80 -172.5c81.25 0.5 183.5 16.75 183.5 16.75l-17.25 -109.5
c-73.5 -30.5 -124.5 -33.75 -230.75 -33.75c-201.25 0 -206 159.5 -179.5 326z" />
    <glyph glyph-name="d.smcp" horiz-adv-x="582" 
d="M53.75 0l91 572h274c182 -2 194.25 -163.25 176 -311.75c-33.75 -273.75 -178.5 -260.25 -264 -260.25h-277zM240.25 141.5h92c66.75 0 86.75 67.5 98.5 141.5c17.25 108.25 -4.5 147.5 -52.5 147.5h-92z" />
    <glyph glyph-name="e.smcp" horiz-adv-x="510" 
d="M71 113l53.25 338c13.5 87.25 76 119.25 152.75 120c0 0 225 -3 292.5 -15.75l-19.75 -124.75h-232.5c-30 0 -33.75 -9 -37.75 -33l-7.25 -45.25l225 -8l-19 -121l-227 -7l-7 -44.75c-5 -29 10 -32 31 -32h228.5l-19.75 -124.5c-88.5 -19.5 -317.25 -17 -317.25 -17
c-68 1.5 -108.25 36.75 -95.75 115z" />
    <glyph glyph-name="f.smcp" horiz-adv-x="511" 
d="M53.75 0l71.5 451c13.5 87.25 75.75 119.25 152.5 120c0 0 225.25 -3 292.75 -15.75l-19.75 -124.75h-232.5c-30 0 -33.5 -9.75 -37.75 -33l-9.5 -61l224.75 -8l-18.75 -121l-227.75 -7l-31.5 -200.5h-164z" />
    <glyph glyph-name="g.smcp" horiz-adv-x="563" 
d="M82 314.25c29 184 87.75 258 244.75 264.75c85.75 4.5 213.25 -2.75 274.5 -25l-18.25 -114.5c-82 10.5 -136.25 13 -201.5 13c-85.5 0 -110.5 -11 -134.75 -164.5c-9.75 -59.75 -28 -146.25 55.25 -147c43.5 0 81.5 19.25 90.75 44.5l7.75 47.75h-73l13.25 86.5
c42 11 92.25 17.5 173.25 17.5c21 0 42 -1 66 -3l-52.75 -334.25h-123.5l-30.5 44c-34.75 -35.5 -72.75 -51 -147 -51c-199.5 -0.25 -152.25 271.25 -144.25 321.25z" />
    <glyph glyph-name="h.smcp" horiz-adv-x="581" 
d="M52.75 -1l90 571h164l-34.75 -220.5h161l34.75 220.5h164l-90 -571h-164l32 201.5h-161l-32 -201.5h-164z" />
    <glyph glyph-name="i.smcp" horiz-adv-x="257" 
d="M53.75 0l90 570h164l-90 -570h-164z" />
    <glyph glyph-name="j.smcp" horiz-adv-x="336" 
d="M26.75 21l21.25 129c94.75 -4.25 110.5 16.25 120.75 75l55 345h164l-64 -405c-7 -46 -31.75 -123.25 -91.25 -149.5c-74.25 -32.5 -161.75 -23.5 -205.75 5.5z" />
    <glyph glyph-name="k.smcp" horiz-adv-x="578" 
d="M52.75 -1l90 571h156.5l-34.75 -224h47l155.75 224h178.5l-194.5 -299.75l112 -271.25h-175.5l-87.5 213h-57.5l-33.5 -213h-156.5z" />
    <glyph glyph-name="l.smcp" horiz-adv-x="503" 
d="M74.5 131l69.25 439h164l-57.5 -364c-9.5 -57.5 17.5 -57 58.75 -57h195l-23.25 -149h-296c-72.5 0 -124.5 39.25 -110.25 131z" />
    <glyph glyph-name="m.smcp" horiz-adv-x="776" 
d="M37 0l143.5 571h214l27.25 -346.25l137.25 346.25h219l-37.5 -571h-161.25l19.25 330l-123.5 -330h-167.5l-25.75 328.75l-79.5 -328.75h-165.25z" />
    <glyph glyph-name="n.smcp" horiz-adv-x="601" 
d="M53.75 0l90 571h161l140 -292.5l44 292.5h163l-90 -571h-160l-138.25 289.75l-45.75 -289.75h-164z" />
    <glyph glyph-name="o.smcp" horiz-adv-x="594" 
d="M80.75 298.75c39 244 137.25 276.25 303.25 276.25c163 0 260.25 -50.75 219.25 -306.75c-39 -245 -136 -273.25 -304 -273.25c-161 0 -257.5 54.75 -218.5 303.75zM245.75 285c-19 -118.5 -6.75 -141 73.25 -141c70.75 0 100.5 18.25 120.25 143
c20.5 128 1.5 139 -75.25 139c-66.5 0 -97.5 -10 -118.25 -141z" />
    <glyph glyph-name="p.smcp" horiz-adv-x="529" 
d="M40.5 0l90 569h278.5c104.75 0 173 -53 153 -199.5c-24.5 -183.75 -134.75 -182.5 -199 -184c-24.75 -0.75 -125 7.75 -127.25 13l-31 -198.5h-164.25zM253.25 304.5h88.75c26 0 45 11.5 53.5 64.5c7.25 42.5 -0.75 66 -33 66h-88.75z" />
    <glyph glyph-name="q.smcp" horiz-adv-x="594" 
d="M80.75 295c39 244 137.25 280 303.25 280c163 0 260.25 -47 219.25 -303c-39 -245 -136 -277 -304 -277c-161 0 -257.5 51 -218.5 300zM245.75 285c-19 -118.5 -6.75 -141 73.25 -141c70.75 0 100.5 18.25 120.25 143c20.5 128 1.5 139 -75.25 139
c-66.5 0 -97.5 -10 -118.25 -141zM249.75 -33h89.5c10.75 -56.75 94.25 -45.5 156 -31.25l-20.5 -125c-114.25 -20.25 -242.25 18 -225 156.25z" />
    <glyph glyph-name="r.smcp" 
d="M40.5 0l90 569.5h268.5c101.5 0 181.5 -59 161.25 -208.25c-15.25 -111.25 -55.5 -141.5 -104.25 -155.25l70.5 -206h-173l-50.25 192.5c-7.5 0.5 -67.25 6.5 -67.5 7l-31.25 -199.5h-164zM253 304.75h86.75c26 0 45 12.75 54.25 65.5c7.75 46.5 -8.5 65.25 -33.5 65.25
h-86.75z" />
    <glyph glyph-name="s.smcp" horiz-adv-x="538" 
d="M60.75 15l18 115s143 -6 245 -6c29 0 36.75 20.5 38 28.5l5 28c4 24 -5.5 28.75 -29 28.75h-115c-113.75 0 -143 71.75 -128.5 169.25l6.5 42.5c13.75 87.25 59 152 186.75 152c52 0 194 -5 274.25 -23.75l-18 -117s-129.75 7.75 -239.75 7.75
c-25 0 -36.75 -15.75 -39.5 -34.75l-4 -23.75c-4 -25.5 6 -30.75 29.5 -30.75h122.5c117.75 0 132.5 -87.75 119 -174l-6.5 -40c-19.25 -122.5 -86.75 -146.75 -169.5 -146.75c-46 0 -257.5 1 -294.75 25z" />
    <glyph glyph-name="t.smcp" horiz-adv-x="522" 
d="M89.75 421l24 149h476l-24 -149h-156l-67 -421h-164l67 421h-156z" />
    <glyph glyph-name="u.smcp" horiz-adv-x="595" 
d="M93 282.5l49 287.5h165l-49 -310c-16.5 -100.5 14.5 -116 70.75 -116c54.75 0 86.75 18.5 102.25 116l49 310h165l-49 -332.5c-37 -233 -162.5 -242.5 -283.5 -242.5c-136 0 -258.5 48.5 -219.5 287.5z" />
    <glyph glyph-name="v.smcp" horiz-adv-x="614" 
d="M113.75 570h170.5l52 -372.5l169 372.5h175.75l-268.75 -570h-201.5z" />
    <glyph glyph-name="w.smcp" horiz-adv-x="848" 
d="M113.75 570h169.75l31.5 -373.25l142.75 373.25h170.75l-63.5 -147.5l38.25 -225.75l143.25 373.25h170.75l-242 -570h-201.5l-21 152.75l-65.75 -152.75h-202z" />
    <glyph glyph-name="x.smcp" horiz-adv-x="600" 
d="M23.75 0l220.75 292.5l-127.25 277.5h196l56.25 -156l99.75 156h199.25l-228.75 -295.25l133.25 -274.75h-189.25l-65.5 147l-96.25 -147h-198.25z" />
    <glyph glyph-name="y.smcp" horiz-adv-x="595" 
d="M113.75 570h171.75l68.25 -195.5l125.5 195.5h183l-246.75 -372.5l-30.75 -198.5h-164l30.75 198.5z" />
    <glyph glyph-name="z.smcp" horiz-adv-x="502" 
d="M23.75 0l24 149l288.5 272h-245.5l23 149h456l-23 -149l-277 -272h234l-24 -149h-456z" />
    <glyph glyph-name="grave.smcp" horiz-adv-x="245" 
d="M119 671.5h130.5l67 -140.5h-99z" />
    <glyph glyph-name="aogonek.smcp" horiz-adv-x="638" 
d="M488 0.75h61.5c-87 -56.75 -54.75 -111.5 -6.25 -106l-13 -82.5c-107.5 -29.5 -193.25 114 -42.25 188.5zM23.75 0l278 570h201.5l86.5 -570h-158.5l-18 103.25h-168l-49 -103.25h-172.5zM303 229.75h97.25l-24 145.5z" />
    <glyph glyph-name="rcommaaccent.smcp" 
d="M185.425 -270.45l7.875 49.0498c27 -0.899414 29.25 11.9258 31.0498 21.1504l1.5752 9h-9.89941c-12.6006 0 -21.6006 7.2002 -18.9004 22.5l13.9502 89.0996c2.7002 16.2002 11.9248 24.3008 26.3252 24.3008h86.3994c16.2002 0 19.5752 -10.8008 17.7754 -24.3008
l-19.3506 -121.5c-16.875 -105.074 -136.8 -69.2998 -136.8 -69.2998zM40.5 0l90 569.5h268.5c101.5 0 181.5 -59 161.25 -208.25c-15.25 -111.25 -55.5 -141.5 -104.25 -155.25l70.5 -206h-173l-50.25 192.5c-7.5 0.5 -67.25 6.5 -67.5 7l-31.25 -199.5h-164zM253 304.75
h86.75c26 0 45 12.75 54.25 65.5c7.75 46.5 -8.5 65.25 -33.5 65.25h-86.75z" />
    <glyph glyph-name="itilde.smcp" horiz-adv-x="257" 
d="M71.25 690.5c34.5 35.25 81 71.5 133.25 71.5c45.5 -0.75 63 -34.5 100 -34.75c36 -1.75 79 20.25 100 38.5l14.25 -66c-31 -31.5 -75.25 -69.75 -124.5 -69.5c-46.25 0.25 -69.75 35 -108 34.75c-40.25 -0.25 -65 -13.5 -99.25 -35zM54.5 0l90 570h164l-90 -570h-164z
" />
    <glyph glyph-name="lcommaaccent.smcp" horiz-adv-x="503" 
d="M173.925 -281.7l7.875 49.0498c27 -0.899414 29.25 11.9258 31.0498 21.1504l1.5752 9h-9.89941c-12.6006 0 -21.6006 7.2002 -18.9004 22.5l13.9502 89.0996c2.7002 16.2002 11.9248 24.3008 26.3252 24.3008h86.3994c16.2002 0 19.5752 -10.8008 17.7754 -24.3008
l-19.3506 -121.5c-16.875 -105.074 -136.8 -69.2998 -136.8 -69.2998zM74.5 131l69.25 439h164l-57.5 -364c-9.5 -57.5 17.5 -57 58.75 -57h195l-23.25 -149h-296c-72.5 0 -124.5 39.25 -110.25 131z" />
    <glyph glyph-name="dieresis.smcp" horiz-adv-x="444" 
d="M125.5 581.75c5.5 34 37.75 61.5 71.75 61.5s57.25 -27.5 51.75 -61.5s-37.5 -62.25 -71.5 -62.25s-57.5 28.25 -52 62.25zM380.5 581.75c5.5 34 37.75 61.5 71.75 61.5s57.25 -27.5 51.75 -61.5s-37.5 -62.25 -71.5 -62.25s-57.5 28.25 -52 62.25z" />
    <glyph glyph-name="scaron.smcp" horiz-adv-x="538" 
d="M226.817 770.5h99.5l40.5 -59l63 59h111.5l-126 -137.5h-112.25zM60.75 15l18 115s143 -6 245 -6c29 0 36.75 20.5 38 28.5l5 28c4 24 -5.5 28.75 -29 28.75h-115c-113.75 0 -143 71.75 -128.5 169.25l6.5 42.5c13.75 87.25 59 152 186.75 152c52 0 194 -5 274.25 -23.75
l-18 -117s-129.75 7.75 -239.75 7.75c-25 0 -36.75 -15.75 -39.5 -34.75l-4 -23.75c-4 -25.5 6 -30.75 29.5 -30.75h122.5c117.75 0 132.5 -87.75 119 -174l-6.5 -40c-19.25 -122.5 -86.75 -146.75 -169.5 -146.75c-46 0 -257.5 1 -294.75 25z" />
    <glyph glyph-name="emacron.smcp" horiz-adv-x="510" 
d="M221 632l13.75 85.5h292l-13.75 -85.5h-292zM71 113l53.25 338c13.5 87.25 76 119.25 152.75 120c0 0 225 -3 292.5 -15.75l-19.75 -124.75h-232.5c-30 0 -33.75 -9 -37.75 -33l-7.25 -45.25l225 -8l-19 -121l-227 -7l-7 -44.75c-5 -29 10 -32 31 -32h228.5
l-19.75 -124.5c-88.5 -19.5 -317.25 -17 -317.25 -17c-68 1.5 -108.25 36.75 -95.75 115z" />
    <glyph glyph-name="gcommaaccent.smcp" horiz-adv-x="563" 
d="M82 314.25c29 184 87.75 258 244.75 264.75c85.75 4.5 213.25 -2.75 274.5 -25l-18.25 -114.5c-82 10.5 -136.25 13 -201.5 13c-85.5 0 -110.5 -11 -134.75 -164.5c-9.75 -59.75 -28 -146.25 55.25 -147c43.5 0 81.5 19.25 90.75 44.5l7.75 47.75h-73l13.25 86.5
c42 11 92.25 17.5 173.25 17.5c21 0 42 -1 66 -3l-52.75 -334.25h-123.5l-30.5 44c-34.75 -35.5 -72.75 -51 -147 -51c-199.5 -0.25 -152.25 271.25 -144.25 321.25zM227.375 -180l13.9482 89.1006c2.7002 16.2002 11.9248 24.3008 26.3252 24.3008h86.4004
c16.2002 0 19.5752 -10.8008 17.7754 -24.3008l-19.3496 -121.5c-16.875 -105.075 -136.8 -69.2998 -136.8 -69.2998l7.875 49.0498c27 -0.900391 29.25 11.9248 31.0498 21.1494l1.5752 9h-9.90039c-12.5996 0 -21.5996 7.2002 -18.8994 22.5z" />
    <glyph glyph-name="tbar.smcp" horiz-adv-x="517" 
d="M32.75 421.5l24 149h471l-24 -149h-154.25l-15.5 -99.5h89.5l-11 -69h-89.5l-40.5 -253h-164l40.5 253h-92.5l11 69h92.5l15.5 99.5h-152.75z" />
    <glyph glyph-name="zcaron.smcp" horiz-adv-x="502" 
d="M211.567 768.25h99.5l40.5 -59l63 59h111.5l-126 -137.5h-112.25zM23.75 0l24 149l288.5 272h-245.5l23 149h456l-23 -149l-277 -272h234l-24 -149h-456z" />
    <glyph glyph-name="macron.smcp" horiz-adv-x="359" 
d="M111.25 493.25l13.75 85.5h292l-13.75 -85.5h-292z" />
    <glyph glyph-name="degree.smcp" horiz-adv-x="267" 
d="M105.75 468.5c6 57 56.75 98.5 112.75 98.5s96 -44.5 90 -101.5s-55.75 -97.75 -111.75 -97.75s-97 43.75 -91 100.75zM168.5 467c-2.75 -21.75 13.75 -38.25 35.5 -38.25s39 16.5 41.75 38.25s-12 39 -33.75 39s-40.75 -17.25 -43.5 -39z" />
    <glyph glyph-name="acute.smcp" horiz-adv-x="243" 
d="M97.25 531l107 140.5h132.5l-140.5 -140.5h-99z" />
    <glyph glyph-name="caron.smcp" horiz-adv-x="377" 
d="M140.25 676h98.25l40 -61l68.5 61h103.25l-122.75 -145h-116z" />
    <glyph glyph-name="eng.smcp" horiz-adv-x="600" 
d="M46.75 -1l90.25 571.75h161l139.75 -277l43.25 277h163l-89.75 -569.25l-8 -48.5c-21.75 -134 -109.75 -173 -265.75 -165l18.5 110.75c47 0 74.75 6 87.75 71l5 32.75l-136 277.25l-45.25 -280.75h-163.75z" />
    <glyph glyph-name="amacron.smcp" horiz-adv-x="612" 
d="M263.415 630l13.75 85.5h292l-13.75 -85.5h-292zM23.75 0l278 570h201.5l86.5 -570h-158.5l-18 103.25h-168l-49 -103.25h-172.5zM303 229.75h97.25l-24 145.5z" />
    <glyph glyph-name="aacute.smcp" horiz-adv-x="612" 
d="M362.542 630l107 140.5h132.5l-140.5 -140.5h-99zM23.75 0l278 570h201.5l86.5 -570h-158.5l-18 103.25h-168l-49 -103.25h-172.5zM303 229.75h97.25l-24 145.5z" />
    <glyph glyph-name="acircumflex.smcp" horiz-adv-x="612" 
d="M255.167 630l126 137.5h116l72.5 -137.5h-99.5l-37.5 59l-66 -59h-111.5zM23.75 0l278 570h201.5l86.5 -570h-158.5l-18 103.25h-168l-49 -103.25h-172.5zM303 229.75h97.25l-24 145.5z" />
    <glyph glyph-name="atilde.smcp" horiz-adv-x="612" 
d="M249.352 690.5c34.5 35.25 81 71.5 133.25 71.5c45.5 -0.75 63 -34.5 100 -34.75c36 -1.75 79 20.25 100 38.5l14.25 -66c-31 -31.5 -75.25 -69.75 -124.5 -69.5c-46.25 0.25 -69.75 35 -108 34.75c-40.25 -0.25 -65 -13.5 -99.25 -35zM23.75 0l278 570h201.5l86.5 -570
h-158.5l-18 103.25h-168l-49 -103.25h-172.5zM303 229.75h97.25l-24 145.5z" />
    <glyph glyph-name="adieresis.smcp" horiz-adv-x="612" 
d="M233.437 692.25c5.5 34 37.75 61.25 71.75 61.25s57.25 -27.25 51.75 -61.25s-37.5 -62.25 -71.5 -62.25s-57.5 28.25 -52 62.25zM488.437 692.25c5.5 34 37.75 61.25 71.75 61.25s57.25 -27.25 51.75 -61.25s-37.5 -62.25 -71.5 -62.25s-57.5 28.25 -52 62.25zM23.75 0
l278 570h201.5l86.5 -570h-158.5l-18 103.25h-168l-49 -103.25h-172.5zM303 229.75h97.25l-24 145.5z" />
    <glyph glyph-name="aring.smcp" horiz-adv-x="612" 
d="M310.573 668.5c4.99707 57 53.5029 100.75 109.503 100.75s98.4941 -43.75 93.4971 -100.75c-4.99609 -57 -51.7314 -100.5 -107.731 -100.5s-100.266 43.5 -95.2686 100.5zM373.323 668.5c-2.15625 -21.75 14.0684 -38.25 35.8184 -38.25s39.5254 16.5 41.6816 38.25
c2.15527 21.75 -13.0469 39.25 -34.7969 39.25s-40.5479 -17.5 -42.7031 -39.25zM23.75 0l278 570h201.5l86.5 -570h-158.5l-18 103.25h-168l-49 -103.25h-172.5zM303 229.75h97.25l-24 145.5z" />
    <glyph glyph-name="ae.smcp" horiz-adv-x="803" 
d="M15.5 0l257.5 454.25c68 121.75 214.5 114.75 308.5 115.75c0 0 215 -3 282.5 -15.75l-20.25 -124.75h-222.5c-30.25 0 -33.25 -9.5 -37.5 -32.75l-7.5 -46.5l215.5 -7.75l-18.75 -121l-218.5 -7.25l-6.25 -43.75c-5 -29.25 9.5 -31.75 30.75 -31.75l219.25 -0.25
l-20.25 -124.5c-88.5 -19.5 -297.75 -16.75 -297.75 -16.75c-57 -1.25 -119 25.25 -106.75 106.25l3.75 25.75h-109l-74.25 -129.25h-178.5zM329.75 240h64.25l25.5 156z" />
    <glyph glyph-name="iogonek.smcp" horiz-adv-x="257" 
d="M108.96 0.769531h61.5c-87 -56.75 -54.75 -111.5 -6.25 -106l-13 -82.5c-107.5 -29.5 -193.25 114 -42.25 188.5zM53.75 0l90 570h164l-90 -570h-164z" />
    <glyph glyph-name="ccaron.smcp" horiz-adv-x="512" 
d="M237 779.25h99.5l40.5 -59l63 59h111.5l-126 -137.5h-112.25zM84 322c27.5 174.25 91 256 271.5 256c87.25 0 156.5 -5.5 220.5 -32.5l-17.25 -111.5c-15 3 -113.5 17.5 -178.5 17.5c-102 0 -116 -51 -132.25 -156.5c-14.25 -89.75 -35 -170.5 80 -172.5
c81.25 0.5 183.5 16.75 183.5 16.75l-17.25 -109.5c-73.5 -30.5 -124.5 -33.75 -230.75 -33.75c-201.25 0 -206 159.5 -179.5 326z" />
    <glyph glyph-name="eacute.smcp" horiz-adv-x="510" 
d="M324.75 631l107 140.5h132.5l-140.5 -140.5h-99zM71 113l53.25 338c13.5 87.25 76 119.25 152.75 120c0 0 225 -3 292.5 -15.75l-19.75 -124.75h-232.5c-30 0 -33.75 -9 -37.75 -33l-7.25 -45.25l225 -8l-19 -121l-227 -7l-7 -44.75c-5 -29 10 -32 31 -32h228.5
l-19.75 -124.5c-88.5 -19.5 -317.25 -17 -317.25 -17c-68 1.5 -108.25 36.75 -95.75 115z" />
    <glyph glyph-name="eogonek.smcp" horiz-adv-x="510" 
d="M421.75 15.25h61.5c-87 -56.75 -54.75 -111.5 -6.25 -106l-13 -82.5c-107.5 -29.5 -193.25 114 -42.25 188.5zM71 113l53.25 338c13.5 87.25 76 119.25 152.75 120c0 0 225 -3 292.5 -15.75l-19.75 -124.75h-232.5c-30 0 -33.75 -9 -37.75 -33l-7.25 -45.25l225 -8
l-19 -121l-227 -7l-7 -44.75c-5 -29 10 -32 31 -32h228.5l-19.75 -124.5c-88.5 -19.5 -317.25 -17 -317.25 -17c-68 1.5 -108.25 36.75 -95.75 115z" />
    <glyph glyph-name="edieresis.smcp" horiz-adv-x="510" 
d="M187.25 682.75c5.5 34 37.75 61.25 71.75 61.25s57.25 -27.25 51.75 -61.25s-37.5 -62.25 -71.5 -62.25s-57.5 28.25 -52 62.25zM442.25 682.75c5.5 34 37.75 61.25 71.75 61.25s57.25 -27.25 51.75 -61.25s-37.5 -62.25 -71.5 -62.25s-57.5 28.25 -52 62.25zM71 113
l53.25 338c13.5 87.25 76 119.25 152.75 120c0 0 225 -3 292.5 -15.75l-19.75 -124.75h-232.5c-30 0 -33.75 -9 -37.75 -33l-7.25 -45.25l225 -8l-19 -121l-227 -7l-7 -44.75c-5 -29 10 -32 31 -32h228.5l-19.75 -124.5c-88.5 -19.5 -317.25 -17 -317.25 -17
c-68 1.5 -108.25 36.75 -95.75 115z" />
    <glyph glyph-name="edotaccent.smcp" horiz-adv-x="510" 
d="M309.5 654.25l13.5 84c2 15 12 25 28 25h80c15 0 21 -11 19 -25l-13.5 -84c-2 -15 -12 -23 -26 -23h-80c-14 0 -23 9 -21 23zM71 113l53.25 338c13.5 87.25 76 119.25 152.75 120c0 0 225 -3 292.5 -15.75l-19.75 -124.75h-232.5c-30 0 -33.75 -9 -37.75 -33
l-7.25 -45.25l225 -8l-19 -121l-227 -7l-7 -44.75c-5 -29 10 -32 31 -32h228.5l-19.75 -124.5c-88.5 -19.5 -317.25 -17 -317.25 -17c-68 1.5 -108.25 36.75 -95.75 115z" />
    <glyph glyph-name="iacute.smcp" horiz-adv-x="257" 
d="M173.542 630l107 140.5h132.5l-140.5 -140.5h-99zM53.75 0l90 570h164l-90 -570h-164z" />
    <glyph glyph-name="icircumflex.smcp" horiz-adv-x="257" 
d="M73.917 630l126 137.5h116l72.5 -137.5h-99.5l-37.5 59l-66 -59h-111.5zM53.75 0l90 570h164l-90 -570h-164z" />
    <glyph glyph-name="imacron.smcp" horiz-adv-x="257" 
d="M88.665 630l13.75 85.5h292l-13.75 -85.5h-292zM53.75 0l90 570h164l-90 -570h-164z" />
    <glyph glyph-name="dcroat.smcp" horiz-adv-x="604" 
d="M53.5 255.5l11.25 69h61.25l39.25 247.5h266.5c182 -2 202 -162.5 178.5 -310.25c-45.75 -290.25 -177.5 -261.75 -263 -261.75h-272.75l40.25 255.5h-61.25zM260.75 141.5h87c66.75 0 86.75 67.5 98.5 141.5c17.25 108.25 -4.25 147.5 -52.25 147.5h-87l-17 -106h70.75
l-10.75 -69h-71.25z" />
    <glyph glyph-name="ncommaaccent.smcp" horiz-adv-x="601" 
d="M207.675 -270.45l7.875 49.0498c27 -0.899414 29.25 11.9258 31.0498 21.1504l1.5752 9h-9.89941c-12.6006 0 -21.6006 7.2002 -18.9004 22.5l13.9502 89.0996c2.7002 16.2002 11.9248 24.3008 26.3252 24.3008h86.3994c16.2002 0 19.5752 -10.8008 17.7754 -24.3008
l-19.3506 -121.5c-16.875 -105.074 -136.8 -69.2998 -136.8 -69.2998zM53.75 0l90 571h161l140 -292.5l44 292.5h163l-90 -571h-160l-138.25 289.75l-45.75 -289.75h-164z" />
    <glyph glyph-name="omacron.smcp" horiz-adv-x="594" 
d="M247.915 635l13.75 85.5h292l-13.75 -85.5h-292zM80.75 298.75c39 244 137.25 276.25 303.25 276.25c163 0 260.25 -50.75 219.25 -306.75c-39 -245 -136 -273.25 -304 -273.25c-161 0 -257.5 54.75 -218.5 303.75zM245.75 285c-19 -118.5 -6.75 -141 73.25 -141
c70.75 0 100.5 18.25 120.25 143c20.5 128 1.5 139 -75.25 139c-66.5 0 -97.5 -10 -118.25 -141z" />
    <glyph glyph-name="kcommaaccent.smcp" horiz-adv-x="578" 
d="M199.175 -270.45l7.875 49.0498c27 -0.899414 29.25 11.9258 31.0498 21.1504l1.5752 9h-9.89941c-12.6006 0 -21.6006 7.2002 -18.9004 22.5l13.9502 89.0996c2.7002 16.2002 11.9248 24.3008 26.3252 24.3008h86.3994c16.2002 0 19.5752 -10.8008 17.7754 -24.3008
l-19.3506 -121.5c-16.875 -105.074 -136.8 -69.2998 -136.8 -69.2998zM52.75 -1l90 571h156.5l-34.75 -224h47l155.75 224h178.5l-194.5 -299.75l112 -271.25h-175.5l-87.5 213h-57.5l-33.5 -213h-156.5z" />
    <glyph glyph-name="ocircumflex.smcp" horiz-adv-x="594" 
d="M236.667 635l126 137.5h116l72.5 -137.5h-99.5l-37.5 59l-66 -59h-111.5zM80.75 298.75c39 244 137.25 276.25 303.25 276.25c163 0 260.25 -50.75 219.25 -306.75c-39 -245 -136 -273.25 -304 -273.25c-161 0 -257.5 54.75 -218.5 303.75zM245.75 285
c-19 -118.5 -6.75 -141 73.25 -141c70.75 0 100.5 18.25 120.25 143c20.5 128 1.5 139 -75.25 139c-66.5 0 -97.5 -10 -118.25 -141z" />
    <glyph glyph-name="otilde.smcp" horiz-adv-x="594" 
d="M230.852 695.5c34.5 35.25 81 71.5 133.25 71.5c45.5 -0.75 63 -34.5 100 -34.75c36 -1.75 79 20.25 100 38.5l14.25 -66c-31 -31.5 -75.25 -69.75 -124.5 -69.5c-46.25 0.25 -69.75 35 -108 34.75c-40.25 -0.25 -65 -13.5 -99.25 -35zM80.75 298.75
c39 244 137.25 276.25 303.25 276.25c163 0 260.25 -50.75 219.25 -306.75c-39 -245 -136 -273.25 -304 -273.25c-161 0 -257.5 54.75 -218.5 303.75zM245.75 285c-19 -118.5 -6.75 -141 73.25 -141c70.75 0 100.5 18.25 120.25 143c20.5 128 1.5 139 -75.25 139
c-66.5 0 -97.5 -10 -118.25 -141z" />
    <glyph glyph-name="odieresis.smcp" horiz-adv-x="594" 
d="M214.938 697.25c5.5 34 37.75 61.25 71.75 61.25s57.25 -27.25 51.75 -61.25s-37.5 -62.25 -71.5 -62.25s-57.5 28.25 -52 62.25zM469.938 697.25c5.5 34 37.75 61.25 71.75 61.25s57.25 -27.25 51.75 -61.25s-37.5 -62.25 -71.5 -62.25s-57.5 28.25 -52 62.25z
M80.75 298.75c39 244 137.25 276.25 303.25 276.25c163 0 260.25 -50.75 219.25 -306.75c-39 -245 -136 -273.25 -304 -273.25c-161 0 -257.5 54.75 -218.5 303.75zM245.75 285c-19 -118.5 -6.75 -141 73.25 -141c70.75 0 100.5 18.25 120.25 143
c20.5 128 1.5 139 -75.25 139c-66.5 0 -97.5 -10 -118.25 -141z" />
    <glyph glyph-name="oslash.smcp" horiz-adv-x="595" 
d="M43.25 0l60 68.25c-25.25 42.25 -33 123.5 -16.25 226.75c39.25 244 138.25 280 304.25 280c56.75 0 107 -4.25 143.75 -22l15 17.75l79.75 -0.25l-48.25 -55c31 -42 40.75 -127 22 -243.5c-39 -245 -136.25 -277 -304.25 -277c-61.5 0 -115.25 5.75 -154 30.75
l-22.25 -25.75h-79.75zM252 285c-4 -23.25 -5 -41.25 -4.25 -55.25l169.75 192c-12.25 4.5 -27.5 4.25 -46.25 4.25c-65.5 0 -98.75 -9.25 -119.25 -141zM262.5 156.5c12 -9.75 30.75 -12.5 57.25 -12.5c72.25 0 99.75 18.25 119.75 143c5.75 34 7.75 58 5.75 75.5z" />
    <glyph glyph-name="uogonek.smcp" horiz-adv-x="583" 
d="M285 -1.25h61.5c-87 -56.75 -54.75 -111.5 -6.25 -106l-13 -82.5c-107.5 -29.5 -193.25 114 -42.25 188.5zM93 282.5l49 287.5h165l-49 -310c-16.5 -100.5 14.5 -116 70.75 -116c54.75 0 86.75 18.5 102.25 116l49 310h165l-49 -332.5
c-37 -233 -162.5 -242.5 -283.5 -242.5c-136 0 -258.5 48.5 -219.5 287.5z" />
    <glyph glyph-name="uacute.smcp" horiz-adv-x="595" 
d="M353.917 630l107 140.5h132.5l-140.5 -140.5h-99zM93 282.5l49 287.5h165l-49 -310c-16.5 -100.5 14.5 -116 70.75 -116c54.75 0 86.75 18.5 102.25 116l49 310h165l-49 -332.5c-37 -233 -162.5 -242.5 -283.5 -242.5c-136 0 -258.5 48.5 -219.5 287.5z" />
    <glyph glyph-name="ucircumflex.smcp" horiz-adv-x="595" 
d="M245.792 630l126 137.5h116l72.5 -137.5h-99.5l-37.5 59l-66 -59h-111.5zM93 282.5l49 287.5h165l-49 -310c-16.5 -100.5 14.5 -116 70.75 -116c54.75 0 86.75 18.5 102.25 116l49 310h165l-49 -332.5c-37 -233 -162.5 -242.5 -283.5 -242.5
c-136 0 -258.5 48.5 -219.5 287.5z" />
    <glyph glyph-name="udieresis.smcp" horiz-adv-x="595" 
d="M224.062 692.25c5.5 34 37.75 61.25 71.75 61.25s57.25 -27.25 51.75 -61.25s-37.5 -62.25 -71.5 -62.25s-57.5 28.25 -52 62.25zM479.062 692.25c5.5 34 37.75 61.25 71.75 61.25s57.25 -27.25 51.75 -61.25s-37.5 -62.25 -71.5 -62.25s-57.5 28.25 -52 62.25zM93 282.5
l49 287.5h165l-49 -310c-16.5 -100.5 14.5 -116 70.75 -116c54.75 0 86.75 18.5 102.25 116l49 310h165l-49 -332.5c-37 -233 -162.5 -242.5 -283.5 -242.5c-136 0 -258.5 48.5 -219.5 287.5z" />
    <glyph glyph-name="utilde.smcp" horiz-adv-x="595" 
d="M239.977 690.5c34.5 35.25 81 71.5 133.25 71.5c45.5 -0.75 63 -34.5 100 -34.75c36 -1.75 79 20.25 100 38.5l14.25 -66c-31 -31.5 -75.25 -69.75 -124.5 -69.5c-46.25 0.25 -69.75 35 -108 34.75c-40.25 -0.25 -65 -13.5 -99.25 -35zM93 282.5l49 287.5h165l-49 -310
c-16.5 -100.5 14.5 -116 70.75 -116c54.75 0 86.75 18.5 102.25 116l49 310h165l-49 -332.5c-37 -233 -162.5 -242.5 -283.5 -242.5c-136 0 -258.5 48.5 -219.5 287.5z" />
    <glyph glyph-name="umacron.smcp" horiz-adv-x="595" 
d="M257.04 630l13.75 85.5h292l-13.75 -85.5h-292zM93 282.5l49 287.5h165l-49 -310c-16.5 -100.5 14.5 -116 70.75 -116c54.75 0 86.75 18.5 102.25 116l49 310h165l-49 -332.5c-37 -233 -162.5 -242.5 -283.5 -242.5c-136 0 -258.5 48.5 -219.5 287.5z" />
    <glyph glyph-name="germandbls.smcp" horiz-adv-x="1033" 
d="M48.75 15l18 115s143 -6 245 -6c29 0 36.75 20.5 38 28.5l5 28c4 24 -5.5 28.75 -29 28.75h-115c-113.75 0 -143 71.75 -128.5 169.25l6.5 42.5c13.75 87.25 59 152 186.75 152c52 0 194 -5 274.25 -23.75l-18 -117s-129.75 7.75 -239.75 7.75
c-25 0 -36.75 -15.75 -39.5 -34.75l-4 -23.75c-4 -25.5 6 -30.75 29.5 -30.75h122.5c117.75 0 132.5 -87.75 119 -174l-6.5 -40c-19.25 -122.5 -86.75 -146.75 -169.5 -146.75c-46 0 -257.5 1 -294.75 25zM562.25 15.75l18 115s143 -6 245 -6c29 0 36.75 20.5 38 28.5l5 28
c4 24 -5.5 28.75 -29 28.75h-115c-113.75 0 -143 71.75 -128.5 169.25l6.5 42.5c13.75 87.25 59 152 186.75 152c52 0 194 -5 274.25 -23.75l-18 -117s-129.75 7.75 -239.75 7.75c-25 0 -36.75 -15.75 -39.5 -34.75l-4 -23.75c-4 -25.5 6 -30.75 29.5 -30.75h122.5
c117.75 0 132.5 -87.75 119 -174l-6.5 -40c-19.25 -122.5 -86.75 -146.75 -169.5 -146.75c-46 0 -257.5 1 -294.75 25z" />
    <glyph glyph-name="agrave.smcp" horiz-adv-x="612" 
d="M264.042 770.5h130.5l67 -140.5h-99zM23.75 0l278 570h201.5l86.5 -570h-158.5l-18 103.25h-168l-49 -103.25h-172.5zM303 229.75h97.25l-24 145.5z" />
    <glyph glyph-name="ccedilla.smcp" horiz-adv-x="512" 
d="M163.75 -182.5l11.25 68.5l43 15c30 12 32.5 22 38.5 60h104.5c-16 -102 -49.75 -143.5 -138.75 -143.5h-58.5zM84 322c27.5 174.25 91 256 271.5 256c87.25 0 156.5 -5.5 220.5 -32.5l-17.25 -111.5c-15 3 -113.5 17.5 -178.5 17.5c-102 0 -116 -51 -132.25 -156.5
c-14.25 -89.75 -35 -170.5 80 -172.5c81.25 0.5 183.5 16.75 183.5 16.75l-17.25 -109.5c-73.5 -30.5 -124.5 -33.75 -230.75 -33.75c-201.25 0 -206 159.5 -179.5 326z" />
    <glyph glyph-name="eth.smcp" horiz-adv-x="607" 
d="M43.25 255.5l11.25 69h61.25l39.25 247.5h266.5c182 -2 202 -162.5 178.5 -310.25c-45.75 -290.25 -177.5 -261.75 -263 -261.75h-272.75l40.25 255.5h-61.25zM250.5 141.5h87c66.75 0 86.75 67.5 98.5 141.5c17.25 108.25 -4.25 147.5 -52.25 147.5h-87l-17 -106h70.75
l-10.75 -69h-71.25z" />
    <glyph glyph-name="egrave.smcp" horiz-adv-x="510" 
d="M224.542 771.5h130.5l67 -140.5h-99zM71 113l53.25 338c13.5 87.25 76 119.25 152.75 120c0 0 225 -3 292.5 -15.75l-19.75 -124.75h-232.5c-30 0 -33.75 -9 -37.75 -33l-7.25 -45.25l225 -8l-19 -121l-227 -7l-7 -44.75c-5 -29 10 -32 31 -32h228.5l-19.75 -124.5
c-88.5 -19.5 -317.25 -17 -317.25 -17c-68 1.5 -108.25 36.75 -95.75 115z" />
    <glyph glyph-name="ecircumflex.smcp" horiz-adv-x="510" 
d="M215.667 631l126 137.5h116l72.5 -137.5h-99.5l-37.5 59l-66 -59h-111.5zM71 113l53.25 338c13.5 87.25 76 119.25 152.75 120c0 0 225 -3 292.5 -15.75l-19.75 -124.75h-232.5c-30 0 -33.75 -9 -37.75 -33l-7.25 -45.25l225 -8l-19 -121l-227 -7l-7 -44.75
c-5 -29 10 -32 31 -32h228.5l-19.75 -124.5c-88.5 -19.5 -317.25 -17 -317.25 -17c-68 1.5 -108.25 36.75 -95.75 115z" />
    <glyph glyph-name="igrave.smcp" horiz-adv-x="257" 
d="M68.292 770.5h130.5l67 -140.5h-99zM53.75 0l90 570h164l-90 -570h-164z" />
    </font>
</defs>
</svg>
